<?xml version="1.0" encoding="utf-8"?>
<!-- Generator: Adobe Adobe Illustrator 29.2.0, SVG Export Plug-In . SVG Version: 6.00 Build 0)  -->
<svg version="1.1" id="Layer_1" xmlns="http://www.w3.org/2000/svg" xmlns:xlink="http://www.w3.org/1999/xlink" x="0px" y="0px"
	 width="32px" height="32px" viewBox="0 0 32 32" style="enable-background:new 0 0 32 32;" xml:space="preserve">
<g>
	<path fill="currentColor" d="M-0.02,27.82c0.41-1.06,0.86-2.13,1.3-3.19c0.6-1.47,1.21-2.94,1.79-4.41c0.17-0.43,0.38-0.88-0.03-1.39c0.6,0,1.1,0,1.6,0
		c0.12,0,0.18,0.1,0.22,0.21c0.94,2.2,1.88,4.4,2.83,6.6c0.3,0.71,0.66,1.4,0.89,2.16c-0.39,0.02-0.79,0.02-1.23,0
		c-0.11-0.15-0.18-0.27-0.23-0.4c-0.29-0.66-0.57-1.31-0.85-1.98c-0.06-0.15-0.16-0.22-0.32-0.22c-1.16,0-2.33-0.01-3.49-0.01
		c-0.16,0-0.27,0.05-0.34,0.21c-0.32,0.81-0.65,1.61-0.98,2.42C0.76,27.82,0.38,27.82-0.02,27.82z M4.07,24.25c0.45,0,0.9,0,1.35,0
		c0.32,0,0.35-0.06,0.23-0.35c-0.29-0.68-0.58-1.36-0.87-2.04c-0.19-0.44-0.4-0.88-0.62-1.36c-0.07,0.1-0.13,0.15-0.16,0.22
		c-0.45,1.08-0.9,2.17-1.35,3.25c-0.09,0.21-0.01,0.28,0.2,0.28C3.23,24.25,3.62,24.25,4.07,24.25z"/>
	<path fill="currentColor" d="M20.41,27.82c-0.43-0.28-0.83-0.56-1.13-0.96c-0.52-0.7-0.79-1.47-0.66-2.35c0.09-0.62,0.27-1.21,0.67-1.71
		c0.56-0.68,1.27-1.07,2.15-1.18c0.85-0.11,1.66,0,2.4,0.45c0.87,0.52,1.35,1.3,1.42,2.29c0.05,0.69,0.06,1.39-0.3,2.04
		c-0.34,0.6-0.8,1.06-1.41,1.4C22.51,27.82,21.48,27.82,20.41,27.82z M22.82,27c0.78-0.39,1.14-1.03,1.26-1.89
		c0.14-1.02-0.54-2.47-1.85-2.57c-0.8-0.06-1.47,0.15-1.94,0.84c-0.46,0.68-0.56,1.4-0.36,2.2C20.24,26.83,21.59,27.54,22.82,27z"/>
	<path fill="currentColor" d="M26.68,27.82c0.03-0.14,0.01-0.28,0.01-0.42c0-1.23,0-2.47,0-3.7c0-0.46-0.09-0.91-0.14-1.37c-0.02-0.22-0.29-0.3-0.3-0.57
		c0.45-0.12,0.9-0.06,1.36-0.05c0.1,0,0.1,0.1,0.12,0.17c0.03,0.18,0.06,0.36,0.1,0.6c0.23-0.19,0.42-0.37,0.63-0.5
		c0.8-0.5,1.65-0.57,2.49-0.15c0.82,0.41,1.01,1.2,1.01,2.02c0.01,1.3-0.03,2.6-0.05,3.93c-0.36,0.03-0.71,0.03-1.09,0
		c0.05-1.41-0.03-2.79-0.07-4.18c0-0.17-0.06-0.34-0.16-0.49c-0.38-0.55-0.89-0.72-1.64-0.51c-0.6,0.17-1.11,0.83-1.11,1.45
		c0,1.08,0,2.16-0.01,3.24c0,0.18,0,0.35-0.08,0.51C27.41,27.82,27.06,27.82,26.68,27.82z"/>
	<path fill="currentColor" d="M9.4,27.82c-0.19-0.34-0.1-0.68-0.1-1.05c0.35-0.01,0.59,0.23,0.87,0.31c0.53,0.15,1.05,0.23,1.57-0.03
		c0.52-0.26,0.61-0.88,0.19-1.29c-0.43-0.42-1.01-0.55-1.52-0.82c-0.58-0.3-1.1-0.64-1.2-1.36c-0.08-0.54,0.04-1.03,0.46-1.39
		c0.42-0.36,0.92-0.58,1.5-0.56c0.5,0.02,1-0.04,1.49,0.16c0.21,0.08,0.3,0.2,0.29,0.41c-0.01,0.21,0.03,0.43-0.04,0.67
		c-0.36-0.11-0.7-0.27-1.07-0.32c-0.31-0.04-0.61-0.05-0.91,0.03c-0.28,0.07-0.48,0.22-0.53,0.51c-0.05,0.29,0.08,0.53,0.32,0.67
		c0.42,0.23,0.87,0.42,1.29,0.64c0.52,0.27,1.01,0.55,1.23,1.15c0.29,0.78-0.01,1.73-0.62,2.13c-0.05,0.03-0.09,0.07-0.14,0.12
		C11.46,27.82,10.45,27.82,9.4,27.82z"/>
	<path fill="currentColor" d="M15.6,27.82c-0.66-0.51-0.81-1.19-0.79-1.96c0.03-0.93-0.01-1.86,0.01-2.79c0.01-0.31-0.13-0.4-0.4-0.41
		c-0.16-0.01-0.33,0.04-0.51-0.14c0.67-0.7,1.24-1.48,2-2.18c0.11,0.36,0.07,0.66,0.06,0.96c-0.01,0.3,0.08,0.42,0.39,0.4
		c0.41-0.02,0.81,0,1.22-0.01c0.26-0.01,0.39,0.11,0.38,0.37c0,0.09-0.01,0.18,0,0.26c0.02,0.24-0.08,0.33-0.32,0.34
		c-0.44,0-0.88,0.04-1.32,0.05c-0.26,0-0.34,0.1-0.34,0.35c0.01,1.04-0.01,2.08,0.01,3.11c0.01,0.6,0.52,1.15,1.24,1
		c0.34-0.07,0.66-0.22,1.04-0.3c0,0.32,0.12,0.62-0.12,0.91C17.31,27.82,16.47,27.82,15.6,27.82z"/>
	<path fill="currentColor" d="M19.2,6.02c0.73-0.12,1.42-0.26,2.12-0.37c1.05-0.16,2.09-0.34,3.12-0.57c0.97-0.22,1.96-0.32,2.93-0.54
		c0.87-0.2,1.77-0.28,2.64-0.48c0.12-0.03,0.26-0.04,0.39,0.06c-0.09,0.25-0.31,0.42-0.47,0.6c-1.22,1.37-2.45,2.73-3.67,4.1
		c-1.22,1.35-2.45,2.7-3.65,4.06c-0.95,1.07-1.91,2.13-2.85,3.21c-0.71,0.81-1.44,1.61-2.17,2.41c-0.2,0.22-0.38,0.24-0.62,0.07
		c-1.82-1.21-3.65-2.41-5.47-3.62c-2.13-1.41-4.27-2.82-6.4-4.23c-0.67-0.45-1.35-0.89-2.02-1.35C2.96,9.3,2.8,9.23,2.82,9.02
		c0.62-0.12,1.24-0.26,1.86-0.37C5.49,8.5,6.29,8.37,7.1,8.23c0.93-0.17,1.87-0.33,2.8-0.51c0.73-0.13,1.46-0.28,2.19-0.41
		c0.94-0.17,1.89-0.33,2.84-0.5c0.74-0.13,1.48-0.28,2.22-0.41c0.46-0.08,0.92-0.18,1.39-0.24C18.75,6.13,18.95,6.05,19.2,6.02z"/>
</g>
</svg>