<svg id="svg" version="1.1" xmlns="http://www.w3.org/2000/svg" 
     xmlns:xlink="http://www.w3.org/1999/xlink" 
     viewBox="0 0 400 321.5533980582524" 
     style="display: block;"><g id="svgg"><path id="path0" d="M196.541 0.348 C 196.231 0.528,195.977 0.958,195.977 1.303 C 195.977 1.648,195.833 1.931,195.656 1.931 C 195.479 1.931,195.334 2.240,195.334 2.617 C 195.334 2.995,194.997 3.611,194.586 3.985 C 194.175 4.360,193.648 5.274,193.414 6.017 C 193.180 6.760,192.793 7.443,192.553 7.535 C 192.312 7.628,192.116 7.997,192.116 8.357 C 192.116 8.716,191.971 9.010,191.794 9.010 C 191.617 9.010,191.472 9.372,191.472 9.815 C 191.472 10.257,191.327 10.619,191.150 10.619 C 190.973 10.619,190.829 10.844,190.829 11.118 C 190.829 11.391,190.503 11.935,190.105 12.324 C 189.706 12.714,189.331 13.323,189.269 13.677 C 189.208 14.031,188.955 14.436,188.706 14.578 C 188.458 14.719,188.254 15.117,188.254 15.462 C 188.254 15.808,188.109 16.090,187.932 16.090 C 187.755 16.090,187.611 16.380,187.611 16.734 C 187.611 17.088,187.469 17.377,187.295 17.377 C 187.121 17.377,186.888 17.739,186.777 18.182 C 186.666 18.624,186.446 18.986,186.289 18.986 C 186.131 18.986,186.002 19.348,186.002 19.791 C 186.002 20.233,185.857 20.595,185.680 20.595 C 185.503 20.595,185.358 20.813,185.358 21.078 C 185.358 21.344,185.132 21.561,184.856 21.561 C 184.580 21.561,184.431 21.684,184.524 21.835 C 184.617 21.986,184.486 22.384,184.232 22.720 C 183.977 23.056,183.765 23.589,183.759 23.904 C 183.754 24.219,183.532 24.561,183.266 24.662 C 183.001 24.764,182.784 25.122,182.784 25.457 C 182.784 25.792,182.639 26.066,182.462 26.066 C 182.285 26.066,182.140 26.428,182.140 26.870 C 182.140 27.313,181.995 27.675,181.818 27.675 C 181.641 27.675,181.496 28.037,181.496 28.479 C 181.496 28.980,181.314 29.284,181.014 29.284 C 180.746 29.284,180.531 29.570,180.531 29.928 C 180.531 30.282,180.386 30.571,180.209 30.571 C 180.032 30.571,179.887 30.773,179.887 31.019 C 179.887 31.266,179.670 31.551,179.405 31.653 C 179.139 31.755,178.922 32.132,178.922 32.492 C 178.922 32.851,178.777 33.146,178.600 33.146 C 178.423 33.146,178.278 33.508,178.278 33.950 C 178.278 34.393,178.134 34.755,177.957 34.755 C 177.780 34.755,177.635 35.044,177.635 35.398 C 177.635 35.756,177.420 36.042,177.152 36.042 C 176.852 36.042,176.669 36.346,176.669 36.846 C 176.669 37.289,176.525 37.651,176.348 37.651 C 176.171 37.651,176.026 38.013,176.026 38.455 C 176.026 38.956,175.843 39.260,175.543 39.260 C 175.278 39.260,175.060 39.477,175.060 39.743 C 175.060 40.008,174.916 40.225,174.739 40.225 C 174.562 40.225,174.417 40.503,174.417 40.842 C 174.417 41.181,174.250 41.514,174.046 41.582 C 173.842 41.650,173.643 42.061,173.605 42.494 C 173.566 42.928,173.371 43.246,173.171 43.202 C 172.971 43.158,172.808 43.484,172.808 43.926 C 172.808 44.368,172.663 44.730,172.486 44.730 C 172.309 44.730,172.164 45.093,172.164 45.535 C 172.164 46.036,171.982 46.340,171.681 46.340 C 171.410 46.340,171.199 46.627,171.199 46.998 C 171.199 47.360,170.837 48.018,170.394 48.460 C 169.952 48.903,169.590 49.476,169.590 49.733 C 169.590 49.990,169.476 50.201,169.336 50.201 C 169.197 50.201,169.059 50.525,169.029 50.920 C 168.999 51.316,168.823 51.690,168.639 51.752 C 168.454 51.813,168.302 52.146,168.302 52.491 C 168.302 52.835,168.085 53.201,167.820 53.303 C 167.554 53.405,167.337 53.762,167.337 54.097 C 167.337 54.432,167.192 54.706,167.015 54.706 C 166.838 54.706,166.693 55.068,166.693 55.511 C 166.693 56.011,166.511 56.315,166.211 56.315 C 165.945 56.315,165.728 56.533,165.728 56.798 C 165.728 57.064,165.583 57.281,165.406 57.281 C 165.229 57.281,165.084 57.486,165.084 57.737 C 165.084 58.312,164.041 60.172,163.717 60.175 C 163.584 60.176,163.475 60.539,163.475 60.981 C 163.475 61.424,163.331 61.786,163.154 61.786 C 162.977 61.786,162.832 62.277,162.832 62.878 C 162.832 63.552,162.647 64.041,162.349 64.155 C 162.046 64.271,161.866 64.763,161.866 65.477 C 161.866 66.102,161.722 66.613,161.545 66.613 C 161.368 66.613,161.223 67.249,161.223 68.027 C 161.223 68.956,161.065 69.501,160.762 69.617 C 160.050 69.891,160.019 83.919,160.730 84.192 C 161.080 84.326,161.223 84.839,161.223 85.956 C 161.223 86.822,161.368 87.530,161.545 87.530 C 161.722 87.530,161.866 88.037,161.866 88.656 C 161.866 89.443,162.012 89.783,162.349 89.783 C 162.686 89.783,162.832 90.122,162.832 90.909 C 162.832 91.529,162.977 92.035,163.154 92.035 C 163.331 92.035,163.475 92.527,163.475 93.127 C 163.475 93.821,163.659 94.290,163.979 94.412 C 164.255 94.518,164.399 94.739,164.297 94.903 C 164.196 95.067,164.332 95.420,164.599 95.687 C 164.866 95.954,165.084 96.473,165.084 96.839 C 165.084 97.206,165.229 97.506,165.406 97.506 C 165.583 97.506,165.728 97.800,165.728 98.160 C 165.728 98.519,165.945 98.897,166.211 98.999 C 166.476 99.101,166.693 99.530,166.693 99.954 C 166.693 100.378,166.838 100.724,167.015 100.724 C 167.192 100.724,167.337 101.086,167.337 101.529 C 167.337 102.029,167.519 102.333,167.820 102.333 C 168.088 102.333,168.302 102.619,168.302 102.977 C 168.302 103.331,168.447 103.620,168.624 103.620 C 168.801 103.620,168.946 103.982,168.946 104.425 C 168.946 104.867,169.088 105.229,169.262 105.229 C 169.435 105.229,169.668 105.590,169.779 106.032 C 169.890 106.473,170.110 106.754,170.268 106.656 C 170.426 106.558,170.555 106.859,170.555 107.325 C 170.555 108.190,171.200 109.091,171.819 109.091 C 172.009 109.091,172.164 109.453,172.164 109.895 C 172.164 110.338,172.309 110.700,172.486 110.700 C 172.663 110.700,172.808 111.062,172.808 111.504 C 172.808 111.947,172.943 112.309,173.108 112.309 C 173.273 112.309,173.511 112.635,173.637 113.033 C 173.762 113.431,174.134 113.991,174.463 114.277 C 174.791 114.564,175.060 114.962,175.060 115.162 C 175.060 115.385,175.686 115.527,176.669 115.527 L 178.278 115.527 178.278 114.240 C 178.278 113.532,178.423 112.953,178.600 112.953 C 178.779 112.953,178.922 112.094,178.922 111.022 C 178.922 109.520,179.029 109.091,179.405 109.091 C 179.742 109.091,179.887 108.751,179.887 107.965 C 179.887 107.345,180.032 106.838,180.209 106.838 C 180.386 106.838,180.531 106.347,180.531 105.746 C 180.531 105.073,180.716 104.584,181.014 104.469 C 181.279 104.367,181.496 103.990,181.496 103.630 C 181.496 103.271,181.641 102.977,181.818 102.977 C 181.995 102.977,182.140 102.615,182.140 102.172 C 182.140 101.730,182.285 101.368,182.462 101.368 C 182.639 101.368,182.784 100.861,182.784 100.241 C 182.784 99.455,182.929 99.115,183.266 99.115 C 183.567 99.115,183.749 98.811,183.749 98.311 C 183.749 97.868,183.894 97.506,184.071 97.506 C 184.248 97.506,184.393 97.144,184.393 96.702 C 184.393 96.201,184.575 95.897,184.875 95.897 C 185.176 95.897,185.358 95.593,185.358 95.093 C 185.358 94.650,185.503 94.288,185.680 94.288 C 185.857 94.288,186.002 93.998,186.002 93.644 C 186.002 93.290,186.146 93.001,186.323 93.001 C 186.500 93.001,186.645 92.639,186.645 92.196 C 186.645 91.696,186.828 91.392,187.128 91.392 C 187.428 91.392,187.611 91.088,187.611 90.587 C 187.611 90.145,187.755 89.783,187.932 89.783 C 188.109 89.783,188.254 89.421,188.254 88.978 C 188.254 88.478,188.437 88.174,188.737 88.174 C 189.015 88.174,189.220 87.883,189.220 87.487 C 189.220 87.110,189.489 86.567,189.817 86.281 C 190.146 85.994,190.518 85.434,190.643 85.036 C 190.769 84.638,191.007 84.312,191.172 84.312 C 191.337 84.312,191.472 83.950,191.472 83.508 C 191.472 83.065,191.617 82.703,191.794 82.703 C 191.971 82.703,192.116 82.341,192.116 81.899 C 192.116 81.456,192.271 81.094,192.461 81.094 C 193.029 81.094,193.725 80.221,193.725 79.508 C 193.725 79.141,193.867 78.842,194.041 78.842 C 194.214 78.842,194.447 78.479,194.558 78.037 C 194.669 77.595,194.889 77.233,195.047 77.233 C 195.205 77.233,195.334 76.870,195.334 76.428 C 195.334 75.986,195.479 75.623,195.656 75.623 C 195.833 75.623,195.977 75.334,195.977 74.980 C 195.977 74.622,196.192 74.336,196.460 74.336 C 196.761 74.336,196.943 74.032,196.943 73.532 C 196.943 73.089,197.088 72.727,197.265 72.727 C 197.442 72.727,197.586 72.365,197.586 71.923 C 197.586 71.422,197.769 71.118,198.069 71.118 C 198.357 71.118,198.552 70.822,198.552 70.385 C 198.552 69.981,198.842 69.443,199.195 69.187 C 199.549 68.932,199.839 68.409,199.839 68.025 C 199.839 67.640,200.056 67.242,200.322 67.140 C 200.587 67.038,200.805 66.661,200.805 66.301 C 200.805 65.942,200.949 65.648,201.126 65.648 C 201.303 65.648,201.448 65.286,201.448 64.843 C 201.448 64.343,201.630 64.039,201.931 64.039 C 202.231 64.039,202.414 63.735,202.414 63.234 C 202.414 62.792,202.558 62.430,202.735 62.430 C 202.912 62.430,203.057 62.068,203.057 61.625 C 203.057 61.183,203.219 60.857,203.417 60.901 C 203.614 60.945,203.824 60.695,203.882 60.344 C 203.940 59.993,204.140 59.655,204.327 59.593 C 204.513 59.531,204.666 59.130,204.666 58.702 C 204.666 58.274,204.794 57.924,204.950 57.924 C 205.107 57.924,205.314 57.620,205.411 57.248 C 205.509 56.876,205.743 56.668,205.932 56.785 C 206.133 56.909,206.275 56.722,206.275 56.334 C 206.275 55.970,206.420 55.672,206.597 55.672 C 206.774 55.672,206.919 55.325,206.919 54.902 C 206.919 54.478,207.136 54.048,207.401 53.946 C 207.667 53.845,207.884 53.467,207.884 53.107 C 207.884 52.748,208.029 52.454,208.206 52.454 C 208.383 52.454,208.528 51.947,208.528 51.327 C 208.528 50.708,208.673 50.201,208.850 50.201 C 209.027 50.201,209.171 49.622,209.171 48.914 C 209.171 48.056,209.305 47.654,209.574 47.707 C 209.825 47.757,210.013 47.336,210.076 46.581 C 210.131 45.917,210.312 45.374,210.478 45.374 C 210.644 45.374,210.780 44.505,210.780 43.443 C 210.780 41.942,210.888 41.512,211.263 41.512 C 211.674 41.512,211.746 40.671,211.746 35.871 C 211.746 31.153,211.667 30.199,211.263 30.044 C 210.910 29.908,210.780 29.351,210.780 27.962 C 210.780 26.913,210.637 26.066,210.459 26.066 C 210.282 26.066,210.137 25.497,210.137 24.802 C 210.137 24.106,209.920 23.320,209.654 23.055 C 209.389 22.789,209.171 22.139,209.171 21.611 C 209.171 21.082,209.031 20.601,208.860 20.542 C 208.688 20.483,208.513 19.964,208.470 19.389 C 208.426 18.813,208.277 18.343,208.138 18.343 C 207.998 18.343,207.884 17.981,207.884 17.538 C 207.884 17.038,207.702 16.734,207.401 16.734 C 206.984 16.734,206.722 15.724,206.881 14.722 C 206.902 14.590,206.774 14.481,206.597 14.481 C 206.420 14.481,206.275 14.119,206.275 13.677 C 206.275 13.176,206.093 12.872,205.792 12.872 C 205.492 12.872,205.310 12.568,205.310 12.068 C 205.310 11.625,205.165 11.263,204.988 11.263 C 204.811 11.263,204.666 10.892,204.666 10.440 C 204.666 9.973,204.527 9.702,204.344 9.815 C 204.167 9.924,204.023 9.726,204.023 9.374 C 204.023 9.022,203.805 8.517,203.540 8.252 C 203.274 7.986,203.057 7.542,203.057 7.264 C 203.057 6.985,202.912 6.758,202.735 6.758 C 202.558 6.758,202.414 6.396,202.414 5.953 C 202.414 5.453,202.231 5.149,201.931 5.149 C 201.519 5.149,201.270 4.471,201.529 4.054 C 201.573 3.982,201.211 3.555,200.724 3.103 C 200.237 2.652,199.839 2.059,199.839 1.785 C 199.839 1.511,199.694 1.287,199.517 1.287 C 199.340 1.287,199.195 1.085,199.195 0.839 C 199.195 0.036,197.586 -0.262,196.541 0.348 M217.860 41.995 C 217.860 42.261,217.715 42.478,217.538 42.478 C 217.355 42.478,217.216 43.432,217.216 44.696 C 217.216 46.371,217.098 46.960,216.734 47.099 C 216.431 47.216,216.251 47.708,216.251 48.421 C 216.251 49.046,216.106 49.558,215.929 49.558 C 215.752 49.558,215.607 50.049,215.607 50.649 C 215.607 51.323,215.423 51.812,215.125 51.927 C 214.843 52.035,214.642 52.517,214.642 53.087 C 214.642 53.624,214.497 54.063,214.320 54.063 C 214.143 54.063,213.998 54.425,213.998 54.867 C 213.998 55.310,213.854 55.672,213.677 55.672 C 213.500 55.672,213.355 56.034,213.355 56.476 C 213.355 56.977,213.172 57.281,212.872 57.281 C 212.535 57.281,212.389 57.620,212.389 58.407 C 212.389 59.027,212.245 59.533,212.068 59.533 C 211.891 59.533,211.746 59.895,211.746 60.338 C 211.746 60.838,211.563 61.142,211.263 61.142 C 210.998 61.142,210.780 61.423,210.780 61.767 C 210.780 62.111,210.636 62.481,210.459 62.591 C 210.282 62.700,210.137 63.070,210.137 63.414 C 210.137 63.758,209.995 64.039,209.821 64.039 C 209.647 64.039,209.415 64.401,209.304 64.843 C 209.192 65.286,208.972 65.648,208.815 65.648 C 208.657 65.648,208.528 66.010,208.528 66.452 C 208.528 66.895,208.383 67.257,208.206 67.257 C 208.029 67.257,207.884 67.619,207.884 68.061 C 207.884 68.504,207.719 68.866,207.517 68.866 C 207.034 68.866,206.298 69.854,206.285 70.521 C 206.280 70.811,206.049 71.136,205.772 71.242 C 205.495 71.349,205.352 71.570,205.453 71.734 C 205.555 71.898,205.419 72.250,205.152 72.517 C 204.885 72.785,204.666 73.303,204.666 73.670 C 204.666 74.036,204.521 74.336,204.344 74.336 C 204.167 74.336,204.023 74.698,204.023 75.141 C 204.023 75.583,203.867 75.945,203.678 75.945 C 203.121 75.945,202.414 76.813,202.414 77.497 C 202.414 77.845,202.196 78.212,201.931 78.314 C 201.665 78.416,201.448 78.794,201.448 79.153 C 201.448 79.513,201.303 79.807,201.126 79.807 C 200.949 79.807,200.805 80.097,200.805 80.451 C 200.805 80.805,200.660 81.094,200.483 81.094 C 200.306 81.094,200.161 81.456,200.161 81.899 C 200.161 82.399,199.979 82.703,199.678 82.703 C 199.378 82.703,199.195 83.007,199.195 83.508 C 199.195 83.950,199.051 84.312,198.874 84.312 C 198.697 84.312,198.552 84.529,198.552 84.795 C 198.552 85.060,198.418 85.278,198.254 85.278 C 197.910 85.278,196.943 87.095,196.943 87.741 C 196.943 87.979,196.801 88.174,196.627 88.174 C 196.454 88.174,196.221 88.536,196.110 88.978 C 195.999 89.421,195.779 89.783,195.621 89.783 C 195.463 89.783,195.334 90.145,195.334 90.587 C 195.334 91.030,195.189 91.392,195.012 91.392 C 194.835 91.392,194.690 91.754,194.690 92.196 C 194.690 92.697,194.508 93.001,194.208 93.001 C 193.907 93.001,193.725 93.305,193.725 93.805 C 193.725 94.248,193.580 94.610,193.403 94.610 C 193.226 94.610,193.081 94.834,193.081 95.108 C 193.081 95.382,192.719 95.941,192.277 96.352 C 191.834 96.762,191.472 97.406,191.472 97.784 C 191.472 98.162,191.327 98.471,191.150 98.471 C 190.973 98.471,190.829 98.746,190.829 99.081 C 190.829 99.416,190.611 99.773,190.346 99.875 C 190.080 99.977,189.863 100.354,189.863 100.714 C 189.863 101.073,189.718 101.368,189.541 101.368 C 189.364 101.368,189.220 101.730,189.220 102.172 C 189.220 102.673,189.037 102.977,188.737 102.977 C 188.437 102.977,188.254 103.281,188.254 103.781 C 188.254 104.224,188.109 104.586,187.932 104.586 C 187.755 104.586,187.611 104.936,187.611 105.363 C 187.611 105.791,187.460 106.191,187.275 106.253 C 187.090 106.314,186.894 106.790,186.838 107.310 C 186.783 107.830,186.572 108.311,186.370 108.378 C 186.167 108.446,186.002 108.987,186.002 109.581 C 186.002 110.176,185.857 110.751,185.680 110.861 C 185.503 110.970,185.358 111.852,185.358 112.821 C 185.358 114.089,185.223 114.634,184.875 114.767 C 184.469 114.923,184.393 115.960,184.393 121.354 C 184.393 126.830,184.462 127.755,184.875 127.755 C 185.251 127.755,185.358 128.184,185.358 129.686 C 185.358 130.759,185.501 131.617,185.680 131.617 C 185.857 131.617,186.002 132.196,186.002 132.904 C 186.002 133.612,186.146 134.191,186.323 134.191 C 186.500 134.191,186.645 134.543,186.645 134.973 C 186.645 135.403,186.862 135.972,187.128 136.237 C 187.393 136.503,187.611 137.165,187.611 137.708 C 187.611 138.252,187.755 138.697,187.932 138.697 C 188.109 138.697,188.254 139.136,188.254 139.672 C 188.254 140.242,188.455 140.725,188.737 140.833 C 189.002 140.935,189.220 141.365,189.220 141.788 C 189.220 142.212,189.364 142.558,189.541 142.558 C 189.718 142.558,189.863 142.920,189.863 143.363 C 189.863 143.863,190.046 144.167,190.346 144.167 C 190.646 144.167,190.829 144.471,190.829 144.972 C 190.829 145.414,190.973 145.776,191.150 145.776 C 191.327 145.776,191.472 146.138,191.472 146.581 C 191.472 147.023,191.617 147.385,191.794 147.385 C 191.971 147.385,192.116 147.680,192.116 148.039 C 192.116 148.399,192.333 148.776,192.599 148.878 C 192.864 148.980,193.081 149.337,193.081 149.672 C 193.081 150.007,193.226 150.282,193.403 150.282 C 193.580 150.282,193.725 150.644,193.725 151.086 C 193.725 151.587,193.907 151.891,194.208 151.891 C 194.508 151.891,194.690 152.195,194.690 152.695 C 194.690 153.138,194.835 153.500,195.012 153.500 C 195.189 153.500,195.334 153.862,195.334 154.304 C 195.334 154.747,195.446 155.109,195.582 155.109 C 195.719 155.109,196.104 155.615,196.438 156.235 C 197.379 157.984,199.839 157.651,199.839 155.775 C 199.839 155.397,200.048 155.109,200.322 155.109 C 200.622 155.109,200.805 154.805,200.805 154.304 C 200.805 153.862,200.949 153.500,201.126 153.500 C 201.303 153.500,201.448 153.138,201.448 152.695 C 201.448 152.253,201.613 151.891,201.815 151.891 C 202.309 151.891,203.034 150.897,203.047 150.201 C 203.053 149.891,203.186 149.638,203.344 149.638 C 203.502 149.638,203.722 149.276,203.833 148.833 C 203.944 148.391,204.177 148.029,204.350 148.029 C 204.524 148.029,204.666 147.667,204.666 147.224 C 204.666 146.782,204.811 146.420,204.988 146.420 C 205.165 146.420,205.310 146.058,205.310 145.615 C 205.310 145.115,205.492 144.811,205.792 144.811 C 206.061 144.811,206.275 144.525,206.275 144.167 C 206.275 143.813,206.420 143.524,206.597 143.524 C 206.774 143.524,206.919 143.162,206.919 142.719 C 206.919 142.219,207.101 141.915,207.401 141.915 C 207.667 141.915,207.884 141.698,207.884 141.432 C 207.884 141.167,208.029 140.949,208.206 140.949 C 208.383 140.949,208.528 140.668,208.528 140.325 C 208.528 139.981,208.673 139.611,208.850 139.501 C 209.027 139.392,209.171 139.021,209.171 138.678 C 209.171 138.334,209.389 138.053,209.654 138.053 C 209.954 138.053,210.137 137.749,210.137 137.249 C 210.137 136.806,210.282 136.444,210.459 136.444 C 210.636 136.444,210.780 136.082,210.780 135.640 C 210.780 135.139,210.963 134.835,211.263 134.835 C 211.551 134.835,211.746 134.539,211.746 134.102 C 211.746 133.698,212.035 133.159,212.389 132.904 C 212.743 132.649,213.033 132.178,213.033 131.858 C 213.033 131.537,213.250 131.192,213.516 131.090 C 213.781 130.988,213.998 130.558,213.998 130.135 C 213.998 129.711,214.143 129.364,214.320 129.364 C 214.497 129.364,214.642 129.002,214.642 128.560 C 214.642 128.059,214.824 127.755,215.125 127.755 C 215.425 127.755,215.607 127.452,215.607 126.951 C 215.607 126.508,215.752 126.146,215.929 126.146 C 216.106 126.146,216.251 125.922,216.251 125.648 C 216.251 125.374,216.613 124.815,217.056 124.405 C 217.498 123.995,217.860 123.350,217.860 122.972 C 217.860 122.594,218.005 122.285,218.182 122.285 C 218.359 122.285,218.504 122.011,218.504 121.676 C 218.504 121.341,218.721 120.983,218.986 120.881 C 219.252 120.779,219.469 120.402,219.469 120.042 C 219.469 119.683,219.614 119.389,219.791 119.389 C 219.968 119.389,220.113 119.027,220.113 118.584 C 220.113 118.083,220.295 117.780,220.595 117.780 C 220.867 117.780,221.078 117.492,221.078 117.123 C 221.078 116.761,221.368 116.155,221.722 115.775 C 222.076 115.395,222.365 114.821,222.365 114.501 C 222.365 114.180,222.507 113.918,222.681 113.918 C 222.855 113.918,223.087 113.556,223.199 113.113 C 223.310 112.671,223.530 112.309,223.687 112.309 C 223.845 112.309,223.974 111.947,223.974 111.504 C 223.974 111.004,224.157 110.700,224.457 110.700 C 224.757 110.700,224.940 110.396,224.940 109.895 C 224.940 109.453,225.084 109.091,225.261 109.091 C 225.438 109.091,225.583 108.797,225.583 108.437 C 225.583 108.078,225.800 107.700,226.066 107.598 C 226.331 107.496,226.549 107.139,226.549 106.804 C 226.549 106.469,226.693 106.195,226.870 106.195 C 227.047 106.195,227.192 105.977,227.192 105.712 C 227.192 105.447,227.337 105.229,227.514 105.229 C 227.691 105.229,227.836 104.867,227.836 104.425 C 227.836 103.982,227.970 103.620,228.134 103.620 C 228.468 103.620,229.445 101.810,229.445 101.192 C 229.445 100.972,229.662 100.710,229.928 100.608 C 230.193 100.506,230.410 100.128,230.410 99.769 C 230.410 99.409,230.555 99.115,230.732 99.115 C 230.909 99.115,231.054 98.753,231.054 98.311 C 231.054 97.868,231.199 97.506,231.376 97.506 C 231.553 97.506,231.698 97.144,231.698 96.702 C 231.698 96.201,231.880 95.897,232.180 95.897 C 232.481 95.897,232.663 95.593,232.663 95.093 C 232.663 94.650,232.808 94.288,232.985 94.288 C 233.162 94.288,233.307 94.014,233.307 93.679 C 233.307 93.344,233.524 92.986,233.789 92.884 C 234.090 92.769,234.272 92.278,234.272 91.582 C 234.272 90.967,234.417 90.375,234.594 90.265 C 234.771 90.156,234.916 89.341,234.916 88.454 C 234.916 87.441,235.097 86.659,235.404 86.352 C 236.054 85.702,235.974 73.669,235.318 73.451 C 235.063 73.366,234.916 72.687,234.916 71.593 C 234.916 70.645,234.771 69.780,234.594 69.670 C 234.417 69.561,234.272 68.973,234.272 68.364 C 234.272 67.594,234.125 67.257,233.789 67.257 C 233.452 67.257,233.307 66.917,233.307 66.130 C 233.307 65.511,233.162 65.004,232.985 65.004 C 232.808 65.004,232.663 64.642,232.663 64.200 C 232.663 63.699,232.481 63.395,232.180 63.395 C 231.843 63.395,231.698 63.055,231.698 62.269 C 231.698 61.649,231.553 61.142,231.376 61.142 C 231.199 61.142,231.054 60.780,231.054 60.338 C 231.054 59.895,230.909 59.533,230.732 59.533 C 230.555 59.533,230.410 59.171,230.410 58.729 C 230.410 58.228,230.228 57.924,229.928 57.924 C 229.627 57.924,229.445 57.620,229.445 57.120 C 229.445 56.677,229.300 56.315,229.123 56.315 C 228.946 56.315,228.801 56.021,228.801 55.662 C 228.801 55.302,228.584 54.925,228.319 54.823 C 228.053 54.721,227.836 54.363,227.836 54.028 C 227.836 53.693,227.691 53.419,227.514 53.419 C 227.337 53.419,227.192 53.110,227.192 52.732 C 227.192 52.354,226.830 51.709,226.388 51.299 C 225.945 50.889,225.583 50.257,225.583 49.895 C 225.583 49.532,225.438 49.236,225.261 49.236 C 225.084 49.236,224.940 48.946,224.940 48.592 C 224.940 48.235,224.725 47.949,224.457 47.949 C 224.157 47.949,223.974 47.645,223.974 47.144 C 223.974 46.702,223.829 46.340,223.652 46.340 C 223.475 46.340,223.331 46.122,223.331 45.857 C 223.331 45.591,223.113 45.374,222.848 45.374 C 222.582 45.374,222.365 45.093,222.365 44.749 C 222.365 44.406,222.220 44.035,222.043 43.926 C 221.866 43.817,221.722 43.446,221.722 43.102 C 221.722 42.759,221.577 42.478,221.400 42.478 C 221.223 42.478,221.078 42.261,221.078 41.995 C 221.078 41.630,220.685 41.512,219.469 41.512 C 218.253 41.512,217.860 41.630,217.860 41.995 M196.943 268.222 C 196.943 268.643,195.388 268.705,184.875 268.705 C 177.045 268.705,172.808 268.818,172.808 269.027 C 172.808 269.229,170.662 269.348,167.015 269.348 C 163.368 269.348,161.223 269.468,161.223 269.670 C 161.223 269.864,159.872 269.992,157.815 269.992 C 154.693 269.992,154.359 270.051,153.834 270.700 C 153.384 271.255,152.751 271.463,150.886 271.667 C 146.075 272.193,142.642 272.556,139.576 272.863 C 137.848 273.037,136.294 273.265,136.125 273.369 C 135.955 273.474,134.618 273.695,133.154 273.861 C 129.176 274.310,126.328 274.715,122.928 275.314 C 121.247 275.611,119.002 275.975,117.940 276.124 C 114.581 276.595,109.040 277.636,107.620 278.062 C 107.076 278.225,106.253 278.359,105.791 278.359 C 105.328 278.359,104.571 278.503,104.108 278.679 C 103.646 278.854,102.442 279.151,101.432 279.338 C 97.624 280.044,96.645 280.249,94.610 280.763 C 93.459 281.055,92.011 281.366,91.392 281.455 C 90.772 281.544,89.976 281.733,89.622 281.876 C 89.006 282.123,87.143 282.619,84.553 283.225 C 82.490 283.708,81.005 284.083,79.002 284.628 C 77.940 284.917,76.710 285.229,76.267 285.320 C 75.825 285.412,75.173 285.605,74.819 285.749 C 74.465 285.893,73.234 286.258,72.084 286.559 C 70.933 286.861,69.743 287.237,69.439 287.396 C 69.135 287.554,68.013 287.592,66.945 287.480 C 65.586 287.338,65.004 287.388,65.004 287.645 C 65.004 287.860,64.467 288.013,63.717 288.013 C 63.009 288.013,62.430 288.158,62.430 288.335 C 62.430 288.512,61.923 288.656,61.303 288.656 C 60.517 288.656,60.177 288.802,60.177 289.139 C 60.177 289.476,59.837 289.622,59.051 289.622 C 58.431 289.622,57.924 289.767,57.924 289.944 C 57.924 290.121,57.418 290.265,56.798 290.265 C 56.011 290.265,55.672 290.411,55.672 290.748 C 55.672 291.097,55.314 291.231,54.385 291.231 C 53.677 291.231,53.097 291.376,53.097 291.553 C 53.097 291.730,52.591 291.874,51.971 291.874 C 51.352 291.874,50.845 292.019,50.845 292.196 C 50.845 292.373,50.493 292.518,50.063 292.518 C 49.633 292.518,49.064 292.735,48.799 293.001 C 48.534 293.266,47.872 293.484,47.328 293.484 C 46.784 293.484,46.340 293.628,46.340 293.805 C 46.340 293.982,45.977 294.127,45.535 294.127 C 45.034 294.127,44.730 294.309,44.730 294.610 C 44.730 294.947,44.391 295.093,43.604 295.093 C 42.985 295.093,42.478 295.237,42.478 295.414 C 42.478 295.591,42.116 295.736,41.673 295.736 C 41.173 295.736,40.869 295.918,40.869 296.219 C 40.869 296.556,40.529 296.702,39.743 296.702 C 39.123 296.702,38.616 296.846,38.616 297.023 C 38.616 297.200,38.254 297.345,37.812 297.345 C 37.369 297.345,37.007 297.490,37.007 297.667 C 37.007 297.844,36.568 297.989,36.032 297.989 C 35.461 297.989,34.979 298.189,34.871 298.471 C 34.769 298.737,34.339 298.954,33.916 298.954 C 33.492 298.954,33.146 299.099,33.146 299.276 C 33.146 299.453,32.784 299.598,32.341 299.598 C 31.841 299.598,31.537 299.780,31.537 300.080 C 31.537 300.418,31.197 300.563,30.410 300.563 C 29.791 300.563,29.284 300.708,29.284 300.885 C 29.284 301.062,28.922 301.207,28.479 301.207 C 28.037 301.207,27.675 301.352,27.675 301.529 C 27.675 301.706,27.381 301.850,27.021 301.850 C 26.662 301.850,26.284 302.068,26.182 302.333 C 26.080 302.599,25.651 302.816,25.227 302.816 C 24.803 302.816,24.457 302.961,24.457 303.138 C 24.457 303.315,24.095 303.459,23.652 303.459 C 23.152 303.459,22.848 303.642,22.848 303.942 C 22.848 304.242,22.544 304.425,22.043 304.425 C 21.601 304.425,21.239 304.570,21.239 304.747 C 21.239 304.924,20.949 305.068,20.595 305.068 C 20.241 305.068,19.952 305.210,19.952 305.384 C 19.952 305.558,19.590 305.791,19.147 305.902 C 18.705 306.013,18.343 306.233,18.343 306.390 C 18.343 306.548,17.981 306.677,17.538 306.677 C 17.096 306.677,16.734 306.822,16.734 306.999 C 16.734 307.176,16.372 307.321,15.929 307.321 C 15.429 307.321,15.125 307.503,15.125 307.804 C 15.125 308.104,14.821 308.286,14.320 308.286 C 13.878 308.286,13.516 308.431,13.516 308.608 C 13.516 308.785,13.242 308.930,12.907 308.930 C 12.571 308.930,12.214 309.147,12.112 309.413 C 12.010 309.678,11.633 309.895,11.273 309.895 C 10.914 309.895,10.619 310.040,10.619 310.217 C 10.619 310.394,10.402 310.539,10.137 310.539 C 9.871 310.539,9.654 310.684,9.654 310.861 C 9.654 311.038,9.360 311.183,9.000 311.183 C 8.641 311.183,8.263 311.400,8.161 311.665 C 8.060 311.931,7.702 312.148,7.367 312.148 C 7.032 312.148,6.758 312.293,6.758 312.470 C 6.758 312.647,6.541 312.792,6.275 312.792 C 6.010 312.792,5.792 313.009,5.792 313.274 C 5.792 313.575,5.489 313.757,4.988 313.757 C 4.545 313.757,4.183 313.902,4.183 314.079 C 4.183 314.256,3.947 314.401,3.657 314.401 C 3.368 314.401,2.795 314.763,2.385 315.205 C 1.975 315.648,1.354 316.010,1.004 316.010 C -0.648 316.010,-0.248 321.304,1.424 321.575 C 3.180 321.860,6.436 321.456,6.436 320.953 C 6.436 320.633,6.950 320.515,8.348 320.515 C 9.399 320.515,10.349 320.370,10.459 320.193 C 10.568 320.016,11.301 319.871,12.087 319.871 C 12.873 319.871,13.516 319.726,13.516 319.549 C 13.516 319.372,14.229 319.228,15.102 319.228 C 16.082 319.228,16.872 319.043,17.170 318.745 C 17.484 318.431,18.281 318.262,19.446 318.262 C 20.432 318.262,21.239 318.117,21.239 317.940 C 21.239 317.762,22.097 317.619,23.170 317.619 C 24.671 317.619,25.101 317.511,25.101 317.136 C 25.101 316.761,25.530 316.653,27.031 316.653 C 28.104 316.653,28.962 316.510,28.962 316.331 C 28.962 316.152,29.824 316.010,30.903 316.010 C 32.331 316.010,32.893 315.882,33.029 315.527 C 33.169 315.162,33.758 315.044,35.433 315.044 C 36.697 315.044,37.651 314.906,37.651 314.722 C 37.651 314.544,38.509 314.401,39.582 314.401 C 40.654 314.401,41.512 314.258,41.512 314.079 C 41.512 313.895,42.466 313.757,43.731 313.757 C 45.406 313.757,45.994 313.639,46.134 313.274 C 46.274 312.909,46.868 312.792,48.582 312.792 C 49.876 312.792,50.845 312.654,50.845 312.470 C 50.845 312.286,51.814 312.148,53.107 312.148 C 54.822 312.148,55.415 312.031,55.555 311.665 C 55.698 311.293,56.320 311.183,58.281 311.183 C 59.759 311.183,60.821 311.048,60.821 310.861 C 60.821 310.675,61.840 310.539,63.234 310.539 C 64.629 310.539,65.648 310.403,65.648 310.217 C 65.648 310.029,66.724 309.895,68.232 309.895 C 70.233 309.895,70.859 309.786,71.002 309.413 C 71.148 309.031,71.820 308.930,74.210 308.930 C 76.010 308.930,77.233 308.800,77.233 308.608 C 77.233 308.416,78.466 308.286,80.290 308.286 C 82.793 308.286,83.347 308.199,83.347 307.804 C 83.347 307.407,83.919 307.321,86.565 307.321 C 88.496 307.321,89.783 307.192,89.783 306.999 C 89.783 306.805,91.124 306.677,93.162 306.677 C 95.951 306.677,96.541 306.593,96.541 306.195 C 96.541 305.793,97.182 305.712,100.383 305.712 C 102.598 305.712,104.310 305.576,104.425 305.390 C 104.539 305.205,106.252 305.068,108.466 305.068 C 110.814 305.068,112.309 304.943,112.309 304.747 C 112.309 304.547,114.029 304.425,116.824 304.425 C 120.541 304.425,121.372 304.339,121.525 303.942 C 121.679 303.540,122.593 303.459,126.985 303.459 C 130.288 303.459,132.261 303.339,132.261 303.138 C 132.261 302.934,134.567 302.816,138.536 302.816 C 143.899 302.816,144.811 302.746,144.811 302.333 C 144.811 301.917,145.937 301.850,153.017 301.850 C 158.273 301.850,161.223 301.735,161.223 301.529 C 161.223 301.316,174.899 301.207,201.609 301.207 C 228.319 301.207,241.995 301.316,241.995 301.529 C 241.995 301.735,245.052 301.850,250.523 301.850 C 257.889 301.850,259.051 301.916,259.051 302.333 C 259.051 302.746,259.998 302.816,265.648 302.816 C 269.831 302.816,272.245 302.934,272.245 303.138 C 272.245 303.339,274.271 303.459,277.681 303.459 C 282.216 303.459,283.148 303.539,283.302 303.942 C 283.455 304.342,284.322 304.425,288.325 304.425 C 291.335 304.425,293.162 304.546,293.162 304.747 C 293.162 304.945,294.824 305.068,297.506 305.068 C 300.188 305.068,301.850 305.192,301.850 305.390 C 301.850 305.587,303.352 305.712,305.712 305.712 C 308.930 305.712,309.574 305.792,309.574 306.195 C 309.574 306.595,310.181 306.677,313.113 306.677 C 315.259 306.677,316.653 306.804,316.653 306.999 C 316.653 307.193,317.981 307.321,319.993 307.321 C 322.569 307.321,323.424 307.431,323.733 307.804 C 324.040 308.173,324.879 308.286,327.312 308.286 C 329.217 308.286,330.491 308.415,330.491 308.608 C 330.491 308.797,331.608 308.930,333.199 308.930 C 335.080 308.930,335.949 309.053,336.042 309.332 C 336.132 309.604,337.136 309.771,339.126 309.847 C 340.748 309.909,342.076 310.090,342.076 310.249 C 342.076 310.409,343.307 310.539,344.811 310.539 C 346.420 310.539,347.546 310.672,347.546 310.861 C 347.546 311.050,348.673 311.183,350.282 311.183 C 352.498 311.183,353.017 311.274,353.017 311.665 C 353.017 312.051,353.500 312.148,355.430 312.148 C 356.825 312.148,357.844 312.284,357.844 312.470 C 357.844 312.652,358.763 312.792,359.959 312.792 C 361.409 312.792,362.225 312.943,362.556 313.274 C 362.885 313.603,363.698 313.757,365.107 313.757 C 366.272 313.757,367.176 313.898,367.176 314.079 C 367.176 314.263,368.142 314.401,369.429 314.401 C 370.716 314.401,371.681 314.539,371.681 314.722 C 371.681 314.906,372.635 315.044,373.900 315.044 C 375.574 315.044,376.163 315.162,376.303 315.527 C 376.439 315.882,377.001 316.010,378.429 316.010 C 379.509 316.010,380.370 316.152,380.370 316.331 C 380.370 316.510,381.217 316.653,382.266 316.653 C 383.655 316.653,384.212 316.782,384.348 317.136 C 384.481 317.484,385.026 317.619,386.294 317.619 C 387.263 317.619,388.145 317.763,388.254 317.940 C 388.364 318.117,389.179 318.262,390.066 318.262 C 390.982 318.262,391.865 318.448,392.108 318.692 C 392.345 318.928,393.239 319.147,394.097 319.179 C 394.954 319.212,395.704 319.380,395.763 319.555 C 396.043 320.381,398.713 319.543,398.713 318.629 C 398.713 318.427,399.021 318.262,399.399 318.262 C 400.012 318.262,400.063 318.135,399.885 317.056 C 399.775 316.392,399.684 315.523,399.682 315.125 C 399.680 314.697,399.480 314.401,399.195 314.401 C 398.930 314.401,398.713 314.256,398.713 314.079 C 398.713 313.902,398.443 313.757,398.114 313.757 C 397.785 313.757,397.244 313.395,396.912 312.953 C 396.579 312.509,395.980 312.148,395.579 312.148 C 395.147 312.148,394.851 311.952,394.851 311.665 C 394.851 311.377,394.555 311.183,394.118 311.183 C 393.714 311.183,393.175 310.893,392.920 310.539 C 392.665 310.185,392.126 309.895,391.723 309.895 C 391.286 309.895,390.990 309.701,390.990 309.413 C 390.990 309.112,390.686 308.930,390.185 308.930 C 389.743 308.930,389.381 308.785,389.381 308.608 C 389.381 308.431,389.106 308.286,388.771 308.286 C 388.436 308.286,388.079 308.069,387.977 307.804 C 387.875 307.538,387.498 307.321,387.138 307.321 C 386.778 307.321,386.484 307.176,386.484 306.999 C 386.484 306.822,386.184 306.677,385.818 306.677 C 385.451 306.677,384.926 306.452,384.650 306.176 C 384.374 305.901,383.950 305.751,383.708 305.844 C 383.465 305.937,383.266 305.853,383.266 305.657 C 383.266 305.051,382.191 304.446,381.094 304.435 C 380.384 304.428,380.048 304.270,380.048 303.942 C 380.048 303.674,379.762 303.459,379.405 303.459 C 379.051 303.459,378.761 303.315,378.761 303.138 C 378.761 302.961,378.415 302.816,377.991 302.816 C 377.567 302.816,377.138 302.599,377.036 302.333 C 376.934 302.068,376.556 301.850,376.197 301.850 C 375.837 301.850,375.543 301.706,375.543 301.529 C 375.543 301.352,375.181 301.207,374.739 301.207 C 374.296 301.207,373.934 301.062,373.934 300.885 C 373.934 300.708,373.587 300.563,373.164 300.563 C 372.740 300.563,372.311 300.346,372.209 300.080 C 372.107 299.815,371.729 299.598,371.370 299.598 C 371.010 299.598,370.716 299.453,370.716 299.276 C 370.716 299.099,370.209 298.954,369.590 298.954 C 368.803 298.954,368.463 298.809,368.463 298.471 C 368.463 298.171,368.159 297.989,367.659 297.989 C 367.216 297.989,366.854 297.844,366.854 297.667 C 366.854 297.490,366.492 297.345,366.050 297.345 C 365.607 297.345,365.245 297.200,365.245 297.023 C 365.245 296.846,364.739 296.702,364.119 296.702 C 363.332 296.702,362.993 296.556,362.993 296.219 C 362.993 295.918,362.689 295.736,362.188 295.736 C 361.746 295.736,361.384 295.591,361.384 295.414 C 361.384 295.237,360.892 295.093,360.292 295.093 C 359.618 295.093,359.129 294.908,359.015 294.610 C 358.906 294.328,358.424 294.127,357.854 294.127 C 357.317 294.127,356.879 293.982,356.879 293.805 C 356.879 293.628,356.579 293.484,356.212 293.484 C 355.845 293.484,355.328 293.266,355.063 293.001 C 354.797 292.735,354.228 292.518,353.798 292.518 C 353.369 292.518,353.017 292.373,353.017 292.196 C 353.017 292.019,352.510 291.874,351.891 291.874 C 351.271 291.874,350.764 291.730,350.764 291.553 C 350.764 291.376,350.185 291.231,349.477 291.231 C 348.547 291.231,348.190 291.097,348.190 290.748 C 348.190 290.411,347.850 290.265,347.064 290.265 C 346.444 290.265,345.937 290.121,345.937 289.944 C 345.937 289.767,345.430 289.622,344.811 289.622 C 344.024 289.622,343.685 289.476,343.685 289.139 C 343.685 288.802,343.345 288.656,342.558 288.656 C 341.939 288.656,341.432 288.512,341.432 288.335 C 341.432 288.158,340.934 288.013,340.325 288.013 C 339.716 288.013,339.128 287.868,339.019 287.691 C 338.909 287.514,338.321 287.369,337.712 287.369 C 336.943 287.369,336.605 287.222,336.605 286.887 C 336.605 286.549,336.265 286.404,335.479 286.404 C 334.859 286.404,334.352 286.259,334.352 286.082 C 334.352 285.905,333.628 285.760,332.743 285.760 C 331.528 285.760,331.134 285.642,331.134 285.278 C 331.134 284.707,330.761 284.653,330.263 285.151 C 329.826 285.588,327.792 285.386,325.181 284.646 C 324.119 284.345,322.778 284.022,322.201 283.929 C 321.625 283.835,321.073 283.630,320.976 283.472 C 320.878 283.315,320.382 283.186,319.873 283.186 C 319.364 283.186,318.540 283.023,318.042 282.823 C 317.184 282.479,316.250 282.236,313.274 281.580 C 312.566 281.424,311.046 281.059,309.895 280.770 C 308.745 280.480,307.152 280.120,306.356 279.968 C 305.559 279.817,303.821 279.450,302.494 279.153 C 299.775 278.544,298.012 278.200,295.367 277.760 C 294.368 277.594,293.231 277.357,292.840 277.233 C 292.128 277.007,290.043 276.629,286.726 276.125 C 285.752 275.978,283.580 275.618,281.899 275.325 C 278.443 274.725,275.447 274.287,271.923 273.868 C 270.595 273.711,268.858 273.429,268.061 273.243 C 267.265 273.056,265.737 272.900,264.666 272.896 C 263.595 272.892,262.582 272.754,262.414 272.590 C 262.245 272.426,260.949 272.230,259.533 272.154 C 256.557 271.996,247.325 271.098,245.251 270.766 C 244.268 270.608,243.793 270.359,243.685 269.944 C 243.540 269.392,243.100 269.348,237.613 269.348 C 233.884 269.348,231.698 269.229,231.698 269.027 C 231.698 268.818,227.353 268.705,219.308 268.705 C 208.510 268.705,206.919 268.643,206.919 268.222 C 206.919 267.814,206.150 267.739,201.931 267.739 C 197.712 267.739,196.943 267.814,196.943 268.222 " stroke="none" fill="#edba31" fill-rule="evenodd"></path><path id="path1" d="M67.257 92.034 L 67.257 106.838 70.980 106.838 C 73.861 106.838,74.813 106.948,75.187 107.321 C 75.452 107.586,76.238 107.804,76.934 107.804 C 77.629 107.804,78.198 107.949,78.198 108.126 C 78.198 108.302,78.479 108.447,78.823 108.447 C 79.166 108.447,79.537 108.592,79.646 108.769 C 79.755 108.946,80.126 109.091,80.470 109.091 C 80.813 109.091,81.094 109.308,81.094 109.574 C 81.094 109.839,81.249 110.056,81.439 110.056 C 81.814 110.056,82.703 110.848,82.703 111.183 C 82.703 111.296,82.884 111.591,83.105 111.838 C 84.132 112.983,84.312 113.291,84.312 113.904 C 84.312 114.266,84.457 114.562,84.634 114.562 C 84.811 114.562,84.956 115.363,84.956 116.342 C 84.956 117.627,85.090 118.173,85.438 118.307 C 86.173 118.589,86.173 240.708,85.438 240.708 C 85.063 240.708,84.956 241.137,84.956 242.639 C 84.956 243.711,84.813 244.570,84.634 244.570 C 84.457 244.570,84.312 244.870,84.312 245.236 C 84.312 245.603,84.131 246.105,83.910 246.351 C 83.036 247.326,82.703 247.769,82.703 247.958 C 82.703 248.285,81.809 249.075,81.439 249.075 C 81.249 249.075,81.094 249.230,81.094 249.420 C 81.094 249.987,80.221 250.684,79.508 250.684 C 79.141 250.684,78.842 250.829,78.842 251.006 C 78.842 251.183,78.273 251.327,77.577 251.327 C 76.882 251.327,76.096 251.545,75.830 251.810 C 75.452 252.188,74.469 252.293,71.302 252.293 L 67.257 252.293 67.257 269.685 L 67.257 287.077 68.463 286.860 C 69.127 286.741,70.158 286.445,70.755 286.202 C 71.352 285.959,72.176 285.760,72.587 285.760 C 72.997 285.760,73.413 285.631,73.510 285.474 C 73.607 285.317,74.159 285.111,74.736 285.016 C 75.312 284.922,76.581 284.601,77.554 284.301 C 78.528 284.002,79.759 283.692,80.290 283.611 C 80.821 283.530,81.545 283.341,81.899 283.191 C 82.948 282.747,86.224 281.945,89.553 281.316 C 90.312 281.173,91.109 280.947,91.324 280.814 C 91.539 280.681,92.475 280.429,93.404 280.254 C 96.710 279.629,98.016 279.349,100.080 278.819 C 101.231 278.523,102.896 278.213,103.781 278.130 C 104.666 278.046,105.528 277.846,105.696 277.686 C 105.864 277.525,106.444 277.393,106.985 277.393 C 107.526 277.393,108.475 277.238,109.093 277.048 C 110.262 276.690,112.701 276.257,116.010 275.821 C 117.072 275.681,118.158 275.470,118.423 275.351 C 118.923 275.127,121.754 274.667,125.664 274.174 C 126.903 274.018,129.292 273.662,130.973 273.383 C 133.950 272.889,136.790 272.539,142.719 271.934 C 144.312 271.772,146.267 271.492,147.064 271.312 C 147.860 271.133,149.487 270.979,150.680 270.971 C 154.304 270.948,154.143 271.409,154.143 261.071 L 154.143 252.293 149.512 252.293 C 145.691 252.293,144.847 252.208,144.695 251.810 C 144.586 251.528,144.104 251.327,143.534 251.327 C 142.997 251.327,142.558 251.183,142.558 251.006 C 142.558 250.829,142.196 250.684,141.754 250.684 C 141.311 250.684,140.949 250.539,140.949 250.362 C 140.949 250.185,140.587 250.040,140.145 250.040 C 139.702 250.040,139.340 249.885,139.340 249.695 C 139.340 249.250,138.522 248.431,138.076 248.431 C 137.886 248.431,137.731 248.214,137.731 247.949 C 137.731 247.683,137.586 247.466,137.409 247.466 C 137.233 247.466,137.088 247.176,137.088 246.822 C 137.088 246.468,136.943 246.179,136.766 246.179 C 136.589 246.179,136.444 245.817,136.444 245.374 C 136.444 244.874,136.262 244.570,135.961 244.570 C 135.597 244.570,135.479 244.176,135.479 242.961 C 135.479 242.076,135.334 241.352,135.157 241.352 C 134.588 241.352,134.725 154.529,135.295 153.959 C 136.606 152.648,140.949 154.655,140.949 156.572 C 140.949 156.846,141.311 157.406,141.754 157.816 C 142.196 158.226,142.558 158.798,142.558 159.088 C 142.558 159.377,142.703 159.614,142.880 159.614 C 143.057 159.614,143.202 159.976,143.202 160.418 C 143.202 160.919,143.384 161.223,143.685 161.223 C 143.958 161.223,144.167 161.511,144.167 161.889 C 144.167 162.602,144.864 163.475,145.432 163.475 C 145.621 163.475,145.776 163.837,145.776 164.280 C 145.776 164.722,145.921 165.084,146.098 165.084 C 146.275 165.084,146.420 165.394,146.420 165.772 C 146.420 166.150,146.782 166.794,147.224 167.204 C 147.667 167.614,148.029 168.174,148.029 168.448 C 148.029 168.722,148.174 168.946,148.351 168.946 C 148.528 168.946,148.673 169.308,148.673 169.751 C 148.673 170.251,148.855 170.555,149.155 170.555 C 149.421 170.555,149.638 170.772,149.638 171.038 C 149.638 171.303,149.783 171.521,149.960 171.521 C 150.137 171.521,150.282 171.810,150.282 172.164 C 150.282 172.518,150.426 172.808,150.603 172.808 C 150.780 172.808,150.925 173.102,150.925 173.461 C 150.925 173.821,151.142 174.198,151.408 174.300 C 151.673 174.402,151.891 174.798,151.891 175.179 C 151.891 175.561,152.253 176.145,152.695 176.477 C 153.138 176.809,153.500 177.351,153.500 177.680 C 153.500 178.009,153.644 178.278,153.821 178.278 C 153.998 178.278,154.143 178.640,154.143 179.083 C 154.143 179.583,154.326 179.887,154.626 179.887 C 154.891 179.887,155.109 180.105,155.109 180.370 C 155.109 180.636,155.253 180.853,155.430 180.853 C 155.607 180.853,155.752 181.142,155.752 181.496 C 155.752 181.850,155.897 182.140,156.074 182.140 C 156.251 182.140,156.396 182.434,156.396 182.794 C 156.396 183.153,156.613 183.531,156.879 183.633 C 157.144 183.734,157.361 184.020,157.361 184.266 C 157.361 184.513,157.506 184.714,157.683 184.714 C 157.860 184.714,158.005 185.004,158.005 185.358 C 158.005 185.716,158.219 186.002,158.488 186.002 C 158.788 186.002,158.970 186.306,158.970 186.806 C 158.970 187.249,159.115 187.611,159.292 187.611 C 159.469 187.611,159.614 187.920,159.614 188.298 C 159.614 188.676,159.976 189.320,160.418 189.731 C 160.861 190.141,161.223 190.700,161.223 190.974 C 161.223 191.248,161.368 191.472,161.545 191.472 C 161.722 191.472,161.866 191.834,161.866 192.277 C 161.866 192.777,162.049 193.081,162.349 193.081 C 162.615 193.081,162.832 193.298,162.832 193.564 C 162.832 193.829,162.977 194.047,163.154 194.047 C 163.331 194.047,163.475 194.336,163.475 194.690 C 163.475 195.044,163.605 195.334,163.762 195.334 C 163.920 195.334,164.140 195.696,164.251 196.138 C 164.362 196.581,164.595 196.943,164.769 196.943 C 164.942 196.943,165.084 197.160,165.084 197.426 C 165.084 197.691,165.229 197.908,165.406 197.908 C 165.583 197.908,165.728 198.202,165.728 198.562 C 165.728 198.922,165.945 199.299,166.211 199.401 C 166.476 199.503,166.693 199.860,166.693 200.195 C 166.693 200.530,166.838 200.805,167.015 200.805 C 167.192 200.805,167.337 201.167,167.337 201.609 C 167.337 202.110,167.519 202.414,167.820 202.414 C 168.085 202.414,168.302 202.631,168.302 202.896 C 168.302 203.162,168.447 203.379,168.624 203.379 C 168.801 203.379,168.946 203.669,168.946 204.023 C 168.946 204.377,169.091 204.666,169.268 204.666 C 169.445 204.666,169.590 204.960,169.590 205.320 C 169.590 205.679,169.807 206.057,170.072 206.159 C 170.338 206.261,170.555 206.546,170.555 206.792 C 170.555 207.039,170.700 207.241,170.877 207.241 C 171.054 207.241,171.199 207.535,171.199 207.894 C 171.199 208.254,171.416 208.631,171.681 208.733 C 171.947 208.835,172.164 209.193,172.164 209.528 C 172.164 209.863,172.309 210.137,172.486 210.137 C 172.663 210.137,172.808 210.446,172.808 210.824 C 172.808 211.202,173.170 211.847,173.612 212.257 C 174.055 212.667,174.417 213.226,174.417 213.500 C 174.417 213.774,174.562 213.998,174.739 213.998 C 174.916 213.998,175.060 214.360,175.060 214.803 C 175.060 215.303,175.243 215.607,175.543 215.607 C 175.809 215.607,176.026 215.825,176.026 216.090 C 176.026 216.356,176.171 216.573,176.348 216.573 C 176.525 216.573,176.669 216.867,176.669 217.227 C 176.669 217.586,176.887 217.964,177.152 218.065 C 177.418 218.167,177.635 218.525,177.635 218.860 C 177.635 219.195,177.780 219.469,177.957 219.469 C 178.134 219.469,178.278 219.686,178.278 219.952 C 178.278 220.217,178.423 220.434,178.600 220.434 C 178.777 220.434,178.922 220.729,178.922 221.088 C 178.922 221.448,179.139 221.825,179.405 221.927 C 179.670 222.029,179.887 222.386,179.887 222.721 C 179.887 223.057,180.032 223.331,180.209 223.331 C 180.386 223.331,180.531 223.693,180.531 224.135 C 180.531 224.636,180.713 224.940,181.014 224.940 C 181.279 224.940,181.496 225.157,181.496 225.422 C 181.496 225.688,181.641 225.905,181.818 225.905 C 181.995 225.905,182.140 226.195,182.140 226.549 C 182.140 226.903,182.285 227.192,182.462 227.192 C 182.639 227.192,182.784 227.486,182.784 227.846 C 182.784 228.206,183.001 228.583,183.266 228.685 C 183.532 228.787,183.749 229.072,183.749 229.318 C 183.749 229.565,183.894 229.767,184.071 229.767 C 184.248 229.767,184.393 230.061,184.393 230.420 C 184.393 230.780,184.610 231.157,184.875 231.259 C 185.141 231.361,185.358 231.719,185.358 232.054 C 185.358 232.389,185.503 232.663,185.680 232.663 C 185.857 232.663,186.002 232.959,186.002 233.322 C 186.002 233.684,186.364 234.316,186.806 234.726 C 187.249 235.137,187.611 235.709,187.611 235.998 C 187.611 236.288,187.755 236.525,187.932 236.525 C 188.109 236.525,188.254 236.819,188.254 237.178 C 188.254 237.538,188.471 237.915,188.737 238.017 C 189.002 238.119,189.220 238.404,189.220 238.651 C 189.220 238.897,189.364 239.099,189.541 239.099 C 189.718 239.099,189.863 239.393,189.863 239.753 C 189.863 240.112,190.080 240.490,190.346 240.592 C 190.611 240.693,190.829 241.051,190.829 241.386 C 190.829 241.721,190.973 241.995,191.150 241.995 C 191.327 241.995,191.472 242.212,191.472 242.478 C 191.472 242.743,191.617 242.961,191.794 242.961 C 191.971 242.961,192.116 243.255,192.116 243.614 C 192.116 243.974,192.333 244.351,192.599 244.453 C 192.864 244.555,193.081 244.913,193.081 245.248 C 193.081 245.583,193.226 245.857,193.403 245.857 C 193.580 245.857,193.725 246.219,193.725 246.661 C 193.725 247.162,193.907 247.466,194.208 247.466 C 194.473 247.466,194.690 247.683,194.690 247.949 C 194.690 248.214,194.835 248.431,195.012 248.431 C 195.189 248.431,195.334 248.698,195.334 249.025 C 195.334 250.144,196.370 250.684,198.520 250.684 C 200.474 250.684,201.448 250.263,201.448 249.420 C 201.448 249.230,201.665 249.075,201.931 249.075 C 202.209 249.075,202.414 248.784,202.414 248.389 C 202.414 248.011,202.682 247.468,203.011 247.182 C 203.340 246.896,203.712 246.335,203.837 245.937 C 203.963 245.539,204.201 245.213,204.366 245.213 C 204.531 245.213,204.666 244.851,204.666 244.409 C 204.666 243.966,204.811 243.604,204.988 243.604 C 205.165 243.604,205.310 243.242,205.310 242.800 C 205.310 242.357,205.465 241.995,205.655 241.995 C 206.222 241.995,206.919 241.122,206.919 240.409 C 206.919 240.031,207.128 239.743,207.401 239.743 C 207.689 239.743,207.884 239.447,207.884 239.009 C 207.884 238.606,208.174 238.067,208.528 237.812 C 208.882 237.557,209.171 237.018,209.171 236.614 C 209.171 236.177,209.366 235.881,209.654 235.881 C 209.954 235.881,210.137 235.577,210.137 235.076 C 210.137 234.634,210.282 234.272,210.459 234.272 C 210.636 234.272,210.780 233.910,210.780 233.467 C 210.780 233.025,210.936 232.663,211.125 232.663 C 211.682 232.663,212.389 231.795,212.389 231.111 C 212.389 230.764,212.607 230.396,212.872 230.294 C 213.138 230.192,213.355 229.846,213.355 229.526 C 213.355 229.206,213.644 228.735,213.998 228.479 C 214.352 228.224,214.642 227.686,214.642 227.282 C 214.642 226.845,214.837 226.549,215.125 226.549 C 215.425 226.549,215.607 226.245,215.607 225.744 C 215.607 225.302,215.752 224.940,215.929 224.940 C 216.106 224.940,216.251 224.578,216.251 224.135 C 216.251 223.693,216.406 223.331,216.596 223.331 C 217.164 223.331,217.860 222.457,217.860 221.745 C 217.860 221.378,218.005 221.078,218.182 221.078 C 218.359 221.078,218.504 220.716,218.504 220.274 C 218.504 219.831,218.659 219.469,218.848 219.469 C 219.416 219.469,220.113 218.595,220.113 217.883 C 220.113 217.505,220.322 217.216,220.595 217.216 C 220.883 217.216,221.078 216.920,221.078 216.483 C 221.078 216.080,221.368 215.541,221.722 215.286 C 222.076 215.030,222.365 214.492,222.365 214.088 C 222.365 213.651,222.560 213.355,222.848 213.355 C 223.148 213.355,223.331 213.051,223.331 212.550 C 223.331 212.108,223.475 211.746,223.652 211.746 C 223.829 211.746,223.974 211.384,223.974 210.941 C 223.974 210.499,224.129 210.137,224.319 210.137 C 224.876 210.137,225.583 209.269,225.583 208.585 C 225.583 208.237,225.800 207.870,226.066 207.768 C 226.331 207.666,226.549 207.320,226.549 207.000 C 226.549 206.679,226.838 206.208,227.192 205.953 C 227.546 205.698,227.836 205.159,227.836 204.756 C 227.836 204.319,228.031 204.023,228.319 204.023 C 228.619 204.023,228.801 203.719,228.801 203.218 C 228.801 202.776,228.946 202.414,229.123 202.414 C 229.300 202.414,229.445 202.051,229.445 201.609 C 229.445 201.167,229.600 200.805,229.790 200.805 C 230.358 200.805,231.054 199.931,231.054 199.218 C 231.054 198.852,231.199 198.552,231.376 198.552 C 231.553 198.552,231.698 198.190,231.698 197.747 C 231.698 197.305,231.853 196.943,232.042 196.943 C 232.610 196.943,233.307 196.069,233.307 195.357 C 233.307 194.979,233.516 194.690,233.789 194.690 C 234.067 194.690,234.272 194.399,234.272 194.004 C 234.272 193.626,234.541 193.083,234.869 192.797 C 235.198 192.511,235.570 191.951,235.696 191.553 C 235.821 191.154,236.059 190.829,236.224 190.829 C 236.389 190.829,236.525 190.467,236.525 190.024 C 236.525 189.582,236.669 189.220,236.846 189.220 C 237.023 189.220,237.168 188.858,237.168 188.415 C 237.168 187.973,237.323 187.611,237.513 187.611 C 238.081 187.611,238.777 186.737,238.777 186.025 C 238.777 185.647,238.986 185.358,239.260 185.358 C 239.548 185.358,239.743 185.062,239.743 184.625 C 239.743 184.221,240.032 183.682,240.386 183.427 C 240.740 183.172,241.030 182.633,241.030 182.230 C 241.030 181.792,241.225 181.496,241.512 181.496 C 241.799 181.496,241.995 181.201,241.995 180.768 C 241.995 180.367,242.357 179.769,242.800 179.436 C 243.242 179.104,243.604 178.562,243.604 178.233 C 243.604 177.904,243.749 177.635,243.926 177.635 C 244.103 177.635,244.248 177.273,244.248 176.830 C 244.248 176.388,244.393 176.026,244.570 176.026 C 244.747 176.026,244.891 175.664,244.891 175.221 C 244.891 174.779,245.047 174.417,245.236 174.417 C 245.804 174.417,246.500 173.543,246.500 172.831 C 246.500 172.453,246.709 172.164,246.983 172.164 C 247.261 172.164,247.466 171.873,247.466 171.478 C 247.466 171.100,247.735 170.557,248.063 170.271 C 248.392 169.985,248.764 169.425,248.890 169.027 C 249.015 168.628,249.253 168.302,249.418 168.302 C 249.583 168.302,249.718 167.975,249.718 167.574 C 249.718 167.173,250.080 166.575,250.523 166.242 C 250.965 165.910,251.327 165.369,251.327 165.039 C 251.327 164.710,251.472 164.441,251.649 164.441 C 251.826 164.441,251.971 164.079,251.971 163.636 C 251.971 163.194,252.136 162.832,252.338 162.832 C 252.832 162.832,253.557 161.838,253.570 161.142 C 253.575 160.833,253.725 160.579,253.902 160.579 C 254.079 160.579,254.224 160.217,254.224 159.775 C 254.224 159.274,254.406 158.970,254.706 158.970 C 254.993 158.970,255.189 158.675,255.189 158.242 C 255.189 157.841,255.550 157.243,255.994 156.910 C 256.436 156.578,256.798 156.036,256.798 155.707 C 256.798 155.378,256.943 155.109,257.120 155.109 C 257.297 155.109,257.442 154.944,257.442 154.742 C 257.442 153.597,261.462 152.969,262.453 153.959 C 263.022 154.529,263.159 239.743,262.591 239.743 C 262.412 239.743,262.269 240.589,262.269 241.639 C 262.269 243.028,262.140 243.585,261.786 243.721 C 261.483 243.837,261.303 244.329,261.303 245.042 C 261.303 245.667,261.158 246.179,260.981 246.179 C 260.805 246.179,260.660 246.468,260.660 246.822 C 260.660 247.180,260.445 247.466,260.177 247.466 C 259.912 247.466,259.694 247.651,259.694 247.877 C 259.694 248.104,259.405 248.498,259.051 248.753 C 258.697 249.008,258.407 249.402,258.407 249.629 C 258.407 249.855,258.045 250.040,257.603 250.040 C 257.160 250.040,256.798 250.185,256.798 250.362 C 256.798 250.539,256.436 250.684,255.994 250.684 C 255.551 250.684,255.189 250.829,255.189 251.006 C 255.189 251.183,254.682 251.327,254.063 251.327 C 253.276 251.327,252.936 251.473,252.936 251.810 C 252.936 252.217,252.203 252.293,248.265 252.293 L 243.594 252.293 243.680 261.223 L 243.765 270.153 246.983 270.350 C 252.889 270.712,258.792 271.280,259.165 271.522 C 259.367 271.654,260.837 271.864,262.430 271.990 C 267.007 272.349,271.075 272.801,271.601 273.008 C 272.068 273.191,274.653 273.594,279.002 274.162 C 284.041 274.819,286.242 275.194,286.553 275.448 C 286.736 275.598,287.683 275.797,288.656 275.891 C 291.488 276.162,294.540 276.678,295.518 277.050 C 296.015 277.239,296.890 277.393,297.463 277.393 C 298.035 277.393,298.641 277.525,298.809 277.686 C 298.977 277.846,299.839 278.046,300.724 278.130 C 301.609 278.213,303.274 278.523,304.425 278.819 C 306.482 279.347,307.775 279.625,311.081 280.250 C 311.998 280.424,313.039 280.721,313.393 280.910 C 313.747 281.100,314.472 281.255,315.004 281.255 C 315.536 281.255,316.052 281.385,316.150 281.543 C 316.247 281.701,316.871 281.906,317.536 281.999 C 319.218 282.232,322.022 282.977,322.312 283.267 C 322.444 283.399,322.917 283.508,323.361 283.508 C 324.140 283.508,324.982 283.730,327.755 284.668 C 328.463 284.907,329.368 285.017,329.767 284.912 L 330.491 284.720 330.491 268.506 L 330.491 252.293 325.859 252.293 C 322.039 252.293,321.195 252.208,321.042 251.810 C 320.935 251.531,320.454 251.327,319.900 251.327 C 319.374 251.327,318.854 251.183,318.745 251.006 C 318.636 250.829,318.265 250.684,317.921 250.684 C 317.578 250.684,317.297 250.539,317.297 250.362 C 317.297 250.185,316.935 250.040,316.492 250.040 C 316.050 250.040,315.688 249.885,315.688 249.695 C 315.688 249.250,314.869 248.431,314.424 248.431 C 314.234 248.431,314.079 248.069,314.079 247.627 C 314.079 247.184,313.934 246.822,313.757 246.822 C 313.580 246.822,313.435 246.528,313.435 246.169 C 313.435 245.809,313.218 245.431,312.953 245.330 C 312.655 245.215,312.470 244.726,312.470 244.052 C 312.470 243.452,312.325 242.961,312.148 242.961 C 311.959 242.961,311.826 241.834,311.826 240.225 C 311.826 238.616,311.694 237.490,311.504 237.490 C 311.291 237.490,311.183 217.967,311.183 179.566 C 311.183 141.164,311.291 121.641,311.504 121.641 C 311.694 121.641,311.826 120.515,311.826 118.906 C 311.826 117.297,311.959 116.171,312.148 116.171 C 312.325 116.171,312.470 115.679,312.470 115.079 C 312.470 114.405,312.655 113.916,312.953 113.802 C 313.218 113.700,313.435 113.322,313.435 112.963 C 313.435 112.603,313.580 112.309,313.757 112.309 C 313.934 112.309,314.079 111.947,314.079 111.504 C 314.079 111.062,314.234 110.700,314.424 110.700 C 314.869 110.700,315.688 109.881,315.688 109.436 C 315.688 109.246,316.050 109.091,316.492 109.091 C 316.935 109.091,317.297 108.946,317.297 108.769 C 317.297 108.592,317.659 108.447,318.101 108.447 C 318.544 108.447,318.906 108.302,318.906 108.126 C 318.906 107.949,319.490 107.804,320.203 107.804 C 321.059 107.804,321.563 107.640,321.686 107.321 C 321.838 106.925,322.647 106.838,326.184 106.838 L 330.497 106.838 330.414 92.116 L 330.330 77.393 290.105 77.393 L 249.879 77.393 249.776 78.117 C 249.720 78.516,249.539 78.842,249.374 78.842 C 249.210 78.842,249.075 79.204,249.075 79.646 C 249.075 80.147,248.892 80.451,248.592 80.451 C 248.292 80.451,248.109 80.754,248.109 81.255 C 248.109 81.698,247.965 82.060,247.788 82.060 C 247.611 82.060,247.466 82.422,247.466 82.864 C 247.466 83.307,247.311 83.669,247.121 83.669 C 246.553 83.669,245.857 84.542,245.857 85.255 C 245.857 85.621,245.712 85.921,245.535 85.921 C 245.358 85.921,245.213 86.283,245.213 86.726 C 245.213 87.226,245.031 87.530,244.730 87.530 C 244.430 87.530,244.248 87.834,244.248 88.335 C 244.248 88.777,244.103 89.139,243.926 89.139 C 243.749 89.139,243.604 89.413,243.604 89.748 C 243.604 90.083,243.387 90.441,243.121 90.543 C 242.856 90.645,242.639 91.022,242.639 91.382 C 242.639 91.741,242.494 92.035,242.317 92.035 C 242.140 92.035,241.995 92.382,241.995 92.805 C 241.995 93.229,241.778 93.659,241.512 93.761 C 241.247 93.863,241.030 94.240,241.030 94.600 C 241.030 94.959,240.885 95.253,240.708 95.253 C 240.531 95.253,240.386 95.615,240.386 96.058 C 240.386 96.500,240.241 96.862,240.064 96.862 C 239.887 96.862,239.743 97.224,239.743 97.667 C 239.743 98.109,239.587 98.471,239.398 98.471 C 238.841 98.471,238.134 99.340,238.134 100.023 C 238.134 100.371,237.916 100.739,237.651 100.840 C 237.385 100.942,237.168 101.320,237.168 101.679 C 237.168 102.039,237.023 102.333,236.846 102.333 C 236.669 102.333,236.525 102.695,236.525 103.138 C 236.525 103.580,236.380 103.942,236.203 103.942 C 236.026 103.942,235.881 104.216,235.881 104.551 C 235.881 104.886,235.664 105.244,235.398 105.346 C 235.133 105.448,234.916 105.825,234.916 106.185 C 234.916 106.544,234.771 106.838,234.594 106.838 C 234.417 106.838,234.272 107.200,234.272 107.643 C 234.272 108.143,234.090 108.447,233.789 108.447 C 233.489 108.447,233.307 108.751,233.307 109.252 C 233.307 109.694,233.162 110.056,232.985 110.056 C 232.808 110.056,232.663 110.418,232.663 110.861 C 232.663 111.361,232.481 111.665,232.180 111.665 C 231.915 111.665,231.698 111.946,231.698 112.290 C 231.698 112.633,231.553 113.004,231.376 113.113 C 231.199 113.223,231.054 113.593,231.054 113.937 C 231.054 114.280,230.909 114.562,230.732 114.562 C 230.555 114.562,230.410 114.779,230.410 115.044 C 230.410 115.310,230.193 115.527,229.928 115.527 C 229.627 115.527,229.445 115.831,229.445 116.331 C 229.445 116.774,229.300 117.136,229.123 117.136 C 228.946 117.136,228.801 117.408,228.801 117.740 C 228.801 118.072,228.584 118.525,228.319 118.745 C 228.053 118.965,227.836 119.345,227.836 119.589 C 227.836 119.833,227.691 120.032,227.514 120.032 C 227.337 120.032,227.192 120.394,227.192 120.837 C 227.192 121.279,227.047 121.641,226.870 121.641 C 226.693 121.641,226.549 122.003,226.549 122.446 C 226.549 122.946,226.366 123.250,226.066 123.250 C 225.766 123.250,225.583 123.554,225.583 124.055 C 225.583 124.497,225.438 124.859,225.261 124.859 C 225.084 124.859,224.940 125.221,224.940 125.664 C 224.940 126.164,224.757 126.468,224.457 126.468 C 224.189 126.468,223.974 126.754,223.974 127.112 C 223.974 127.466,223.829 127.755,223.652 127.755 C 223.475 127.755,223.331 128.117,223.331 128.560 C 223.331 129.002,223.202 129.364,223.044 129.364 C 222.886 129.364,222.666 129.726,222.555 130.169 C 222.444 130.611,222.211 130.973,222.037 130.973 C 221.864 130.973,221.722 131.191,221.722 131.456 C 221.722 131.722,221.577 131.939,221.400 131.939 C 221.223 131.939,221.078 132.213,221.078 132.548 C 221.078 132.883,220.861 133.241,220.595 133.342 C 220.330 133.444,220.113 133.822,220.113 134.181 C 220.113 134.541,219.968 134.835,219.791 134.835 C 219.614 134.835,219.469 135.182,219.469 135.605 C 219.469 136.029,219.252 136.459,218.986 136.560 C 218.721 136.662,218.504 137.040,218.504 137.399 C 218.504 137.759,218.359 138.053,218.182 138.053 C 218.005 138.053,217.860 138.415,217.860 138.858 C 217.860 139.300,217.715 139.662,217.538 139.662 C 217.361 139.662,217.216 139.936,217.216 140.271 C 217.216 140.606,216.999 140.964,216.734 141.066 C 216.468 141.168,216.251 141.545,216.251 141.905 C 216.251 142.264,216.106 142.558,215.929 142.558 C 215.752 142.558,215.607 142.920,215.607 143.363 C 215.607 143.863,215.425 144.167,215.125 144.167 C 214.837 144.167,214.642 144.463,214.642 144.901 C 214.642 145.304,214.352 145.843,213.998 146.098 C 213.644 146.353,213.355 146.877,213.355 147.261 C 213.355 147.646,213.138 148.043,212.872 148.145 C 212.607 148.247,212.389 148.625,212.389 148.984 C 212.389 149.344,212.245 149.638,212.068 149.638 C 211.891 149.638,211.746 150.000,211.746 150.442 C 211.746 150.943,211.563 151.247,211.263 151.247 C 210.963 151.247,210.780 151.551,210.780 152.051 C 210.780 152.494,210.636 152.856,210.459 152.856 C 210.282 152.856,210.137 153.128,210.137 153.460 C 210.137 153.793,209.920 154.245,209.654 154.465 C 209.389 154.685,209.171 155.065,209.171 155.309 C 209.171 155.553,209.027 155.752,208.850 155.752 C 208.673 155.752,208.528 156.114,208.528 156.557 C 208.528 156.999,208.383 157.361,208.206 157.361 C 208.029 157.361,207.884 157.723,207.884 158.166 C 207.884 158.666,207.702 158.970,207.401 158.970 C 207.130 158.970,206.919 159.258,206.919 159.628 C 206.919 159.990,206.557 160.649,206.114 161.091 C 205.672 161.534,205.310 162.106,205.310 162.364 C 205.310 162.621,205.165 162.832,204.988 162.832 C 204.811 162.832,204.666 163.194,204.666 163.636 C 204.666 164.079,204.521 164.441,204.344 164.441 C 204.167 164.441,204.023 164.803,204.023 165.245 C 204.023 165.746,203.840 166.050,203.540 166.050 C 203.239 166.050,203.057 166.354,203.057 166.854 C 203.057 167.297,202.912 167.659,202.735 167.659 C 202.558 167.659,202.414 167.933,202.414 168.268 C 202.414 168.603,202.196 168.961,201.931 169.062 C 201.665 169.164,201.448 169.542,201.448 169.901 C 201.448 170.261,201.303 170.555,201.126 170.555 C 200.949 170.555,200.805 170.917,200.805 171.360 C 200.805 171.802,200.660 172.164,200.483 172.164 C 200.306 172.164,200.161 172.381,200.161 172.647 C 200.161 172.912,199.944 173.130,199.678 173.130 C 199.413 173.130,199.195 173.274,199.195 173.451 C 199.195 173.628,198.833 173.773,198.391 173.773 C 197.890 173.773,197.586 173.591,197.586 173.290 C 197.586 173.025,197.442 172.808,197.265 172.808 C 197.088 172.808,196.943 172.518,196.943 172.164 C 196.943 171.807,196.728 171.521,196.460 171.521 C 196.160 171.521,195.977 171.217,195.977 170.716 C 195.977 170.274,195.833 169.912,195.656 169.912 C 195.479 169.912,195.334 169.549,195.334 169.107 C 195.334 168.665,195.189 168.302,195.012 168.302 C 194.835 168.302,194.690 168.008,194.690 167.649 C 194.690 167.289,194.473 166.912,194.208 166.810 C 193.942 166.708,193.725 166.278,193.725 165.855 C 193.725 165.431,193.580 165.084,193.403 165.084 C 193.226 165.084,193.081 164.795,193.081 164.441 C 193.081 164.083,192.867 163.797,192.599 163.797 C 192.298 163.797,192.116 163.493,192.116 162.993 C 192.116 162.550,191.971 162.188,191.794 162.188 C 191.617 162.188,191.472 161.879,191.472 161.501 C 191.472 161.123,191.110 160.478,190.668 160.068 C 190.225 159.658,189.863 159.099,189.863 158.825 C 189.863 158.551,189.718 158.327,189.541 158.327 C 189.364 158.327,189.220 157.965,189.220 157.522 C 189.220 157.022,189.037 156.718,188.737 156.718 C 188.437 156.718,188.254 156.414,188.254 155.913 C 188.254 155.471,188.109 155.109,187.932 155.109 C 187.755 155.109,187.611 154.747,187.611 154.304 C 187.611 153.804,187.428 153.500,187.128 153.500 C 186.828 153.500,186.645 153.196,186.645 152.695 C 186.645 152.253,186.500 151.891,186.323 151.891 C 186.146 151.891,186.002 151.610,186.002 151.266 C 186.002 150.922,185.857 150.552,185.680 150.442 C 185.503 150.333,185.358 149.963,185.358 149.619 C 185.358 149.275,185.141 148.994,184.875 148.994 C 184.575 148.994,184.393 148.690,184.393 148.190 C 184.393 147.747,184.248 147.385,184.071 147.385 C 183.894 147.385,183.749 147.023,183.749 146.581 C 183.749 146.080,183.567 145.776,183.266 145.776 C 182.966 145.776,182.784 145.472,182.784 144.972 C 182.784 144.529,182.639 144.167,182.462 144.167 C 182.285 144.167,182.135 143.914,182.130 143.604 C 182.117 142.909,181.392 141.915,180.898 141.915 C 180.696 141.915,180.531 141.553,180.531 141.110 C 180.531 140.668,180.386 140.306,180.209 140.306 C 180.032 140.306,179.887 139.944,179.887 139.501 C 179.887 139.001,179.705 138.697,179.405 138.697 C 179.104 138.697,178.922 138.393,178.922 137.892 C 178.922 137.450,178.777 137.088,178.600 137.088 C 178.423 137.088,178.278 136.798,178.278 136.444 C 178.278 136.090,178.136 135.800,177.963 135.800 C 177.789 135.800,177.556 135.438,177.445 134.996 C 177.334 134.553,177.114 134.191,176.956 134.191 C 176.798 134.191,176.669 133.829,176.669 133.387 C 176.669 132.944,176.525 132.582,176.348 132.582 C 176.171 132.582,176.026 132.288,176.026 131.929 C 176.026 131.569,175.809 131.192,175.543 131.090 C 175.278 130.988,175.060 130.558,175.060 130.135 C 175.060 129.711,174.916 129.364,174.739 129.364 C 174.562 129.364,174.417 129.070,174.417 128.711 C 174.417 128.351,174.200 127.974,173.934 127.872 C 173.669 127.770,173.451 127.412,173.451 127.077 C 173.451 126.742,173.307 126.468,173.130 126.468 C 172.953 126.468,172.808 126.106,172.808 125.664 C 172.808 125.221,172.663 124.859,172.486 124.859 C 172.309 124.859,172.164 124.565,172.164 124.206 C 172.164 123.846,171.947 123.468,171.681 123.367 C 171.416 123.265,171.199 122.980,171.199 122.733 C 171.199 122.487,171.054 122.285,170.877 122.285 C 170.700 122.285,170.555 121.995,170.555 121.641 C 170.555 121.284,170.341 120.998,170.072 120.998 C 169.772 120.998,169.590 120.694,169.590 120.193 C 169.590 119.751,169.445 119.389,169.268 119.389 C 169.091 119.389,168.946 119.027,168.946 118.584 C 168.946 118.142,168.801 117.780,168.624 117.780 C 168.447 117.780,168.302 117.485,168.302 117.126 C 168.302 116.766,168.085 116.389,167.820 116.287 C 167.554 116.185,167.337 115.755,167.337 115.332 C 167.337 114.908,167.192 114.562,167.015 114.562 C 166.838 114.562,166.693 114.287,166.693 113.952 C 166.693 113.617,166.476 113.260,166.211 113.158 C 165.945 113.056,165.728 112.679,165.728 112.319 C 165.728 111.959,165.583 111.665,165.406 111.665 C 165.229 111.665,165.084 111.303,165.084 110.861 C 165.084 110.360,164.902 110.056,164.602 110.056 C 164.301 110.056,164.119 109.752,164.119 109.252 C 164.119 108.809,163.974 108.447,163.797 108.447 C 163.620 108.447,163.475 108.085,163.475 107.643 C 163.475 107.200,163.331 106.838,163.154 106.838 C 162.977 106.838,162.832 106.628,162.832 106.370 C 162.832 106.113,162.470 105.540,162.027 105.098 C 161.585 104.655,161.223 103.997,161.223 103.635 C 161.223 103.264,161.012 102.977,160.740 102.977 C 160.440 102.977,160.257 102.673,160.257 102.172 C 160.257 101.730,160.113 101.368,159.936 101.368 C 159.759 101.368,159.614 101.006,159.614 100.563 C 159.614 100.121,159.469 99.759,159.292 99.759 C 159.115 99.759,158.970 99.469,158.970 99.115 C 158.970 98.757,158.756 98.471,158.488 98.471 C 158.187 98.471,158.005 98.168,158.005 97.667 C 158.005 97.224,157.860 96.862,157.683 96.862 C 157.506 96.862,157.361 96.500,157.361 96.058 C 157.361 95.557,157.179 95.253,156.879 95.253 C 156.578 95.253,156.396 94.949,156.396 94.449 C 156.396 94.006,156.251 93.644,156.074 93.644 C 155.897 93.644,155.752 93.282,155.752 92.840 C 155.752 92.339,155.570 92.035,155.270 92.035 C 155.004 92.035,154.787 91.754,154.787 91.411 C 154.787 91.067,154.642 90.697,154.465 90.587 C 154.288 90.478,154.143 90.107,154.143 89.764 C 154.143 89.420,153.998 89.139,153.821 89.139 C 153.644 89.139,153.500 88.845,153.500 88.485 C 153.500 88.126,153.282 87.748,153.017 87.647 C 152.751 87.545,152.534 87.260,152.534 87.013 C 152.534 86.766,152.389 86.565,152.212 86.565 C 152.035 86.565,151.891 86.275,151.891 85.921 C 151.891 85.564,151.676 85.278,151.408 85.278 C 151.108 85.278,150.925 84.974,150.925 84.473 C 150.925 84.031,150.780 83.669,150.603 83.669 C 150.426 83.669,150.282 83.307,150.282 82.864 C 150.282 82.422,150.137 82.060,149.960 82.060 C 149.783 82.060,149.638 81.698,149.638 81.255 C 149.638 80.754,149.456 80.451,149.155 80.451 C 148.855 80.451,148.673 80.147,148.673 79.646 C 148.673 79.204,148.538 78.842,148.373 78.842 C 148.208 78.842,148.027 78.516,147.971 78.117 L 147.868 77.393 107.562 77.312 L 67.257 77.230 67.257 92.034 " stroke="none" fill="#1c447c" fill-rule="evenodd"></path><path id="path2" d="" stroke="none" fill="#846c6c" fill-rule="evenodd"></path><path id="path3" d="M246.822 270.974 C 247.619 271.116,248.777 271.224,249.397 271.215 C 250.440 271.200,250.416 271.180,249.075 270.941 C 248.278 270.799,247.120 270.691,246.500 270.700 C 245.457 270.715,245.481 270.735,246.822 270.974 M149.244 271.458 C 149.145 271.557,147.854 271.766,146.375 271.923 L 143.685 272.208 146.259 272.046 C 147.675 271.956,149.775 271.769,150.925 271.630 L 153.017 271.377 151.220 271.328 C 150.232 271.301,149.343 271.360,149.244 271.458 M254.063 271.616 C 255.125 271.763,257.080 271.949,258.407 272.028 C 260.687 272.165,260.713 272.160,258.890 271.923 C 257.828 271.785,255.873 271.600,254.545 271.511 C 252.243 271.356,252.221 271.361,254.063 271.616 M140.145 272.566 L 138.858 272.797 140.306 272.810 C 141.102 272.818,142.116 272.708,142.558 272.566 C 143.641 272.220,142.081 272.220,140.145 272.566 M262.430 272.566 C 262.539 272.743,263.308 272.871,264.138 272.850 C 265.493 272.816,265.549 272.787,264.682 272.566 C 263.242 272.200,262.203 272.200,262.430 272.566 M135.716 273.080 C 135.610 273.186,134.464 273.383,133.168 273.519 C 131.134 273.732,131.032 273.770,132.422 273.796 C 133.307 273.812,134.899 273.629,135.961 273.390 C 137.360 273.074,137.619 272.945,136.900 272.921 C 136.354 272.903,135.821 272.975,135.716 273.080 M268.061 273.209 C 269.139 273.506,273.550 274.121,276.267 274.354 L 277.554 274.465 276.267 274.172 C 275.559 274.011,273.749 273.734,272.245 273.555 C 270.740 273.377,268.930 273.156,268.222 273.065 L 266.935 272.899 268.061 273.209 M128.560 274.175 L 127.273 274.406 128.560 274.447 C 129.268 274.469,130.064 274.347,130.330 274.175 C 130.905 273.804,130.636 273.804,128.560 274.175 M124.055 274.819 L 123.089 275.065 124.055 275.071 C 124.586 275.074,125.382 274.961,125.825 274.819 L 126.629 274.561 125.825 274.567 C 125.382 274.571,124.586 274.684,124.055 274.819 M279.002 274.819 C 279.445 274.961,280.169 275.077,280.611 275.077 L 281.416 275.077 280.611 274.819 C 280.169 274.677,279.445 274.561,279.002 274.561 L 278.198 274.561 279.002 274.819 M120.628 275.296 C 120.543 275.381,119.686 275.592,118.724 275.765 L 116.975 276.080 118.584 275.936 C 121.342 275.689,123.375 275.231,121.936 275.181 C 121.302 275.159,120.713 275.211,120.628 275.296 M282.864 275.484 C 283.660 275.625,285.036 275.822,285.921 275.922 L 287.530 276.104 285.599 275.643 C 284.537 275.389,283.162 275.192,282.542 275.204 C 281.492 275.225,281.514 275.244,282.864 275.484 M114.722 276.428 C 113.832 276.655,113.819 276.676,114.562 276.707 C 115.004 276.725,115.583 276.600,115.849 276.428 C 116.396 276.074,116.113 276.074,114.722 276.428 M288.656 276.428 C 288.922 276.600,289.501 276.728,289.944 276.713 L 290.748 276.686 289.944 276.428 C 288.703 276.031,288.042 276.031,288.656 276.428 M111.268 276.933 C 111.167 277.034,110.383 277.234,109.525 277.378 C 108.428 277.562,108.252 277.649,108.930 277.671 C 109.461 277.689,110.619 277.501,111.504 277.255 C 112.615 276.946,112.856 276.798,112.282 276.779 C 111.825 276.763,111.368 276.832,111.268 276.933 M293.001 277.227 C 293.886 277.489,295.044 277.687,295.575 277.669 C 296.618 277.632,295.599 277.377,292.679 276.943 C 291.513 276.770,291.543 276.797,293.001 277.227 M106.195 278.037 L 105.390 278.295 106.195 278.322 C 106.637 278.337,107.216 278.209,107.482 278.037 C 108.097 277.640,107.435 277.640,106.195 278.037 M297.023 278.037 C 297.289 278.209,297.868 278.337,298.311 278.322 L 299.115 278.295 298.311 278.037 C 297.070 277.640,296.409 277.640,297.023 278.037 M102.172 278.757 C 98.308 279.707,97.455 279.953,98.471 279.826 C 101.595 279.434,105.883 278.364,104.103 278.420 C 103.749 278.431,102.880 278.583,102.172 278.757 M300.402 278.681 C 300.756 278.833,301.335 278.957,301.689 278.957 L 302.333 278.957 301.689 278.681 C 301.335 278.529,300.756 278.404,300.402 278.404 L 299.759 278.404 300.402 278.681 M304.747 279.629 C 305.012 279.810,305.652 279.960,306.168 279.963 C 307.404 279.969,307.147 279.783,305.551 279.516 C 304.629 279.361,304.401 279.394,304.747 279.629 M95.414 280.290 L 94.771 280.566 95.414 280.584 C 95.768 280.594,96.275 280.461,96.541 280.290 C 97.180 279.876,96.376 279.876,95.414 280.290 M307.965 280.290 C 308.230 280.461,308.737 280.594,309.091 280.584 L 309.735 280.566 309.091 280.290 C 308.129 279.876,307.325 279.876,307.965 280.290 M92.938 280.782 C 92.844 280.875,92.132 281.076,91.356 281.229 C 90.209 281.454,90.125 281.512,90.909 281.537 C 91.440 281.553,92.454 281.358,93.162 281.103 C 93.959 280.816,94.194 280.634,93.778 280.626 C 93.410 280.618,93.032 280.688,92.938 280.782 M310.861 280.992 C 311.480 281.165,312.494 281.368,313.113 281.442 C 313.978 281.547,313.866 281.470,312.631 281.109 C 311.746 280.851,310.732 280.648,310.378 280.659 C 310.024 280.669,310.241 280.819,310.861 280.992 M88.656 281.899 C 88.036 282.165,88.038 282.176,88.718 282.198 C 89.106 282.210,89.512 282.076,89.622 281.899 C 89.857 281.518,89.542 281.518,88.656 281.899 M314.722 281.884 C 314.988 282.064,315.483 282.213,315.822 282.216 C 316.645 282.222,316.388 282.038,315.205 281.773 C 314.500 281.616,314.370 281.645,314.722 281.884 M85.760 282.533 C 85.406 282.680,84.261 282.989,83.216 283.218 C 82.170 283.447,81.499 283.696,81.724 283.771 C 81.950 283.846,82.660 283.758,83.304 283.575 C 86.620 282.633,87.631 282.281,87.047 282.273 C 86.693 282.268,86.114 282.385,85.760 282.533 M317.780 282.685 C 318.311 282.945,319.179 283.147,319.710 283.134 C 320.664 283.112,320.662 283.109,319.549 282.855 C 318.930 282.714,318.061 282.512,317.619 282.406 C 316.938 282.243,316.963 282.286,317.780 282.685 M320.990 283.495 C 321.103 283.679,321.574 283.829,322.036 283.829 C 323.044 283.829,322.928 283.675,321.695 283.379 C 321.097 283.235,320.854 283.275,320.990 283.495 M79.807 284.151 C 79.378 284.429,79.378 284.463,79.807 284.463 C 80.072 284.463,80.507 284.323,80.772 284.151 C 81.201 283.874,81.201 283.839,80.772 283.839 C 80.507 283.839,80.072 283.980,79.807 284.151 M323.182 284.029 C 323.385 284.232,326.453 285.057,327.916 285.301 C 328.963 285.476,327.498 284.956,325.085 284.296 C 323.194 283.779,322.888 283.736,323.182 284.029 M77.233 284.795 C 76.967 284.966,76.388 285.126,75.945 285.149 C 75.434 285.176,75.338 285.243,75.682 285.334 C 75.980 285.413,76.849 285.258,77.613 284.991 C 78.377 284.723,78.713 284.499,78.359 284.493 C 78.005 284.488,77.498 284.623,77.233 284.795 M73.854 285.760 C 73.233 286.027,73.235 286.038,73.915 286.059 C 74.303 286.072,74.710 285.937,74.819 285.760 C 75.054 285.380,74.739 285.380,73.854 285.760 M70.796 286.585 C 70.111 286.844,69.922 287.009,70.314 287.005 C 70.668 287.001,71.464 286.803,72.084 286.565 C 72.758 286.305,72.952 286.137,72.566 286.145 C 72.212 286.153,71.416 286.351,70.796 286.585 M68.222 287.369 L 67.418 287.627 68.284 287.659 C 68.760 287.677,69.239 287.546,69.348 287.369 C 69.574 287.003,69.364 287.003,68.222 287.369 " stroke="none" fill="#947c64" fill-rule="evenodd"></path><path id="path4" d="M245.884 270.432 C 245.957 270.497,247.321 270.630,248.914 270.727 C 250.599 270.830,251.407 270.797,250.845 270.647 C 249.884 270.391,245.628 270.207,245.884 270.432 M146.778 271.305 C 146.001 271.458,145.277 271.680,145.169 271.798 C 145.060 271.917,145.551 271.905,146.259 271.772 C 146.967 271.639,148.777 271.424,150.282 271.295 L 153.017 271.059 150.603 271.044 C 149.276 271.035,147.554 271.153,146.778 271.305 M254.706 271.277 C 256.122 271.417,257.860 271.628,258.568 271.748 C 259.586 271.919,259.737 271.889,259.288 271.604 C 258.976 271.405,257.238 271.193,255.426 271.133 C 252.138 271.024,252.137 271.024,254.706 271.277 M139.662 272.245 C 138.533 272.606,139.713 272.619,141.432 272.263 L 142.719 271.997 141.593 271.992 C 140.973 271.989,140.105 272.103,139.662 272.245 M263.395 272.263 C 265.267 272.650,266.103 272.643,265.487 272.245 C 265.221 272.073,264.352 271.947,263.556 271.965 L 262.108 271.997 263.395 272.263 M134.427 272.760 C 134.321 272.866,133.464 273.078,132.523 273.229 L 130.813 273.505 132.743 273.336 C 133.805 273.243,135.398 273.051,136.283 272.910 L 137.892 272.652 136.256 272.609 C 135.357 272.586,134.533 272.653,134.427 272.760 M268.383 272.897 C 269.356 273.026,270.949 273.222,271.923 273.332 L 273.693 273.532 271.762 273.070 C 270.700 272.816,269.107 272.620,268.222 272.634 L 266.613 272.661 268.383 272.897 M128.077 273.854 C 127.467 274.248,128.456 274.248,129.686 273.854 C 130.475 273.601,130.471 273.595,129.525 273.569 C 128.994 273.554,128.343 273.682,128.077 273.854 M275.141 273.854 C 276.371 274.248,277.360 274.248,276.750 273.854 C 276.484 273.682,275.833 273.554,275.302 273.569 C 274.356 273.595,274.352 273.601,275.141 273.854 M123.250 274.515 C 122.907 274.750,123.234 274.783,124.377 274.630 C 125.261 274.512,126.046 274.361,126.120 274.295 C 126.443 274.007,123.684 274.219,123.250 274.515 M279.646 274.503 C 280.442 274.660,282.112 274.933,283.357 275.109 C 284.602 275.285,285.905 275.530,286.253 275.654 C 286.701 275.813,286.792 275.776,286.565 275.528 C 286.251 275.185,282.549 274.542,279.646 274.325 L 278.198 274.217 279.646 274.503 M119.131 275.136 C 118.547 275.275,117.967 275.498,117.844 275.631 C 117.720 275.765,118.053 275.766,118.584 275.633 C 119.115 275.500,120.274 275.280,121.158 275.145 C 122.699 274.910,122.713 274.899,121.480 274.892 C 120.772 274.888,119.715 274.998,119.131 275.136 M113.918 276.106 C 113.285 276.515,114.414 276.515,115.366 276.106 C 115.955 275.853,115.942 275.828,115.205 275.812 C 114.763 275.802,114.183 275.935,113.918 276.106 M289.139 276.106 C 290.092 276.515,291.221 276.515,290.587 276.106 C 290.322 275.935,289.743 275.802,289.300 275.812 C 288.563 275.828,288.550 275.853,289.139 276.106 M109.574 276.945 L 108.286 277.395 109.574 277.184 C 110.282 277.067,111.440 276.868,112.148 276.740 L 113.435 276.509 112.148 276.502 C 111.440 276.498,110.282 276.698,109.574 276.945 M292.679 276.751 C 296.214 277.417,296.348 277.427,294.932 276.930 C 294.224 276.681,293.138 276.484,292.518 276.493 L 291.392 276.509 292.679 276.751 M105.712 277.715 C 105.459 278.125,106.204 278.125,106.838 277.715 C 107.231 277.462,107.189 277.402,106.616 277.398 C 106.228 277.396,105.821 277.538,105.712 277.715 M297.050 277.509 C 297.429 277.836,298.988 278.031,298.801 277.728 C 298.687 277.544,298.217 277.393,297.755 277.393 C 297.294 277.393,296.976 277.445,297.050 277.509 M102.229 278.248 C 102.113 278.364,101.474 278.576,100.808 278.720 L 99.598 278.981 100.885 278.833 C 101.593 278.751,102.751 278.556,103.459 278.398 L 104.747 278.111 103.593 278.074 C 102.959 278.054,102.345 278.132,102.229 278.248 M300.885 278.340 C 301.504 278.488,302.735 278.767,303.620 278.959 C 304.505 279.152,305.591 279.395,306.034 279.500 C 306.629 279.641,306.713 279.608,306.356 279.375 C 305.791 279.007,302.891 278.359,301.046 278.188 L 299.759 278.070 300.885 278.340 M98.150 279.324 C 97.721 279.602,97.721 279.636,98.150 279.636 C 98.415 279.636,98.850 279.496,99.115 279.324 C 99.544 279.047,99.544 279.012,99.115 279.012 C 98.850 279.012,98.415 279.153,98.150 279.324 M94.932 279.968 C 94.317 280.365,94.979 280.365,96.219 279.968 L 97.023 279.710 96.219 279.683 C 95.776 279.668,95.197 279.796,94.932 279.968 M308.447 279.984 C 308.978 280.167,310.064 280.443,310.861 280.598 C 311.657 280.753,312.671 280.974,313.113 281.090 C 313.800 281.269,313.834 281.246,313.346 280.935 C 312.823 280.601,310.902 280.154,308.447 279.794 L 307.482 279.652 308.447 279.984 M91.553 280.790 C 90.736 281.189,90.711 281.232,91.392 281.070 C 91.834 280.964,92.703 280.762,93.323 280.620 C 94.435 280.367,94.437 280.363,93.484 280.341 C 92.953 280.329,92.084 280.531,91.553 280.790 M88.174 281.577 C 87.745 281.854,87.745 281.889,88.174 281.889 C 88.439 281.889,88.874 281.748,89.139 281.577 C 89.568 281.300,89.568 281.265,89.139 281.265 C 88.874 281.265,88.439 281.405,88.174 281.577 M315.044 281.577 C 315.678 281.987,316.424 281.987,316.171 281.577 C 316.061 281.400,315.654 281.257,315.267 281.260 C 314.693 281.264,314.652 281.323,315.044 281.577 M84.634 282.402 C 83.152 282.962,84.045 282.955,86.082 282.389 C 87.311 282.048,87.463 281.946,86.726 281.959 C 86.195 281.968,85.253 282.167,84.634 282.402 M318.262 282.398 C 320.152 282.993,321.055 282.973,319.389 282.372 C 318.681 282.117,317.812 281.916,317.458 281.925 C 317.104 281.934,317.466 282.147,318.262 282.398 M79.002 283.818 C 78.648 283.965,77.729 284.255,76.960 284.462 C 76.190 284.670,75.636 284.915,75.729 285.008 C 75.821 285.100,76.379 285.022,76.967 284.834 C 77.556 284.646,78.689 284.282,79.485 284.025 C 80.282 283.768,80.644 283.557,80.290 283.555 C 79.936 283.553,79.356 283.671,79.002 283.818 M324.698 284.025 C 325.495 284.282,326.628 284.646,327.216 284.834 C 327.805 285.022,328.362 285.100,328.454 285.008 C 328.547 284.915,327.993 284.670,327.224 284.463 C 326.454 284.256,325.492 283.956,325.085 283.797 C 324.679 283.638,324.100 283.519,323.798 283.533 C 323.497 283.547,323.902 283.768,324.698 284.025 M73.532 285.438 C 73.297 285.819,73.611 285.819,74.497 285.438 C 75.118 285.172,75.115 285.161,74.436 285.139 C 74.048 285.127,73.641 285.261,73.532 285.438 M70.636 286.255 C 69.359 286.839,69.976 286.838,71.601 286.252 C 72.309 285.997,72.599 285.794,72.245 285.801 C 71.891 285.807,71.167 286.011,70.636 286.255 M67.739 287.047 L 67.096 287.324 67.739 287.342 C 68.093 287.351,68.600 287.219,68.866 287.047 C 69.505 286.634,68.701 286.634,67.739 287.047 " stroke="none" fill="#5c5874" fill-rule="evenodd"></path></g></svg>