<?xml version="1.0" encoding="UTF-8" standalone="no"?>
<svg version="1.1" xmlns="http://www.w3.org/2000/svg" width="786" height="584" style="display: block;">
<path d="M0 0 C-1.50084512 5.15550045 -4.72384246 8.19677933 -8.375 11.9375 C-13.12515439 16.90788048 -17.75146999 21.93436458 -22.1875 27.1875 C-28.07346665 34.13781567 -34.19873894 40.84110933 -40.40283203 47.50732422 C-46.1452003 53.68210571 -51.65401871 59.96731328 -56.9453125 66.5390625 C-59.26535221 69.31781729 -61.74473439 71.83330148 -64.33984375 74.3515625 C-68.38937177 78.37250562 -71.99623611 82.81731652 -75.6875 87.1640625 C-82.60364072 95.29482893 -89.71674999 103.19755762 -97 111 C-103.22163183 117.66992449 -109.22106167 124.42958372 -114.9453125 131.5390625 C-117.2665405 134.31924052 -119.74739855 136.83582768 -122.34375 139.35546875 C-125.41472891 142.40471903 -128.18088504 145.71957532 -131 149 C-133.74016916 152.16609272 -136.48432658 155.32873162 -139.22753906 158.4921875 C-141.53866471 161.15794447 -143.84892839 163.82420758 -146.1484375 166.5 C-148.79124886 169.56135614 -151.47222724 172.49549098 -154.375 175.3125 C-157.1456759 178.03435342 -159.57944557 180.90047478 -162 183.9375 C-166.56256793 189.61327179 -171.48878067 194.8922737 -176.5078125 200.16577148 C-180.24460129 204.09701975 -183.87394898 208.09695641 -187.42822266 212.1940918 C-189.37609107 214.43211333 -191.37315347 216.62274067 -193.375 218.8125 C-196.3908983 222.14665893 -199.26411876 225.54453501 -202.0625 229.0625 C-206.77892212 234.9062216 -211.93759975 240.2882402 -217.11743164 245.72070312 C-221.6861302 250.53564478 -225.93490943 255.46158101 -230.0625 260.66015625 C-232.51744187 263.62489451 -235.22509661 266.24797761 -237.984375 268.92578125 C-240.23172145 271.23845754 -242.23207975 273.67235839 -244.25 276.1875 C-248.67277538 281.69683957 -253.40678231 286.84613216 -258.22265625 292.0078125 C-260.93966725 294.92181361 -263.56427592 297.90640593 -266.16796875 300.921875 C-268.06021738 303.06830628 -269.99788183 305.16919554 -271.94311523 307.26757812 C-275.95122621 311.59210093 -279.82170826 315.94815552 -283.5 320.5625 C-287.49542429 325.53171946 -291.87445969 329.97363302 -296.421875 334.42578125 C-298.67457304 336.67506611 -300.79616585 338.96626391 -302.875 341.375 C-303.41640625 342.00019531 -303.9578125 342.62539063 -304.515625 343.26953125 C-305.47213121 344.38461612 -306.42072465 345.50656215 -307.359375 346.63671875 C-308.625 348.0625 -308.625 348.0625 -311 350 C-314.57997093 349.6561857 -317.04989762 348.59298276 -320.01953125 346.62109375 C-320.78207718 346.12028793 -321.54462311 345.61948212 -322.33027649 345.10350037 C-323.55897713 344.27883018 -323.55897713 344.27883018 -324.8125 343.4375 C-325.68138351 342.86326797 -326.55026703 342.28903595 -327.44548035 341.69740295 C-330.30231138 339.80616068 -333.15120189 337.90331649 -336 336 C-337.99224293 334.67712353 -339.98484139 333.35478234 -341.9777832 332.03295898 C-356.68443754 322.26549631 -371.32223238 312.39585251 -385.93511963 302.48883057 C-395.63850773 295.91086238 -405.37217497 289.37942362 -415.125 282.875 C-415.80573578 282.42037384 -416.48647156 281.96574768 -417.18783569 281.49734497 C-423.16117196 277.50900329 -429.13315117 273.52536704 -435.21484375 269.703125 C-442.82297025 264.89218598 -450.23790849 259.78931915 -457.68774414 254.73852539 C-473.71625112 243.87591385 -489.81402145 233.12642395 -506 222.5 C-521.46827093 212.34338688 -536.84807088 202.06567257 -552.17120361 191.69152832 C-565.83910181 182.44134417 -579.58063621 173.31039686 -593.375 164.25 C-607.61748129 154.89308441 -621.81412788 145.47341134 -635.9375 135.9375 C-637.12179596 135.13934875 -637.12179596 135.13934875 -638.33001709 134.32507324 C-640.54336014 132.83254222 -642.75453277 131.33686028 -644.96484375 129.83984375 C-645.60853409 129.40580734 -646.25222443 128.97177094 -646.91542053 128.52458191 C-654.14419886 123.61282624 -654.14419886 123.61282624 -657 121 C-657 120.01 -657 119.02 -657 118 C-633.45655067 113.13307868 -609.88924935 108.53267573 -586.1875 104.5 C-569.51271441 101.66242171 -552.8678249 98.71728035 -536.25 95.5625 C-518.97711788 92.2857166 -501.6858107 89.13266411 -484.375 86.0625 C-465.6725276 82.74474842 -446.98576606 79.35342076 -428.3125 75.875 C-411.8246046 72.80379365 -395.32893415 69.78894344 -378.8125 66.875 C-364.69441317 64.38389957 -350.59079214 61.82866204 -336.5 59.1875 C-315.99314005 55.34408478 -295.46224127 51.63704905 -274.92749023 47.94628906 C-272.35400297 47.48372918 -269.78051662 47.02116417 -267.20703125 46.55859375 C-265.96503464 46.33539459 -264.72303802 46.11219543 -263.44340515 45.88223267 C-256.38061455 44.61186094 -249.31974221 43.33174757 -242.26171875 42.03515625 C-241.48814026 41.89327881 -240.71456177 41.75140137 -239.9175415 41.60522461 C-236.56465725 40.99005687 -233.21229985 40.37241202 -229.86083984 39.74951172 C-224.13619851 38.6974464 -218.41961864 37.76163717 -212.65234375 36.97265625 C-208.92881198 36.45838772 -205.29653888 35.9115705 -201.66015625 34.95703125 C-197.59978365 33.89535432 -193.58579929 33.27941482 -189.4375 32.6875 C-182.24081261 31.60781955 -175.16110773 30.22334161 -168.0625 28.625 C-159.32509607 26.66675731 -150.56588935 24.94320243 -141.75 23.375 C-140.12010132 23.08423584 -140.12010132 23.08423584 -138.45727539 22.78759766 C-132.79380753 21.79353426 -127.1244096 20.8594995 -121.44145203 19.98518372 C-110.57945661 18.30903354 -99.78768376 16.32757039 -88.99215698 14.26959229 C-83.73564968 13.26791767 -78.47734848 12.27578657 -73.21875 11.28515625 C-72.17541 11.08859436 -71.13207001 10.89203247 -70.05711365 10.68951416 C-59.37707186 8.68416497 -48.6788847 6.78736761 -37.97045898 4.94018555 C-30.46291342 3.64165709 -30.46291342 3.64165709 -22.98657227 2.17749023 C-21.9860659 1.9703389 -21.9860659 1.9703389 -20.96534729 1.75900269 C-19.12015406 1.37280445 -17.27680107 0.97784323 -15.43359375 0.58227539 C-10.27600176 -0.29235892 -5.21132304 -0.26202183 0 0 Z " transform="translate(735,10)" fill="currentColor" style="fill-opacity:1;stroke-width:0.264583"/>
<path d="M0 0 C1.2890625 -0.01160156 2.578125 -0.02320313 3.90625 -0.03515625 C11.75904768 -0.01121479 18.56768667 0.84196536 26 3.375 C27.74796875 3.93960937 27.74796875 3.93960937 29.53125 4.515625 C50.10194107 12.20256745 63.73183039 25.85879999 73.203125 45.3125 C73.81104872 46.66266562 74.41007124 48.01687537 75 49.375 C75.29205322 50.00913818 75.58410645 50.64327637 75.88500977 51.29663086 C78.66458271 58.20552483 78.48855057 65.37360183 78.44604492 72.70141602 C78.43760761 74.90933921 78.46624468 77.11460148 78.49804688 79.32226562 C78.58405461 96.83436849 74.35412308 112.71901598 63 126.375 C62.34128906 127.179375 61.68257812 127.98375 61.00390625 128.8125 C52.10757971 139.2153346 41.44935452 145.9711593 29 151.375 C28.41259033 151.65456543 27.82518066 151.93413086 27.2199707 152.22216797 C19.79835052 155.28407582 11.85880888 154.8974095 3.96459961 154.87597656 C1.46673588 154.8750113 -1.0279742 154.91656528 -3.52539062 154.9609375 C-23.65224181 155.1116827 -41.33144584 148.41869918 -55.9453125 134.43188477 C-57.30723854 133.09002776 -58.65412005 131.73295062 -60 130.375 C-60.99966797 129.42560547 -60.99966797 129.42560547 -62.01953125 128.45703125 C-73.63226169 116.58216243 -80.43150124 96.56559831 -80.4375 80.125 C-79.55222532 56.5953309 -72.17048697 35.71119632 -54.875 19.25 C-46.52026797 12.12178303 -36.34595858 6.92935491 -26 3.375 C-24.83730591 2.97510864 -24.83730591 2.97510864 -23.65112305 2.56713867 C-15.73775858 0.13066147 -8.23683178 -0.07413149 0 0 Z " transform="translate(535,429.625)" fill="currentColor" style="fill-opacity:1;stroke-width:0.264583"/>
<path d="M0 0 C5.33841781 -0.14841624 10.67563342 -0.2572453 16.015625 -0.32958984 C17.83159299 -0.35974788 19.64741549 -0.40068198 21.46289062 -0.45263672 C24.07458355 -0.52550124 26.68435058 -0.55946367 29.296875 -0.5859375 C30.10743347 -0.61690521 30.91799194 -0.64787292 31.75311279 -0.67977905 C33.98484234 -0.68110898 35.85170362 -0.60662497 38 0 C41.05504549 3.438524 42.70660655 7.26635905 44.42578125 11.50390625 C44.88073975 12.60976074 45.33569824 13.71561523 45.80444336 14.85498047 C46.04774384 15.45356873 46.29104431 16.05215698 46.54171753 16.66888428 C47.93520284 20.09232187 49.35406317 23.50519967 50.7734375 26.91796875 C51.09257614 27.68570618 51.41171478 28.4534436 51.74052429 29.2444458 C56.51147869 40.67601246 61.491893 52.01825831 66.4375 63.375 C75.06648848 83.20552137 83.60347213 103.07008615 92 123 C93.87353575 127.43811942 95.74889008 131.87546819 97.625 136.3125 C98.06626221 137.35639893 98.50752441 138.40029785 98.9621582 139.47583008 C104.26272819 152.00330083 109.63313323 164.50082766 115 177 C116.94293023 181.52535499 118.88529416 186.05095214 120.82669067 190.57696533 C121.6065334 192.39446186 122.38712001 194.21163915 123.16772461 196.02880859 C123.64089111 197.1317627 124.11405762 198.2347168 124.6015625 199.37109375 C125.01744629 200.33974365 125.43333008 201.30839355 125.86181641 202.30639648 C126.23741699 203.19528564 126.61301758 204.0841748 127 205 C127.35884277 205.77609619 127.71768555 206.55219238 128.08740234 207.35180664 C129 210 129 210 130 218 C120.76 218 111.52 218 102 218 C95.62355413 204.72432805 89.80327381 191.27432788 84.125 177.6875 C82.8452498 174.63254244 81.56444594 171.57803337 80.28219604 168.52412415 C79.49257855 166.64279995 78.70451617 164.76082206 77.91824341 162.87809753 C77.56382172 162.03233658 77.20940002 161.18657562 76.84423828 160.31518555 C76.53527618 159.57592331 76.22631409 158.83666107 75.9079895 158.07499695 C75.00516386 156.01180079 74.02511999 154.00485549 73 152 C60.79579945 151.90742506 48.59168207 151.83629852 36.38720226 151.79275131 C30.72049265 151.77185353 25.05402278 151.74349567 19.38745117 151.69824219 C13.92152352 151.65486295 8.45582684 151.63087941 2.98974037 151.62049103 C0.90165888 151.61308542 -1.18640961 151.59862446 -3.27439308 151.57707977 C-6.19338176 151.5481513 -9.11140922 151.54403959 -12.03051758 151.54589844 C-12.89870117 151.53151733 -13.76688477 151.51713623 -14.66137695 151.50231934 C-19.19981357 151.46071421 -19.19981357 151.46071421 -22.93624878 153.74324036 C-23.46280563 154.86033638 -23.46280563 154.86033638 -24 156 C-24.34376175 156.71868759 -24.6875235 157.43737518 -25.04170227 158.17784119 C-25.35447617 158.96469803 -25.66725006 159.75155487 -25.98950195 160.56225586 C-26.3503035 161.46096909 -26.71110504 162.35968231 -27.08283997 163.28562927 C-27.6547834 164.73559044 -27.6547834 164.73559044 -28.23828125 166.21484375 C-28.8431562 167.7249276 -28.8431562 167.7249276 -29.46025085 169.26551819 C-30.75001045 172.48727886 -32.03183567 175.71211425 -33.3125 178.9375 C-44.41062802 206.82125604 -44.41062802 206.82125604 -50 218 C-53.24998112 218.02909763 -56.49992857 218.04683161 -59.75 218.0625 C-60.67039062 218.07087891 -61.59078125 218.07925781 -62.5390625 218.08789062 C-63.42851563 218.09111328 -64.31796875 218.09433594 -65.234375 218.09765625 C-66.45979004 218.10551147 -66.45979004 218.10551147 -67.70996094 218.11352539 C-69.93968135 218.00299021 -71.86133755 217.62055567 -74 217 C-73.44710338 211.64112237 -72.06285945 207.08962635 -69.96484375 202.12109375 C-69.49913467 200.99156532 -69.49913467 200.99156532 -69.02401733 199.83921814 C-68.00295159 197.36867484 -66.97036153 194.90313233 -65.9375 192.4375 C-65.22032355 190.70875471 -64.50378047 188.97974654 -63.7878418 187.25048828 C-58.02913494 173.36616774 -52.19477654 159.5122859 -46.31811523 145.67749023 C-43.13385256 138.16873507 -40.05462813 130.64293827 -37.16113281 123.01586914 C-35.21645658 117.96486295 -33.10408681 112.98621215 -31 108 C-29.9060791 105.39514825 -28.81426955 102.78941327 -27.72265625 100.18359375 C-27.43154968 99.48881424 -27.14044312 98.79403473 -26.84051514 98.07820129 C-20.90052675 83.89363503 -15.0093811 69.68988362 -9.27340698 55.42141724 C-8.68513022 53.95864856 -8.09544166 52.49644667 -7.50418091 51.03488159 C-4.55423039 43.73514263 -1.70277566 36.40802352 0.8671875 28.96484375 C1.2679248 27.80718506 1.66866211 26.64952637 2.08154297 25.45678711 C3.791631 19.02054669 4.83922767 11.25618369 1.46875 5.2890625 C0.9840625 4.53367187 0.499375 3.77828125 0 3 C0 2.01 0 1.02 0 0 Z " transform="translate(85,363)" fill="currentColor" style="fill-opacity:1;stroke-width:0.264583"/>
<path d="M0 0 C1.53817383 -0.03673828 1.53817383 -0.03673828 3.10742188 -0.07421875 C16.80375759 -0.12613158 27.325591 5.41477867 37.0625 14.75 C48.08122804 26.19104863 52.80788895 40.68584332 52.59741211 56.43994141 C52.0945632 72.92155381 47.36003449 88.0058911 35.9375 100.25 C25.27784562 110.17532263 10.50958268 113.92990625 -3.69921875 113.65234375 C-16.59447383 112.75561201 -28.07450719 106.92987565 -36.87890625 97.55859375 C-49.70545797 82.07254103 -52.15206881 63.76964469 -50.6875 44.375 C-48.78316602 31.78833513 -40.91329085 17.77462477 -30.859375 9.83203125 C-20.6552529 2.98646013 -12.24164976 0.01510382 0 0 Z " transform="translate(533.6875,450.625)" fill="currentColor" style="fill-opacity:1;stroke-width:0.264583"/>
<path d="M0 0 C1.04494629 -0.01474365 2.08989258 -0.0294873 3.16650391 -0.04467773 C15.12483092 0.11284243 27.16166002 4.5111973 36 12.75 C45.78122289 23.25575792 49.96750912 36.13914489 49.76660156 50.29785156 C49.76718567 51.40175735 49.76776978 52.50566315 49.76837158 53.64302063 C49.76561252 57.24672269 49.73462332 60.84956968 49.703125 64.453125 C49.69565488 66.96945748 49.6899656 69.48579583 49.68597412 72.00213623 C49.67232692 77.91988991 49.64088871 83.83733413 49.60057616 89.75496173 C49.55121903 97.16341027 49.5299403 104.57189752 49.5078125 111.98046875 C49.46504917 125.17463122 49.39765229 138.36854644 49.3125 151.5625 C45.35418191 151.59142857 41.39589083 151.60927427 37.4375 151.625 C36.30957031 151.63337891 35.18164062 151.64175781 34.01953125 151.65039062 C32.40498047 151.65522461 32.40498047 151.65522461 30.7578125 151.66015625 C29.26531982 151.66801147 29.26531982 151.66801147 27.74267578 151.67602539 C25.3125 151.5625 25.3125 151.5625 23.3125 150.5625 C23.30441315 149.3488678 23.29632629 148.1352356 23.28799438 146.88482666 C23.21028339 135.40988079 23.12248237 123.93504986 23.02497292 112.46025467 C22.97517015 106.56190563 22.92883938 100.66357312 22.890625 94.76513672 C22.853569 89.06568365 22.80715548 83.36637454 22.75443649 77.66704559 C22.73599996 75.49994194 22.72085303 73.33280755 22.70915604 71.16565704 C23.31225544 48.74436151 23.31225544 48.74436151 13.3125 29.5625 C4.84427091 21.92131664 -3.73259037 21.83776902 -14.52880859 22.38037109 C-24.58027739 23.22841404 -31.59778079 28.81878516 -38.6875 35.5625 C-39.49807861 36.32708023 -40.30865723 37.09166046 -41.14379883 37.87940979 C-49.87763235 47.61976578 -48.92001416 57.75779647 -48.75 70.21484375 C-48.75311924 72.4053287 -48.76034957 74.59581127 -48.77148438 76.78627014 C-48.79035164 82.52064742 -48.75668946 88.25349337 -48.71075439 93.9876709 C-48.664538 100.96816649 -48.68025786 107.94874597 -48.68678284 114.92935276 C-48.69070223 120.3563366 -48.68551647 125.78280446 -48.65258789 131.20970154 C-48.64804092 132.20558792 -48.64349396 133.2014743 -48.6388092 134.22753906 C-48.62988565 136.08206094 -48.61708516 137.93657003 -48.59959412 139.79103088 C-48.5963765 140.61356354 -48.59315887 141.43609619 -48.58984375 142.28355408 C-48.58460693 142.99341933 -48.57937012 143.70328459 -48.57397461 144.43466091 C-48.6875 146.5625 -48.6875 146.5625 -49.6875 151.5625 C-57.9375 151.5625 -66.1875 151.5625 -74.6875 151.5625 C-75.63573843 148.71778472 -75.81829864 146.94499836 -75.83226013 143.99497986 C-75.83915863 143.05765518 -75.84605713 142.12033051 -75.85316467 141.15460205 C-75.85577805 140.1276825 -75.85839142 139.10076294 -75.86108398 138.04272461 C-75.867771 136.95929276 -75.87445801 135.8758609 -75.88134766 134.75959778 C-75.89541605 132.40079315 -75.90730438 130.04197476 -75.91729546 127.68314934 C-75.93372384 123.93516532 -75.95696979 120.18728084 -75.98219299 116.43934631 C-76.05286727 105.78016956 -76.11271662 95.12095417 -76.16430664 84.46166992 C-76.19636031 77.94178793 -76.23771465 71.42201565 -76.28450203 64.90222359 C-76.30038355 62.43026294 -76.31276785 59.958277 -76.32140923 57.48628044 C-76.37565044 40.82568797 -76.37565044 40.82568797 -77.52368164 24.21313477 C-77.5923239 23.49826621 -77.66096617 22.78339766 -77.7316885 22.04686642 C-78.39801222 16.48154825 -80.34586094 13.17246687 -83.875 8.9375 C-85.6875 6.5625 -85.6875 6.5625 -85.6875 3.5625 C-74.1375 3.5625 -62.5875 3.5625 -50.6875 3.5625 C-50.0275 9.1725 -49.3675 14.7825 -48.6875 20.5625 C-45.684807 20.89861907 -45.684807 20.89861907 -44.03125 19.05859375 C-43.11859375 18.03958984 -43.11859375 18.03958984 -42.1875 17 C-30.38662736 4.85582924 -16.57070553 0.15462745 0 0 Z " transform="translate(722.6875,429.4375)" fill="currentColor" style="fill-opacity:1;stroke-width:0.264583"/>
<path d="M0 0 C1 1 1 1 1.11352539 3.13305664 C1.10567017 4.50772095 1.10567017 4.50772095 1.09765625 5.91015625 C1.09282227 7.39418945 1.09282227 7.39418945 1.08789062 8.90820312 C1.07532227 10.46958008 1.07532227 10.46958008 1.0625 12.0625 C1.05798828 13.10728516 1.05347656 14.15207031 1.04882812 15.22851562 C1.03699913 17.8190666 1.02051689 20.40950559 1 23 C0.42556152 22.79318604 -0.14887695 22.58637207 -0.74072266 22.37329102 C-3.36696644 21.43111349 -5.99592736 20.49675321 -8.625 19.5625 C-9.52863281 19.23701172 -10.43226563 18.91152344 -11.36328125 18.57617188 C-19.50717499 15.6931146 -26.76672212 14.77843251 -35.375 14.6875 C-36.73625 14.64399414 -36.73625 14.64399414 -38.125 14.59960938 C-45.88955929 14.52688656 -50.5988191 16.803404 -57 20.9375 C-60.32616359 26.03068799 -60.05469773 31.1278991 -59 37 C-55.1761982 45.82415801 -44.18902206 49.25676713 -36 53 C2.20813858 70.61867723 2.20813858 70.61867723 9 88 C11.88528283 98.05353133 11.4323836 112.5570958 7 122 C2.79298504 129.16643237 -1.92958543 134.67729135 -9 139 C-10.05348633 139.65943604 -11.10697266 140.31887207 -12.19238281 140.99829102 C-22.58398243 147.06382368 -31.58584942 148.14973365 -43.4921875 147.82324219 C-46.2619066 147.74968378 -49.02627433 147.74120987 -51.796875 147.7421875 C-61.39501728 147.66787653 -70.19430448 147.24196416 -79 143 C-79.74475586 142.65759277 -80.48951172 142.31518555 -81.25683594 141.96240234 C-83.21875 140.8515625 -83.21875 140.8515625 -86 138 C-86.83689627 134.74058793 -86.71251657 131.71454603 -86.5 128.375 C-86.47679687 127.51648438 -86.45359375 126.65796875 -86.4296875 125.7734375 C-86.30830329 122.24226061 -86.12404278 119.37212834 -85 116 C-80.4686584 116.63369337 -76.68514129 118.43596449 -72.625 120.4375 C-59.38145783 126.96505889 -42.80644774 128.9915383 -28.4375 124.5 C-22.77569129 121.94067834 -19.71081168 117.42162335 -17 112 C-16.51544615 106.2489018 -16.14726992 100.87600617 -18.5625 95.5625 C-24.08565148 89.75610999 -29.58212547 85.87144987 -36.86328125 82.5390625 C-38.57229626 81.72923131 -40.28127964 80.91933338 -41.99023438 80.109375 C-44.64754907 78.86624408 -47.30689231 77.62760506 -49.9675293 76.39160156 C-74.25476966 65.06461478 -74.25476966 65.06461478 -82 54 C-82.4640625 53.36449219 -82.928125 52.72898437 -83.40625 52.07421875 C-88.99258661 43.08952736 -88.47183986 31.45074313 -86.18359375 21.421875 C-82.15760281 10.48015747 -73.41426671 2.84521912 -63 -2 C-58.71922898 -3.5584604 -54.41312852 -4.87213622 -50 -6 C-49.24976563 -6.19464844 -48.49953125 -6.38929688 -47.7265625 -6.58984375 C-32.52090692 -8.87722747 -13.35055433 -8.17380877 0 0 Z " transform="translate(318,437)" fill="currentColor" style="fill-opacity:1;stroke-width:0.264583"/>
<path d="M0 0 C0 10.56 0 21.12 0 32 C3.21363281 31.95359375 6.42726563 31.9071875 9.73828125 31.859375 C12.84593119 31.82819262 15.9535638 31.80389727 19.0612793 31.78027344 C21.22346784 31.76014042 23.38560183 31.73283167 25.54760742 31.69824219 C28.65296884 31.64979883 31.75761136 31.62704828 34.86328125 31.609375 C36.31653557 31.57840729 36.31653557 31.57840729 37.79914856 31.54681396 C39.15020943 31.54636078 39.15020943 31.54636078 40.52856445 31.54589844 C41.32132278 31.53701599 42.11408112 31.52813354 42.93086243 31.51898193 C45 32 45 32 46.75016785 33.80548096 C48.60021726 37.05389209 48.4710093 39.85531392 48.5 43.5625 C48.52835937 44.23474609 48.55671875 44.90699219 48.5859375 45.59960938 C48.59375 47.56640625 48.59375 47.56640625 48 51 C43.58742209 54.86963825 38.66366738 54.47289302 33.10546875 54.51171875 C32.15811356 54.52966995 31.21075836 54.54762115 30.23469543 54.56611633 C27.21900843 54.62015087 24.2034791 54.65409327 21.1875 54.6875 C19.13864997 54.7206791 17.08982072 54.75516931 15.04101562 54.79101562 C10.02745762 54.87587356 5.01394583 54.94271765 0 55 C0.10788026 65.38844221 0.22058759 75.77682002 0.33933926 86.16514397 C0.39434009 90.98963156 0.44772158 95.81412542 0.49731445 100.63867188 C0.54529738 105.30065901 0.59764876 109.96257905 0.65294075 114.62448502 C0.67321173 116.39691608 0.69194833 118.16936543 0.70907402 119.94182968 C0.17744018 136.76617266 0.17744018 136.76617266 5.16015625 152.40625 C6 154 6 154 6 156 C6.7734375 156.37125 6.7734375 156.37125 7.5625 156.75 C10 158 10 158 13.13671875 160.05078125 C17.2045173 162.37387682 20.63876776 162.58163377 25.25 162.4375 C25.99362793 162.42501221 26.73725586 162.41252441 27.50341797 162.3996582 C36.40644329 162.11716022 43.92045264 159.53480197 52 156 C52.99 156 53.98 156 55 156 C55 162.27 55 168.54 55 175 C43.83722425 181.42416154 35.85118207 184.28192931 23.01635742 183.93310547 C20.66888407 183.87453553 18.33033362 183.89210585 15.98242188 183.91796875 C2.95613414 183.88126991 -5.57573391 179.9425908 -15.1328125 170.9296875 C-28.45383721 157.16277075 -27.30022123 136.83436416 -27.1953125 119.0390625 C-27.19157311 117.15335237 -27.18873053 115.26764027 -27.18673706 113.38192749 C-27.17917338 108.46653693 -27.15958907 103.55126833 -27.1373291 98.63592529 C-27.11671235 93.6010503 -27.10770181 88.56615522 -27.09765625 83.53125 C-27.07633489 73.687447 -27.04228894 63.84373372 -27 54 C-28.32390747 54.01740234 -28.32390747 54.01740234 -29.67456055 54.03515625 C-31.41926636 54.04869141 -31.41926636 54.04869141 -33.19921875 54.0625 C-34.34994873 54.07410156 -35.50067871 54.08570313 -36.6862793 54.09765625 C-40.76688739 53.97739962 -44.11951766 53.21740622 -48 52 C-46.42584818 48.12308893 -43.93840506 45.80334323 -40.9375 42.9375 C-36.36434435 38.48929805 -32.30086008 33.82164347 -28.3203125 28.828125 C-24.90260024 24.66242857 -21.23728192 20.74203685 -17.57421875 16.79296875 C-15.40208617 14.43625434 -13.28099565 12.05123668 -11.1875 9.625 C-2.81093096 0 -2.81093096 0 0 0 Z " transform="translate(391,401)" fill="currentColor" style="fill-opacity:1;stroke-width:0.264583"/>
</svg>