<?xml version="1.0" encoding="UTF-8"?>
<svg version="1.1" xmlns="http://www.w3.org/2000/svg" width="162" height="194">
<path d="M0 0 C53.46 0 106.92 0 162 0 C162 64.02 162 128.04 162 194 C108.54 194 55.08 194 0 194 C0 129.98 0 65.96 0 0 Z " fill="#FAFEFD" transform="translate(0,0)"/>
<path d="M0 0 C1.32 0 2.64 0 4 0 C4.00142502 1.09865891 4.00285004 2.19731781 4.00431824 3.32926941 C4.02105441 13.72973426 4.0640292 24.12981115 4.13209057 34.5300703 C4.16624724 39.8758158 4.19145289 45.22127893 4.19555664 50.56713867 C4.19986393 55.7351091 4.22852699 60.90244379 4.27343178 66.07021523 C4.28632946 68.03273109 4.29074218 69.99532333 4.28615379 71.95787621 C4.26381716 84.42321028 4.596029 95.87391177 12.1875 106.4375 C18.25461795 111.96531858 24.89556387 116.06714714 33.20581055 116.20532227 C34.26668381 116.22526749 35.32755707 116.24521271 36.420578 116.26576233 C37.56440445 116.28247482 38.7082309 116.29918732 39.88671875 116.31640625 C41.05886429 116.33718735 42.23100983 116.35796844 43.43867493 116.37937927 C47.18822286 116.44483818 50.93784163 116.50374296 54.6875 116.5625 C57.22722091 116.60568868 59.76693462 116.64930308 62.30664062 116.69335938 C68.53768522 116.80051586 74.76880051 116.9022892 81 117 C81.0927541 120.20001631 81.18517908 123.40003365 81.27520752 126.60012817 C81.33081564 128.45983709 81.39076165 130.31947808 81.46746826 132.17843628 C81.77818617 139.75831791 81.32705136 145.07269203 76.68994141 151.23266602 C72.9366993 155.15779164 69.91023542 156.84507443 64.47869301 157.13422108 C63.52413404 157.13849456 62.56957508 157.14276804 61.58609009 157.14717102 C59.93746727 157.15790398 59.93746727 157.15790398 58.25553894 157.16885376 C57.05439957 157.17154266 55.85326019 157.17423157 54.61572266 157.17700195 C53.34705856 157.18357315 52.07839447 157.19014435 50.77128601 157.19691467 C46.56889093 157.21790656 42.36649568 157.22831042 38.1640625 157.23828125 C36.7154679 157.24233021 35.26687348 157.24644717 33.81827927 157.25063133 C27.01380407 157.26966992 20.20933966 157.28390543 13.40484297 157.2922433 C5.55628568 157.30202022 -2.29198994 157.3283569 -10.14044797 157.36874419 C-16.21191215 157.39891323 -22.28329558 157.41371279 -28.35483325 157.41702431 C-31.97908775 157.41937331 -35.60304086 157.42831419 -39.22721481 157.45348549 C-43.27063476 157.48111686 -47.31342522 157.47693275 -51.35693359 157.4699707 C-53.15256996 157.48918579 -53.15256996 157.48918579 -54.98448181 157.50878906 C-62.52749293 157.46137685 -66.19876241 156.69288878 -71.64453125 151.40234375 C-75.40341742 146.68802163 -76.12554115 143.74026536 -76.09765625 137.80078125 C-76.09443359 136.59228516 -76.09121094 135.38378906 -76.08789062 134.13867188 C-76.07951172 132.87603516 -76.07113281 131.61339844 -76.0625 130.3125 C-76.05573242 128.40114258 -76.05573242 128.40114258 -76.04882812 126.45117188 C-76.03702873 123.30073436 -76.02056597 120.15039051 -76 117 C-75.07491135 116.99453156 -75.07491135 116.99453156 -74.13113403 116.98895264 C-67.67363696 116.94692682 -61.21683741 116.87744194 -54.75976562 116.79248047 C-52.35456338 116.76437023 -49.94927047 116.74310658 -47.54394531 116.72900391 C-44.07309886 116.70743692 -40.60333127 116.66071413 -37.1328125 116.609375 C-35.53688766 116.60753204 -35.53688766 116.60753204 -33.90872192 116.60565186 C-24.02314716 116.4146008 -16.04659333 113.84614232 -8.7578125 107 C-2.29684357 99.64885313 -0.85951715 92.6301086 -0.79467773 83.10058594 C-0.78477814 82.20267334 -0.77487854 81.30476074 -0.76467896 80.37963867 C-0.73311589 77.41457752 -0.70832701 74.44950034 -0.68359375 71.484375 C-0.66301974 69.42742499 -0.64202315 67.37047916 -0.62062073 65.3135376 C-0.56544622 59.90160514 -0.51601653 54.48963481 -0.46777344 49.07763672 C-0.4175247 43.55432773 -0.36185623 38.03107368 -0.30664062 32.5078125 C-0.19911556 21.67192194 -0.09765801 10.83598366 0 0 Z " fill="#0175AF" transform="translate(78,1)"/>
<path d="M0 0 C1.77149666 0.0001133 1.77149666 0.0001133 3.57878113 0.00022888 C4.85385025 0.00539017 6.12891937 0.01055145 7.44262695 0.01586914 C9.40060966 0.01799156 9.40060966 0.01799156 11.39814758 0.02015686 C14.86530477 0.02397159 18.33241994 0.03379295 21.79956055 0.04486084 C25.33878003 0.05509741 28.87800631 0.05965929 32.41723633 0.06469727 C39.35931086 0.07541616 46.30135751 0.09248005 53.2434082 0.11352539 C53.35974136 8.80680405 53.44834411 17.49981089 53.50246906 26.19370079 C53.5284589 30.2315476 53.56365925 34.26885819 53.62060547 38.30639648 C53.67530904 42.20977603 53.70490837 46.11264293 53.71779442 50.0163765 C53.72696619 51.49863368 53.74487538 52.98086578 53.77205849 54.46290207 C53.96455054 65.40209889 52.49766787 73.57788639 45.1184082 81.98852539 C37.68125608 88.80869474 28.10604215 89.7005378 18.45043945 89.50415039 C17.37839767 89.4984906 16.3063559 89.49283081 15.201828 89.48699951 C11.81937632 89.46483054 8.43803296 89.41467101 5.0559082 89.36352539 C2.74537676 89.34343522 0.43482851 89.3251889 -1.87573242 89.30883789 C-7.50305577 89.26503005 -13.12974457 89.19831673 -18.7565918 89.11352539 C-18.84936074 79.17767702 -18.92039178 69.24193206 -18.96384048 59.30573845 C-18.98469605 54.69170688 -19.01297642 50.0779721 -19.05834961 45.46411133 C-19.10188007 41.00964576 -19.12574418 36.55546527 -19.13610077 32.10080338 C-19.14347924 30.40315388 -19.15788786 28.7055196 -19.17951202 27.00799179 C-19.2086426 24.62599996 -19.2125439 22.24517903 -19.21069336 19.86303711 C-19.22507446 19.1646019 -19.23945557 18.46616669 -19.25427246 17.74656677 C-19.20608585 11.99660701 -17.09555769 8.5211162 -13.15893555 4.46899414 C-8.60894329 0.84113365 -5.73217161 -0.01222211 0 0 Z " fill="#0175AF" transform="translate(20.756591796875,0.886474609375)"/>
<path d="M0 0 C7.55435107 -0.09301622 15.10864214 -0.16392438 22.66343689 -0.20724869 C26.17215319 -0.22805108 29.68047533 -0.25623163 33.18896484 -0.30175781 C37.23017993 -0.35386357 41.27098629 -0.37300577 45.3125 -0.390625 C46.5617627 -0.41127014 47.81102539 -0.43191528 49.09814453 -0.45318604 C56.22782839 -0.45501054 60.97108351 0.08727606 67 4 C71.50410096 8.85057026 72.145526 11.95938745 72.11352539 18.38720703 C72.11367142 19.14827759 72.11381744 19.90934814 72.1139679 20.69348145 C72.11326993 23.21495389 72.10548294 25.73635292 72.09765625 28.2578125 C72.09579166 30.00373291 72.09436795 31.74965384 72.09336853 33.49557495 C72.08954659 38.09545328 72.07971905 42.69530014 72.06866455 47.29516602 C72.05844349 51.9871376 72.05386942 56.67911425 72.04882812 61.37109375 C72.03809651 70.58074301 72.02102394 79.79036889 72 89 C64.8834256 89.10176424 57.7670402 89.17161829 50.64990234 89.21972656 C48.2308857 89.23979065 45.81191724 89.26704843 43.39306641 89.30175781 C39.90775632 89.35050341 36.42308984 89.37302164 32.9375 89.390625 C31.86322754 89.41127014 30.78895508 89.43191528 29.68212891 89.45318604 C20.6304794 89.45586594 14.3772438 86.86729248 7.60546875 80.77734375 C1.88767691 74.44742821 -0.12946708 67.84074801 -0.11352539 59.48730469 C-0.11367142 58.84298492 -0.11381744 58.19866516 -0.1139679 57.53482056 C-0.1132735 55.41380397 -0.10550336 53.29287617 -0.09765625 51.171875 C-0.09579039 49.69785612 -0.09436728 48.22383662 -0.09336853 46.74981689 C-0.08955661 42.87661008 -0.07973765 39.00344097 -0.06866455 35.13024902 C-0.05842193 31.17537954 -0.0538648 27.22050394 -0.04882812 23.265625 C-0.03811418 15.51039951 -0.02105369 7.75520504 0 0 Z " fill="#0175AF" transform="translate(86,1)"/>
<path d="M0 0 C3.72625409 0.88269979 7.49975381 1.21183815 11.30859375 1.546875 C11.63859375 2.536875 11.96859375 3.526875 12.30859375 4.546875 C12.96859375 4.546875 13.62859375 4.546875 14.30859375 4.546875 C14.63859375 13.126875 14.96859375 21.706875 15.30859375 30.546875 C-38.15140625 30.546875 -91.61140625 30.546875 -146.69140625 30.546875 C-146.69140625 21.306875 -146.69140625 12.066875 -146.69140625 2.546875 C-133.0740701 1.7033232 -133.0740701 1.7033232 -129.13671875 4.10546875 C-127.45598783 5.83850457 -126.01384316 7.52977278 -124.69140625 9.546875 C-124.36140625 7.236875 -124.03140625 4.926875 -123.69140625 2.546875 C-119.07140625 2.546875 -114.45140625 2.546875 -109.69140625 2.546875 C-109.19640625 5.021875 -109.19640625 5.021875 -108.69140625 7.546875 C-108.03140625 7.546875 -107.37140625 7.546875 -106.69140625 7.546875 C-106.05203125 6.721875 -105.41265625 5.896875 -104.75390625 5.046875 C-100.28774527 1.4010293 -96.24647481 2.10908501 -90.69140625 2.546875 C-91.64183999 3.88585083 -92.60199772 5.21792927 -93.56640625 6.546875 C-94.10007813 7.289375 -94.63375 8.031875 -95.18359375 8.796875 C-95.68117187 9.374375 -96.17875 9.951875 -96.69140625 10.546875 C-97.35140625 10.546875 -98.01140625 10.546875 -98.69140625 10.546875 C-98.85828073 12.96333282 -98.85828073 12.96333282 -98.69140625 15.546875 C-95.92917347 18.30910778 -93.48434008 18.12543791 -89.69140625 18.546875 C-89.87556057 15.60595913 -89.87556057 15.60595913 -90.69140625 12.546875 C-92.67703571 11.32451298 -92.67703571 11.32451298 -94.69140625 10.546875 C-93.29656767 7.06813381 -91.70623648 4.80346999 -88.69140625 2.546875 C-82.80165781 1.44826105 -77.03125278 1.70568813 -71.06640625 1.921875 C-69.44145166 1.94487575 -67.81644458 1.9644408 -66.19140625 1.98046875 C-64.63666206 2.00731299 -63.08196617 2.03715798 -61.52734375 2.0703125 C-60.80122894 2.08508636 -60.07511414 2.09986023 -59.32699585 2.11508179 C-52.63491964 2.36731983 -52.63491964 2.36731983 -49.69140625 4.546875 C-49.08203125 7.3671875 -49.08203125 7.3671875 -48.94140625 10.671875 C-48.8846875 11.76757812 -48.82796875 12.86328125 -48.76953125 13.9921875 C-48.74375 14.83523437 -48.71796875 15.67828125 -48.69140625 16.546875 C-48.03140625 16.546875 -47.37140625 16.546875 -46.69140625 16.546875 C-46.03140625 14.566875 -45.37140625 12.586875 -44.69140625 10.546875 C-41.06140625 10.546875 -37.43140625 10.546875 -33.69140625 10.546875 C-33.36140625 7.906875 -33.03140625 5.266875 -32.69140625 2.546875 C-30.71140625 2.546875 -28.73140625 2.546875 -26.69140625 2.546875 C-26.19640625 10.961875 -26.19640625 10.961875 -25.69140625 19.546875 C-24.37140625 19.546875 -23.05140625 19.546875 -21.69140625 19.546875 C-21.36140625 13.606875 -21.03140625 7.666875 -20.69140625 1.546875 C-17.37109375 1.05859375 -14.05078125 0.5703125 -10.73046875 0.08203125 C-4.03778735 -1.09650005 -4.03778735 -1.09650005 0 0 Z " fill="#EBFBFD" transform="translate(146.69140625,163.453125)"/>
<path d="M0 0 C0.33 0 0.66 0 1 0 C1.02330803 13.10138476 1.04100827 26.20276447 1.05181217 39.30416584 C1.05700099 45.38955233 1.06402474 51.47492449 1.07543945 57.56030273 C1.08641206 63.44773179 1.09230686 69.33514718 1.09487724 75.22258568 C1.09670587 77.45370892 1.1002758 79.68483154 1.10573006 81.91594887 C1.13714083 95.31408124 0.87273747 108.62864273 0 122 C-0.33 122 -0.66 122 -1 122 C-1.495 111.605 -1.495 111.605 -2 101 C-4.32973877 100.99383667 -4.32973877 100.99383667 -6.70654297 100.98754883 C-12.50293562 100.96567597 -18.29865734 100.91130043 -24.09472656 100.84741211 C-26.59693949 100.82430332 -29.09924871 100.80985324 -31.6015625 100.80444336 C-35.21154291 100.79510225 -38.82002358 100.7539947 -42.4296875 100.70703125 C-44.09123367 100.71293022 -44.09123367 100.71293022 -45.78634644 100.71894836 C-55.81936478 100.53308467 -63.88921611 97.11078389 -71 90 C-76.1243257 83.82707072 -76.7287689 78.47593271 -76.5 70.625 C-76.50386719 69.13033203 -76.50386719 69.13033203 -76.5078125 67.60546875 C-76.43436711 62.19254377 -76.43436711 62.19254377 -76 60 C-75.01 59.34 -74.02 58.68 -73 58 C-70.27829532 59.06924113 -69.06141408 59.91583997 -67.3125 62.3125 C-63.68947816 66.5230389 -58.90562948 68.54718526 -54 71 C-52.30536742 71.11902812 -50.60628878 71.17714687 -48.90771484 71.20532227 C-47.83191162 71.22550415 -46.7561084 71.24568604 -45.64770508 71.26647949 C-43.94650513 71.29119324 -43.94650513 71.29119324 -42.2109375 71.31640625 C-41.17106689 71.33505737 -40.13119629 71.3537085 -39.05981445 71.3729248 C-35.16496503 71.44136737 -31.26997189 71.50142344 -27.375 71.5625 C-14.319375 71.7790625 -14.319375 71.7790625 -1 72 C-0.67 48.24 -0.34 24.48 0 0 Z " fill="#FAFEFD" transform="translate(161,18)"/>
<path d="M0 0 C3.72625409 0.88269979 7.49975381 1.21183815 11.30859375 1.546875 C11.80359375 3.031875 11.80359375 3.031875 12.30859375 4.546875 C12.96859375 4.546875 13.62859375 4.546875 14.30859375 4.546875 C14.63859375 13.126875 14.96859375 21.706875 15.30859375 30.546875 C-15.38140625 30.546875 -46.07140625 30.546875 -77.69140625 30.546875 C-76.70140625 29.061875 -76.70140625 29.061875 -75.69140625 27.546875 C-72.43359375 27.03515625 -72.43359375 27.03515625 -68.56640625 26.859375 C-67.28507812 26.79363281 -66.00375 26.72789062 -64.68359375 26.66015625 C-63.69617188 26.62277344 -62.70875 26.58539063 -61.69140625 26.546875 C-61.36140625 24.236875 -61.03140625 21.926875 -60.69140625 19.546875 C-63.00140625 19.546875 -65.31140625 19.546875 -67.69140625 19.546875 C-67.69140625 19.216875 -67.69140625 18.886875 -67.69140625 18.546875 C-65.38140625 18.546875 -63.07140625 18.546875 -60.69140625 18.546875 C-60.69140625 16.236875 -60.69140625 13.926875 -60.69140625 11.546875 C-63.33140625 11.546875 -65.97140625 11.546875 -68.69140625 11.546875 C-68.69140625 10.886875 -68.69140625 10.226875 -68.69140625 9.546875 C-67.69560547 9.39992187 -67.69560547 9.39992187 -66.6796875 9.25 C-61.13411193 8.31089523 -58.03524781 7.25191633 -53.69140625 3.546875 C-52.37140625 3.876875 -51.05140625 4.206875 -49.69140625 4.546875 C-49.36140625 8.506875 -49.03140625 12.466875 -48.69140625 16.546875 C-48.03140625 16.546875 -47.37140625 16.546875 -46.69140625 16.546875 C-46.03140625 14.566875 -45.37140625 12.586875 -44.69140625 10.546875 C-41.06140625 10.546875 -37.43140625 10.546875 -33.69140625 10.546875 C-33.36140625 7.906875 -33.03140625 5.266875 -32.69140625 2.546875 C-30.71140625 2.546875 -28.73140625 2.546875 -26.69140625 2.546875 C-26.19640625 10.961875 -26.19640625 10.961875 -25.69140625 19.546875 C-24.37140625 19.546875 -23.05140625 19.546875 -21.69140625 19.546875 C-21.36140625 13.606875 -21.03140625 7.666875 -20.69140625 1.546875 C-17.37109375 1.05859375 -14.05078125 0.5703125 -10.73046875 0.08203125 C-4.03778735 -1.09650005 -4.03778735 -1.09650005 0 0 Z " fill="#F1FAFB" transform="translate(146.69140625,163.453125)"/>
<path d="M0 0 C48.84 0 97.68 0 148 0 C147.855625 14.47875 147.71125 28.9575 147.5625 43.875 C147.51939697 48.45101074 147.47629395 53.02702148 147.43188477 57.74169922 C147.3729248 63.31860352 147.3729248 63.31860352 147.34410095 65.92727661 C147.32484776 67.75383733 147.30753337 69.58041909 147.29173279 71.40701294 C147.26746177 74.16968541 147.23708836 76.93222915 147.20532227 79.69482422 C147.19955201 80.5120439 147.19378176 81.32926357 147.18783665 82.17124748 C147.11402634 87.77194733 147.11402634 87.77194733 146 90 C145.34 90 144.68 90 144 90 C143.99453156 88.55420059 143.99453156 88.55420059 143.98895264 87.07919312 C143.95197752 77.98628421 143.89417742 68.89371318 143.81609726 59.80106163 C143.77662353 55.12663768 143.74443457 50.45240209 143.72900391 45.77783203 C143.71383659 41.26479185 143.67938988 36.75226948 143.63169098 32.23945999 C143.61687793 30.51957327 143.60895903 28.79961262 143.60811615 27.07966232 C143.60574444 24.66631918 143.57865056 22.25440471 143.54589844 19.84130859 C143.5509288 19.13352264 143.55595917 18.42573669 143.56114197 17.69650269 C143.45643509 12.6951292 142.15162999 9.84320457 139 6 C132.95026609 0.75198712 124.85398742 1.39804198 117.3125 1.390625 C116.01425293 1.37408875 114.71600586 1.35755249 113.37841797 1.34051514 C109.95244407 1.29709492 106.52672496 1.27689964 103.1005249 1.26177979 C99.59420868 1.24211629 96.088164 1.20015727 92.58203125 1.16015625 C85.72145717 1.0851297 78.86089362 1.03467226 72 1 C72.06147934 9.43285439 72.13877527 17.86535846 72.23571491 26.29787254 C72.28025321 30.21434812 72.31954457 34.13072363 72.34643555 38.04736328 C72.37263515 41.83419095 72.41315185 45.62063006 72.46318626 49.40721512 C72.47974333 50.84468338 72.49132655 52.28221867 72.49761391 53.71976852 C72.53695315 61.89498502 73.0124701 69.29737385 76 77 C74.68 77.33 73.36 77.66 72 78 C71.67 84.27 71.34 90.54 71 97 C67.75557971 92.13336956 67.86199708 88.05386648 67.88647461 82.39770508 C67.88632858 81.51944565 67.88618256 80.64118622 67.8860321 79.73631287 C67.88672928 76.83069395 67.89451261 73.92513898 67.90234375 71.01953125 C67.90420862 69.00599706 67.9056322 66.99246242 67.90663147 64.97892761 C67.91045121 59.67708078 67.92027688 54.37526131 67.93133545 49.07342529 C67.94156123 43.66418833 67.9461316 38.25494696 67.95117188 32.84570312 C67.96189961 22.23045673 67.97896954 11.61523064 68 1 C66.68 1 65.36 1 64 1 C64.00888245 2.13037689 64.01776489 3.26075378 64.0269165 4.42538452 C64.10819277 15.10613407 64.16805667 25.78682043 64.20724869 36.46780968 C64.22807546 41.9583264 64.2563033 47.44859239 64.30175781 52.93896484 C64.34539075 58.2428291 64.369174 63.54645298 64.37950897 68.85048294 C64.38686908 70.86858526 64.40124138 72.88667523 64.42292023 74.90467453 C64.57436583 89.593505 63.96218895 99.77046594 53.37890625 110.859375 C48.97295676 114.82400607 45.06206569 117 39 117 C39.495 115.02 39.495 115.02 40 113 C40.9075 113.020625 41.815 113.04125 42.75 113.0625 C45.42672588 113.0110245 47.46988052 112.7784983 50 112 C50 111.01 50 110.02 50 109 C50.66 108.67 51.32 108.34 52 108 C52.495 106.515 52.495 106.515 53 105 C53.99 105 54.98 105 56 105 C56.185625 104.0409375 56.185625 104.0409375 56.375 103.0625 C56.58125 102.381875 56.7875 101.70125 57 101 C57.66 100.67 58.32 100.34 59 100 C59.30075206 98.06182005 59.5877961 96.11978045 59.78125 94.16796875 C59.96650089 92.33200009 60.25357116 90.50674759 60.5625 88.6875 C61.14462685 83.78100223 61.08030772 78.93446313 61 74 C60.505 75.485 60.505 75.485 60 77 C59.01 77.495 59.01 77.495 58 78 C58.33 79.32 58.66 80.64 59 82 C58.0409375 82.4021875 58.0409375 82.4021875 57.0625 82.8125 C54.66868314 83.88667752 54.66868314 83.88667752 54 87 C52.68 85.68 51.36 84.36 50 83 C50.39832031 82.57589844 50.79664063 82.15179688 51.20703125 81.71484375 C51.73683594 81.12832031 52.26664063 80.54179688 52.8125 79.9375 C53.33457031 79.36902344 53.85664062 78.80054687 54.39453125 78.21484375 C58.1668845 73.01064839 59.37313336 68.32547667 59.43237305 61.96313477 C59.4425647 61.29886978 59.45275635 60.6346048 59.46325684 59.95021057 C59.49316488 57.78052087 59.502618 55.61127419 59.51171875 53.44140625 C59.52858203 51.92681944 59.54673447 50.41224649 59.56611633 48.89768982 C59.6134439 44.93088104 59.64336427 40.96412847 59.66955566 36.99713135 C59.70471381 32.22698429 59.76167707 27.45705293 59.81494904 22.68708038 C59.89326069 15.45808167 59.9440183 8.22936137 60 1 C39.87 1.33 19.74 1.66 -1 2 C-0.67 1.34 -0.34 0.68 0 0 Z " fill="#BAE7F1" transform="translate(14,0)"/>
<path d="M0 0 C1.32 0 2.64 0 4 0 C4.00142502 1.09865891 4.00285004 2.19731781 4.00431824 3.32926941 C4.02105441 13.72973426 4.0640292 24.12981115 4.13209057 34.5300703 C4.16624724 39.8758158 4.19145289 45.22127893 4.19555664 50.56713867 C4.19986393 55.7351091 4.22852699 60.90244379 4.27343178 66.07021523 C4.28632946 68.03273109 4.29074218 69.99532333 4.28615379 71.95787621 C4.26381716 84.42321028 4.596029 95.87391177 12.1875 106.4375 C18.25461795 111.96531858 24.89556387 116.06714714 33.20581055 116.20532227 C34.26668381 116.22526749 35.32755707 116.24521271 36.420578 116.26576233 C37.56440445 116.28247482 38.7082309 116.29918732 39.88671875 116.31640625 C41.05886429 116.33718735 42.23100983 116.35796844 43.43867493 116.37937927 C47.18822286 116.44483818 50.93784163 116.50374296 54.6875 116.5625 C57.22722091 116.60568868 59.76693462 116.64930308 62.30664062 116.69335938 C68.53768522 116.80051586 74.76880051 116.9022892 81 117 C81.0927541 120.20001631 81.18517908 123.40003365 81.27520752 126.60012817 C81.33081564 128.45983709 81.39076165 130.31947808 81.46746826 132.17843628 C81.77818617 139.75831791 81.32705136 145.07269203 76.68994141 151.23266602 C72.9366993 155.15779164 69.91023542 156.84507443 64.47869301 157.13422108 C63.52413404 157.13849456 62.56957508 157.14276804 61.58609009 157.14717102 C59.93746727 157.15790398 59.93746727 157.15790398 58.25553894 157.16885376 C57.05439957 157.17154266 55.85326019 157.17423157 54.61572266 157.17700195 C53.34705856 157.18357315 52.07839447 157.19014435 50.77128601 157.19691467 C46.56889093 157.21790656 42.36649568 157.22831042 38.1640625 157.23828125 C36.7154679 157.24233021 35.26687348 157.24644717 33.81827927 157.25063133 C27.01380407 157.26966992 20.20933966 157.28390543 13.40484297 157.2922433 C5.55628568 157.30202022 -2.29198994 157.3283569 -10.14044797 157.36874419 C-16.21191215 157.39891323 -22.28329558 157.41371279 -28.35483325 157.41702431 C-31.97908775 157.41937331 -35.60304086 157.42831419 -39.22721481 157.45348549 C-43.27063476 157.48111686 -47.31342522 157.47693275 -51.35693359 157.4699707 C-53.15256996 157.48918579 -53.15256996 157.48918579 -54.98448181 157.50878906 C-62.52749293 157.46137685 -66.19876241 156.69288878 -71.64453125 151.40234375 C-75.40341742 146.68802163 -76.12554115 143.74026536 -76.09765625 137.80078125 C-76.09443359 136.59228516 -76.09121094 135.38378906 -76.08789062 134.13867188 C-76.07951172 132.87603516 -76.07113281 131.61339844 -76.0625 130.3125 C-76.05573242 128.40114258 -76.05573242 128.40114258 -76.04882812 126.45117188 C-76.03702873 123.30073436 -76.02056597 120.15039051 -76 117 C-75.07491135 116.99453156 -75.07491135 116.99453156 -74.13113403 116.98895264 C-67.67363696 116.94692682 -61.21683741 116.87744194 -54.75976562 116.79248047 C-52.35456338 116.76437023 -49.94927047 116.74310658 -47.54394531 116.72900391 C-44.07309886 116.70743692 -40.60333127 116.66071413 -37.1328125 116.609375 C-35.53688766 116.60753204 -35.53688766 116.60753204 -33.90872192 116.60565186 C-24.02314716 116.4146008 -16.04659333 113.84614232 -8.7578125 107 C-2.29684357 99.64885313 -0.85951715 92.6301086 -0.79467773 83.10058594 C-0.78477814 82.20267334 -0.77487854 81.30476074 -0.76467896 80.37963867 C-0.73311589 77.41457752 -0.70832701 74.44950034 -0.68359375 71.484375 C-0.66301974 69.42742499 -0.64202315 67.37047916 -0.62062073 65.3135376 C-0.56544622 59.90160514 -0.51601653 54.48963481 -0.46777344 49.07763672 C-0.4175247 43.55432773 -0.36185623 38.03107368 -0.30664062 32.5078125 C-0.19911556 21.67192194 -0.09765801 10.83598366 0 0 Z M2 90 C0.57275594 91.20774253 0.57275594 91.20774253 0.75 94.75 C0.22326407 99.32855077 -1.57987822 100.88388904 -5 104 C-7.81757801 107.80406815 -10.49742725 111.49228174 -12 116 C-12.9075 116.144375 -13.815 116.28875 -14.75 116.4375 C-17.790284 116.90794448 -17.790284 116.90794448 -19.87640381 117.52232361 C-22.36832133 118.08284927 -24.67326902 118.16192447 -27.22753906 118.20532227 C-28.26831604 118.22526749 -29.30909302 118.24521271 -30.38140869 118.26576233 C-31.49820007 118.28247482 -32.61499146 118.29918732 -33.765625 118.31640625 C-34.91415955 118.33718735 -36.06269409 118.35796844 -37.24603271 118.37937927 C-40.91396111 118.44474993 -44.58196093 118.50370194 -48.25 118.5625 C-50.73698654 118.60569707 -53.22396587 118.64931175 -55.7109375 118.69335938 C-61.80721622 118.80041858 -67.90356595 118.90220825 -74 119 C-74.08692074 123.27070558 -74.14036515 127.54118458 -74.1875 131.8125 C-74.21263672 133.02744141 -74.23777344 134.24238281 -74.26367188 135.49414062 C-74.27333984 136.65751953 -74.28300781 137.82089844 -74.29296875 139.01953125 C-74.3086792 140.09307861 -74.32438965 141.16662598 -74.34057617 142.27270508 C-73.95300266 145.37634935 -73.41322509 146.120684 -71 148 C-67 152 -67 152 -65.7066946 153.60203171 C-63.3299752 155.5488231 -61.74238557 155.37216064 -58.69288635 155.36749268 C-57.59228882 155.37306183 -56.49169128 155.37863098 -55.35774231 155.3843689 C-54.14986557 155.37515411 -52.94198883 155.36593933 -51.69750977 155.35644531 C-50.42577911 155.35848969 -49.15404846 155.36053406 -47.84378052 155.36264038 C-44.35401752 155.36777817 -40.86454899 155.35423092 -37.37483335 155.33711338 C-33.72384942 155.3220836 -30.07286942 155.32325152 -26.42185974 155.32244873 C-20.28924531 155.31875498 -14.15674272 155.30378373 -8.02416992 155.28125 C-0.15407433 155.25239067 7.71593111 155.2420279 15.58607388 155.2375679 C22.35210753 155.23358566 29.1181216 155.22108297 35.88414121 155.20722103 C38.05879691 155.20312462 40.23345191 155.20019763 42.40810966 155.19742584 C46.46148025 155.1916162 50.51477131 155.17693551 54.56811523 155.16113281 C55.77396774 155.16001495 56.97982025 155.15889709 58.22221375 155.15774536 C59.3256311 155.15203522 60.42904846 155.14632507 61.56590271 155.14044189 C62.52435813 155.13746723 63.48281355 155.13449257 64.47031307 155.13142776 C66.84281165 155.00816659 68.78800083 154.87141472 71 154 C71.33 153.01 71.66 152.02 72 151 C72.66 151 73.32 151 74 151 C77.61651356 145.34615131 77.61208728 139.83498938 77.8125 133.25 C77.86341797 132.19683594 77.91433594 131.14367187 77.96679688 130.05859375 C78.14519337 126.02598059 78.14519337 126.02598059 78 122 C76.23201132 119.81998676 76.23201132 119.81998676 74.01124573 119.76190186 C73.19615036 119.76667542 72.38105499 119.77144897 71.54125977 119.77636719 C70.61591934 119.77586365 69.69057892 119.77536011 68.73719788 119.77484131 C67.22953102 119.78574799 67.22953102 119.78574799 65.69140625 119.796875 C63.56054081 119.78631596 61.42968105 119.77455768 59.29882812 119.76171875 C55.9415372 119.75145255 52.58503664 119.7498647 49.2277832 119.77001953 C26.60115563 119.87392672 26.60115563 119.87392672 18.83569336 114.28613281 C16.96407225 112.71309706 16.96407225 112.71309706 14 113 C13.896875 112.401875 13.79375 111.80375 13.6875 111.1875 C12.90175967 108.68741714 12.03081147 107.62464918 10 106 C9.34 106 8.68 106 8 106 C7.87753906 105.46890625 7.75507812 104.9378125 7.62890625 104.390625 C6.85865792 101.46272452 5.90419117 98.61888994 4.9375 95.75 C4.39416016 94.13351563 4.39416016 94.13351563 3.83984375 92.484375 C3.56269531 91.66453125 3.28554687 90.8446875 3 90 C2.67 90 2.34 90 2 90 Z " fill="#216F94" transform="translate(78,1)"/>
<path d="M0 0 C3.79512128 0.84593543 7.69411711 1.14092621 11.55859375 1.5703125 C11.55859375 9.4903125 11.55859375 17.4103125 11.55859375 25.5703125 C3.55859375 25.5703125 3.55859375 25.5703125 0.58984375 23.1640625 C-0.24546875 22.143125 -1.08078125 21.1221875 -1.94140625 20.0703125 C-2.38226563 19.54566406 -2.823125 19.02101562 -3.27734375 18.48046875 C-4.35301188 17.19434382 -5.40026309 15.88454239 -6.44140625 14.5703125 C-6.77140625 18.5303125 -7.10140625 22.4903125 -7.44140625 26.5703125 C-9.42140625 26.5703125 -11.40140625 26.5703125 -13.44140625 26.5703125 C-13.44140625 25.5803125 -13.44140625 24.5903125 -13.44140625 23.5703125 C-14.26640625 23.9003125 -15.09140625 24.2303125 -15.94140625 24.5703125 C-20.18993199 25.784177 -23.032297 25.99700049 -27.44140625 25.5703125 C-29.66796875 24.15625 -29.66796875 24.15625 -31.44140625 21.5703125 C-31.92866627 18.30604806 -31.81779384 15.11125094 -31.69140625 11.8203125 C-31.67335938 10.93214844 -31.6553125 10.04398438 -31.63671875 9.12890625 C-31.58967999 6.94160402 -31.52397634 4.75651434 -31.44140625 2.5703125 C-29.79140625 2.5703125 -28.14140625 2.5703125 -26.44140625 2.5703125 C-26.11140625 8.1803125 -25.78140625 13.7903125 -25.44140625 19.5703125 C-24.12140625 19.5703125 -22.80140625 19.5703125 -21.44140625 19.5703125 C-20.94640625 10.6603125 -20.94640625 10.6603125 -20.44140625 1.5703125 C-17.12109375 1.08203125 -13.80078125 0.59375 -10.48046875 0.10546875 C-3.69196614 -1.08993595 -3.69196614 -1.08993595 0 0 Z " fill="#C6EFF6" transform="translate(146.44140625,163.4296875)"/>
<path d="M0 0 C17.49 0 34.98 0 53 0 C53 0.33 53 0.66 53 1 C36.17 1 19.34 1 2 1 C2.103125 5.33125 2.20625 9.6625 2.3125 14.125 C2.33739502 15.47996582 2.36229004 16.83493164 2.38793945 18.23095703 C2.42105225 19.31231934 2.45416504 20.39368164 2.48828125 21.5078125 C2.51446533 22.60754395 2.54064941 23.70727539 2.56762695 24.84033203 C3.23778903 29.7376994 5.09712168 33.78015187 9.0625 36.8125 C12.89060945 39.6632198 14.48170818 40.12549244 19.16667175 40.13371277 C20.80900284 40.14011024 20.80900284 40.14011024 22.48451233 40.14663696 C24.29465065 40.14595718 24.29465065 40.14595718 26.14135742 40.14526367 C27.40812317 40.14862228 28.67488892 40.1519809 29.9800415 40.15544128 C33.46169181 40.16429308 36.94331755 40.16661998 40.42497802 40.16725707 C43.33225525 40.16820596 46.23952674 40.17188431 49.14680177 40.17542917 C56.00973603 40.18357937 62.87265716 40.18601301 69.7355957 40.18530273 C76.8087297 40.18470283 83.88178722 40.1952359 90.95490187 40.2110464 C97.02973958 40.22414029 103.10455237 40.2294858 109.17940408 40.22884732 C112.80641477 40.22859274 116.43335762 40.23142175 120.06035423 40.24202538 C124.1108455 40.25354268 128.16116676 40.24894822 132.21166992 40.24291992 C133.40830765 40.24853943 134.60494537 40.25415894 135.83784485 40.25994873 C141.61659367 40.23809193 146.55218225 39.98653976 152 38 C149.375 41.875 149.375 41.875 146 43 C143.51184673 43.1545115 141.04727567 43.25665732 138.55664062 43.31420898 C137.79747345 43.33486734 137.03830627 43.3555257 136.25613403 43.37681007 C133.72294766 43.44320484 131.18966259 43.50151733 128.65625 43.55859375 C127.77654037 43.57965117 126.89683075 43.60070858 125.99046326 43.6224041 C105.12328152 44.11511754 84.25881947 44.11824218 63.38708496 44.06866455 C58.46379049 44.05815225 53.54049013 44.05380935 48.6171875 44.04882812 C39.07811061 44.03832719 29.5390582 44.02142702 20 44 C19.34 46.31 18.68 48.62 18 51 C19.65 50.34 21.3 49.68 23 49 C23 51.64 23 54.28 23 57 C21.85373678 56.02133662 20.70800212 55.04205413 19.5625 54.0625 C18.92441406 53.51722656 18.28632813 52.97195312 17.62890625 52.41015625 C16.73008851 51.63204305 15.84063472 50.84063472 15 50 C10.05 49.67 5.1 49.34 0 49 C0 32.83 0 16.66 0 0 Z " fill="#F4FDFC" transform="translate(0,117)"/>
<path d="M0 0 C1.77149666 0.0001133 1.77149666 0.0001133 3.57878113 0.00022888 C4.85385025 0.00539017 6.12891937 0.01055145 7.44262695 0.01586914 C9.40060966 0.01799156 9.40060966 0.01799156 11.39814758 0.02015686 C14.86530477 0.02397159 18.33241994 0.03379295 21.79956055 0.04486084 C25.33878003 0.05509741 28.87800631 0.05965929 32.41723633 0.06469727 C39.35931086 0.07541616 46.30135751 0.09248005 53.2434082 0.11352539 C53.35974136 8.80680405 53.44834411 17.49981089 53.50246906 26.19370079 C53.5284589 30.2315476 53.56365925 34.26885819 53.62060547 38.30639648 C53.67530904 42.20977603 53.70490837 46.11264293 53.71779442 50.0163765 C53.72696619 51.49863368 53.74487538 52.98086578 53.77205849 54.46290207 C53.92683567 63.25878748 53.57458023 70.7439521 48.2434082 78.11352539 C46.33289728 80.08466258 44.50841412 81.53328871 42.2434082 83.11352539 C42.2434082 81.79352539 42.2434082 80.47352539 42.2434082 79.11352539 C43.2024707 78.71133789 43.2024707 78.71133789 44.1809082 78.30102539 C46.57472507 77.22684787 46.57472507 77.22684787 47.2434082 74.11352539 C47.9034082 74.11352539 48.5634082 74.11352539 49.2434082 74.11352539 C49.2434082 72.46352539 49.2434082 70.81352539 49.2434082 69.11352539 C49.9034082 69.11352539 50.5634082 69.11352539 51.2434082 69.11352539 C51.5734082 47.00352539 51.9034082 24.89352539 52.2434082 2.11352539 C32.4434082 2.44352539 12.6434082 2.77352539 -7.7565918 3.11352539 C-7.7565918 3.77352539 -7.7565918 4.43352539 -7.7565918 5.11352539 C-9.0765918 5.44352539 -10.3965918 5.77352539 -11.7565918 6.11352539 C-12.0453418 7.16540039 -12.3340918 8.21727539 -12.6315918 9.30102539 C-13.7565918 13.11352539 -13.7565918 13.11352539 -14.80697632 15.42045593 C-15.97463423 18.73188455 -16.03692976 21.50433646 -16.07543945 25.01513672 C-16.08548508 25.68886322 -16.0955307 26.36258972 -16.10588074 27.05673218 C-16.13661614 29.26966549 -16.15372058 31.48247835 -16.1706543 33.69555664 C-16.18937375 35.23541798 -16.20894774 36.77526915 -16.2293396 38.31510925 C-16.28058485 42.35755404 -16.32025111 46.40003205 -16.35748291 50.44262695 C-16.39757039 54.57194182 -16.44864105 58.70111937 -16.4987793 62.83032227 C-16.59544846 70.92462937 -16.67988188 79.01900464 -16.7565918 87.11352539 C-9.74556832 86.99565193 -2.7346931 86.87082671 4.27612305 86.74121094 C6.66020922 86.69794935 9.04432463 86.65626819 11.4284668 86.61621094 C14.85905763 86.55829559 18.28950253 86.49466249 21.7199707 86.42993164 C23.31405258 86.4048629 23.31405258 86.4048629 24.94033813 86.37928772 C29.80340667 86.2823494 34.46349173 86.12038935 39.2434082 85.11352539 C35.32821668 89.02871691 30.24635225 89.23344696 24.95068359 89.34057617 C22.91411643 89.3402624 20.8775305 89.32913512 18.84106445 89.30883789 C17.76336288 89.306008 16.68566132 89.3031781 15.57530212 89.30026245 C12.15205522 89.28911732 8.7290753 89.26402295 5.3059082 89.23852539 C2.97713595 89.22848828 0.64835958 89.21936371 -1.68041992 89.21118164 C-7.37256745 89.18919655 -13.06456054 89.15577552 -18.7565918 89.11352539 C-18.84936074 79.17767702 -18.92039178 69.24193206 -18.96384048 59.30573845 C-18.98469605 54.69170688 -19.01297642 50.0779721 -19.05834961 45.46411133 C-19.10188007 41.00964576 -19.12574418 36.55546527 -19.13610077 32.10080338 C-19.14347924 30.40315388 -19.15788786 28.7055196 -19.17951202 27.00799179 C-19.2086426 24.62599996 -19.2125439 22.24517903 -19.21069336 19.86303711 C-19.22507446 19.1646019 -19.23945557 18.46616669 -19.25427246 17.74656677 C-19.20608585 11.99660701 -17.09555769 8.5211162 -13.15893555 4.46899414 C-8.60894329 0.84113365 -5.73217161 -0.01222211 0 0 Z " fill="#287397" transform="translate(20.756591796875,0.886474609375)"/>
<path d="M0 0 C0.33 0 0.66 0 1 0 C1.09290603 11.69215072 1.16386947 23.38421281 1.20724869 35.07665825 C1.22807436 40.50664231 1.25630013 45.93637279 1.30175781 51.36621094 C1.34539476 56.61172077 1.36917482 61.85698753 1.37950897 67.10266495 C1.38686837 69.09843901 1.40123927 71.09420059 1.42292023 73.08987045 C1.57535306 87.70960899 0.91097775 97.82412381 -9.62109375 108.859375 C-14.02704324 112.82400607 -17.93793431 115 -24 115 C-23.67 113.68 -23.34 112.36 -23 111 C-22.0925 111.020625 -21.185 111.04125 -20.25 111.0625 C-17.57327412 111.0110245 -15.53011948 110.7784983 -13 110 C-13 109.01 -13 108.02 -13 107 C-12.01 106.505 -12.01 106.505 -11 106 C-10.67 105.01 -10.34 104.02 -10 103 C-9.01 103 -8.02 103 -7 103 C-6.87625 102.360625 -6.7525 101.72125 -6.625 101.0625 C-6.41875 100.381875 -6.2125 99.70125 -6 99 C-5.01 98.505 -5.01 98.505 -4 98 C-3.69924794 96.06182005 -3.4122039 94.11978045 -3.21875 92.16796875 C-3.03349911 90.33200009 -2.74642884 88.50674759 -2.4375 86.6875 C-1.85537315 81.78100223 -1.91969228 76.93446313 -2 72 C-2.33 72.99 -2.66 73.98 -3 75 C-3.99 75.495 -3.99 75.495 -5 76 C-4.67 77.32 -4.34 78.64 -4 80 C-4.639375 80.268125 -5.27875 80.53625 -5.9375 80.8125 C-8.33131686 81.88667752 -8.33131686 81.88667752 -9 85 C-10.32 83.68 -11.64 82.36 -13 81 C-12.0925 80.05125 -11.185 79.1025 -10.25 78.125 C-3.59138445 70.26642344 -2.40774717 61.9267701 -2.42578125 51.90234375 C-2.40453438 50.22912804 -2.40453438 50.22912804 -2.38285828 48.52210999 C-2.34124001 44.99380586 -2.32575875 41.46601421 -2.3125 37.9375 C-2.28345989 34.37708672 -2.24901416 30.81680259 -2.21000671 27.25648499 C-2.18747725 25.04856742 -2.17168357 22.84056917 -2.16316223 20.6325531 C-2.15261055 19.14949425 -2.15261055 19.14949425 -2.1418457 17.63647461 C-2.13662651 16.32603432 -2.13662651 16.32603432 -2.13130188 14.98912048 C-2 13 -2 13 -1 12 C-0.76572222 9.98405418 -0.58663876 7.961526 -0.4375 5.9375 C-0.35371094 4.83277344 -0.26992187 3.72804688 -0.18359375 2.58984375 C-0.09271484 1.30787109 -0.09271484 1.30787109 0 0 Z " fill="#D7F9FC" transform="translate(77,2)"/>
<path d="M0 0 C1.32 0 2.64 0 4 0 C4 30.03 4 60.06 4 91 C2.02 91.495 2.02 91.495 0 92 C0 61.64 0 31.28 0 0 Z " fill="#216C8F" transform="translate(78,1)"/>
<path d="M0 0 C4.62 0 9.24 0 14 0 C13.89261661 11.43929473 13.78000745 22.87852479 13.66066074 34.31770134 C13.60541346 39.62893443 13.55199057 44.940173 13.50268555 50.25146484 C13.45506864 55.37376946 13.40272681 60.49600568 13.34705925 65.61822891 C13.32662357 67.57590159 13.30791252 69.53359303 13.29092598 71.49129868 C13.26690882 74.22587643 13.23685063 76.96032423 13.20532227 79.69482422 C13.1995668 80.51049866 13.19381134 81.3261731 13.18788147 82.16656494 C13.11405216 87.77189568 13.11405216 87.77189568 12 90 C11.34 90 10.68 90 10 90 C9.99635437 89.03613373 9.99270874 88.07226746 9.98895264 87.07919312 C9.95197752 77.98628421 9.89417742 68.89371318 9.81609726 59.80106163 C9.77662353 55.12663768 9.74443457 50.45240209 9.72900391 45.77783203 C9.71383659 41.26479185 9.67938988 36.75226948 9.63169098 32.23945999 C9.61687793 30.51957327 9.60895903 28.79961262 9.60811615 27.07966232 C9.60574444 24.66631918 9.57865056 22.25440471 9.54589844 19.84130859 C9.5509288 19.13352264 9.55595917 18.42573669 9.56114197 17.69650269 C9.45661022 12.70349448 8.14042336 9.84207598 5 6 C3.34338239 4.98343919 1.67888441 3.97934924 0 3 C0 2.01 0 1.02 0 0 Z " fill="#D6F0F5" transform="translate(148,0)"/>
<path d="M0 0 C-4.75 5.875 -4.75 5.875 -7 7 C-9.6723621 7.13415472 -12.32250488 7.04318541 -15 7 C-15 7.66 -15 8.32 -15 9 C-12.36 9 -9.72 9 -7 9 C-7 13.62 -7 18.24 -7 23 C-11.95 23 -16.9 23 -22 23 C-23.02821908 7.13876871 -23.02821908 7.13876871 -20 2.5 C-15.06250242 -2.13643066 -6.28296706 -0.47010324 0 0 Z " fill="#1B75A0" transform="translate(93,166)"/>
<path d="M0 0 C5 0 5 0 7.01953125 1.53125 C7.61121094 2.1809375 8.20289063 2.830625 8.8125 3.5 C9.41707031 4.1496875 10.02164062 4.799375 10.64453125 5.46875 C11.09183594 5.9740625 11.53914063 6.479375 12 7 C12.33 4.69 12.66 2.38 13 0 C14.65 0 16.3 0 18 0 C18 7.26 18 14.52 18 22 C14.5927781 20.29638905 12.51964294 18.86767864 9.75 16.375 C9.04359375 15.74335938 8.3371875 15.11171875 7.609375 14.4609375 C7.07828125 13.97882813 6.5471875 13.49671875 6 13 C5.67 16.3 5.34 19.6 5 23 C3.35 23 1.7 23 0 23 C0 15.41 0 7.82 0 0 Z " fill="#1476A3" transform="translate(10,166)"/>
<path d="M0 0 C1.98 0 3.96 0 6 0 C8.375 2.5 8.375 2.5 10 5 C10.33 3.35 10.66 1.7 11 0 C12.98 0 14.96 0 17 0 C17 7.59 17 15.18 17 23 C13.33333333 19.33333333 9.66666667 15.66666667 6 12 C5.67 15.63 5.34 19.26 5 23 C3.35 23 1.7 23 0 23 C0 15.41 0 7.82 0 0 Z " fill="#1A6C95" transform="translate(134,166)"/>
<path d="M0 0 C7.55435107 -0.09301622 15.10864214 -0.16392438 22.66343689 -0.20724869 C26.17215319 -0.22805108 29.68047533 -0.25623163 33.18896484 -0.30175781 C37.23017993 -0.35386357 41.27098629 -0.37300577 45.3125 -0.390625 C46.5617627 -0.41127014 47.81102539 -0.43191528 49.09814453 -0.45318604 C56.231023 -0.45501136 60.96370756 0.09679313 67 4 C69.75728395 6.82798353 71.41661146 9.06212739 72 13 C70.68 12.67 69.36 12.34 68 12 C68 11.34 68 10.68 68 10 C67.01 9.505 67.01 9.505 66 9 C65.505 7.515 65.505 7.515 65 6 C59.33463754 1.82516596 52.67057378 2.52362635 45.9453125 2.48828125 C44.68862762 2.47033005 43.43194275 2.45237885 42.13717651 2.43388367 C38.81304376 2.38899089 35.48927661 2.3566396 32.16497803 2.33044434 C28.76610078 2.30054666 25.36745402 2.25404827 21.96875 2.20898438 C15.31260674 2.12408366 8.65644804 2.05572151 2 2 C2.10771813 10.50178591 2.22039458 19.00348569 2.33933926 27.50512123 C2.39442005 31.45309391 2.44781557 35.40107417 2.49731445 39.34912109 C2.54517789 43.161718 2.59752725 46.97422971 2.65294075 50.78672409 C2.67326514 52.23869062 2.69199396 53.69068043 2.70907402 55.14268875 C2.73333913 57.1819623 2.76336118 59.22107809 2.79467773 61.26025391 C2.81799416 62.99899277 2.81799416 62.99899277 2.84178162 64.77285767 C2.99613787 67.92122503 3.4153522 70.90523232 4 74 C0.08129281 69.22939994 -0.12516018 65.58393525 -0.11352539 59.48730469 C-0.11367142 58.84298492 -0.11381744 58.19866516 -0.1139679 57.53482056 C-0.1132735 55.41380397 -0.10550336 53.29287617 -0.09765625 51.171875 C-0.09579039 49.69785612 -0.09436728 48.22383662 -0.09336853 46.74981689 C-0.08955661 42.87661008 -0.07973765 39.00344097 -0.06866455 35.13024902 C-0.05842193 31.17537954 -0.0538648 27.22050394 -0.04882812 23.265625 C-0.03811418 15.51039951 -0.02105369 7.75520504 0 0 Z " fill="#226E94" transform="translate(86,1)"/>
<path d="M0 0 C0.99 0.495 0.99 0.495 2 1 C-0.89338503 4.16894551 -2.94205128 4.93507736 -7.29734802 5.2023468 C-8.68434029 5.24318036 -10.07149839 5.27858924 -11.45874023 5.30981445 C-12.21908381 5.3301367 -12.97942738 5.35045895 -13.76281166 5.37139702 C-16.29880124 5.43683563 -18.83488801 5.49437624 -21.37109375 5.55078125 C-22.69193372 5.58200294 -22.69193372 5.58200294 -24.03945732 5.61385536 C-43.81720112 6.0767939 -63.59368909 6.18753813 -83.3762207 6.18530273 C-88.20371938 6.18519857 -93.03107922 6.19917786 -97.85854435 6.21607494 C-101.6409522 6.22717165 -105.42332514 6.22922315 -109.2057476 6.22869301 C-110.98905379 6.22986394 -112.77236115 6.23423522 -114.55565071 6.24202538 C-117.01905807 6.25183753 -119.48214398 6.24894951 -121.94555664 6.24291992 C-122.66171143 6.24853943 -123.37786621 6.25415894 -124.11572266 6.25994873 C-128.80211993 6.23084588 -132.59388029 5.44805037 -137 4 C-136.67 3.34 -136.34 2.68 -136 2 C-134.99420505 2.00276538 -134.99420505 2.00276538 -133.96809101 2.00558662 C-117.65147756 2.04975823 -101.33488306 2.08285295 -85.01822376 2.10362434 C-77.12760585 2.11393626 -69.23702784 2.12799497 -61.34643555 2.15087891 C-54.46887663 2.17081538 -47.59134661 2.18371706 -40.7137596 2.18817699 C-37.07224206 2.19078393 -33.43080721 2.19690962 -29.78931618 2.21146011 C-25.72384601 2.22757291 -21.65851957 2.22797952 -17.59301758 2.22705078 C-15.78256203 2.23783661 -15.78256203 2.23783661 -13.93553162 2.24884033 C-12.27184036 2.24471634 -12.27184036 2.24471634 -10.57453918 2.24050903 C-9.6131091 2.24235262 -8.65167902 2.24419621 -7.66111469 2.24609566 C-4.78953579 1.9805366 -2.65501561 1.07580462 0 0 Z " fill="#D8F8FE" transform="translate(150,155)"/>
<path d="M0 0 C1.65 0 3.3 0 5 0 C5.33 5.61 5.66 11.22 6 17 C7.32 17 8.64 17 10 17 C10.33 11.39 10.66 5.78 11 0 C12.98 0 14.96 0 17 0 C17.08126109 2.72977064 17.14061663 5.4571017 17.1875 8.1875 C17.21263672 8.95642578 17.23777344 9.72535156 17.26367188 10.51757812 C17.32377188 15.18534511 17.04102023 18.20792877 14 22 C10.87057535 23.56471233 7.38917777 23.69701958 4 23 C1.7578125 21.58984375 1.7578125 21.58984375 0 19 C-0.48573836 15.7354303 -0.37639229 12.54106086 -0.25 9.25 C-0.23195313 8.36183594 -0.21390625 7.47367188 -0.1953125 6.55859375 C-0.14827374 4.37129152 -0.08257009 2.18620184 0 0 Z " fill="#277597" transform="translate(115,166)"/>
<path d="M0 0 C4.62 0 9.24 0 14 0 C13.278125 0.70125 12.55625 1.4025 11.8125 2.125 C5.9918847 7.9456153 2.86250838 11.89455765 2.79467773 20.29541016 C2.78477814 21.04672714 2.77487854 21.79804413 2.76467896 22.5721283 C2.73303477 25.06107406 2.70829505 27.55003893 2.68359375 30.0390625 C2.66302674 31.76256818 2.64203033 33.48606879 2.62062073 35.20956421 C2.56537393 39.7502024 2.51597617 44.2908863 2.46777344 48.831604 C2.41757744 53.46329832 2.36188146 58.09492609 2.30664062 62.7265625 C2.19902716 71.81765151 2.09758928 80.90879825 2 90 C1.34 90 0.68 90 0 90 C0 60.3 0 30.6 0 0 Z " fill="#D7F7FE" transform="translate(0,0)"/>
<path d="M0 0 C0.33 0 0.66 0 1 0 C1 24.75 1 49.5 1 75 C-11.375 75.12375 -11.375 75.12375 -24 75.25 C-26.58972656 75.28641602 -29.17945313 75.32283203 -31.84765625 75.36035156 C-33.91926242 75.37204306 -35.99087783 75.38223379 -38.0625 75.390625 C-39.12275391 75.41108887 -40.18300781 75.43155273 -41.27539062 75.45263672 C-50.55866219 75.4569747 -56.65425522 72.73619635 -63.58984375 66.52734375 C-65.41936213 64.54578783 -66.31299428 62.59535495 -67 60 C-64.5625 60.75 -64.5625 60.75 -62 62 C-61.1875 64.125 -61.1875 64.125 -61 66 C-60.01 66 -59.02 66 -58 66 C-57.608125 66.45375 -57.21625 66.9075 -56.8125 67.375 C-53.94848345 69.94273898 -50.72784358 70.20554153 -47 71 C-47 71.66 -47 72.32 -47 73 C-31.49 73 -15.98 73 0 73 C0 48.91 0 24.82 0 0 Z " fill="#1E6E92" transform="translate(157,15)"/>
<path d="M0 0 C-1.56377499 3.32302186 -3.21353151 5.56184007 -6 8 C-6.66 8 -7.32 8 -8 8 C-8 12.95 -8 17.9 -8 23 C-10.31 23 -12.62 23 -15 23 C-15 18.05 -15 13.1 -15 8 C-17.31 8 -19.62 8 -22 8 C-17.64623721 -2.15877984 -9.53555643 -0.815392 0 0 Z " fill="#146D9A" transform="translate(74,166)"/>
<path d="M0 0 C1.49080078 0.02707031 1.49080078 0.02707031 3.01171875 0.0546875 C3.77097656 0.07789063 4.53023437 0.10109375 5.3125 0.125 C0.49473235 7.79242597 0.49473235 7.79242597 -4.6875 9.125 C-4.73004356 11.12454746 -4.72830783 13.12541636 -4.6875 15.125 C-3.19006881 16.62243119 -1.69925761 16.45702693 0.375 16.6875 C1.674375 16.831875 2.97375 16.97625 4.3125 17.125 C4.3125 19.105 4.3125 21.085 4.3125 23.125 C-5.37790885 24.04143096 -5.37790885 24.04143096 -8.49609375 21.859375 C-12.255764 17.26298289 -13.17636669 13.99140026 -12.6875 8.125 C-9.40194398 2.12036314 -6.8651995 -0.16153411 0 0 Z " fill="#257294" transform="translate(50.6875,165.875)"/>
<path d="M0 0 C19.47 0 38.94 0 59 0 C59.20054405 16.56939479 59.20054405 16.56939479 59.24414062 23.68359375 C59.27392197 28.52030182 59.30898461 33.35653241 59.37719727 38.19287109 C59.43190084 42.09625064 59.46150017 45.99911754 59.47438622 49.9028511 C59.48355799 51.38510829 59.50146717 52.86734039 59.52865028 54.34937668 C59.68342747 63.14526209 59.33117203 70.63042671 54 78 C52.08948907 79.97113719 50.26500592 81.41976331 48 83 C48 81.68 48 80.36 48 79 C48.9590625 78.5978125 48.9590625 78.5978125 49.9375 78.1875 C52.33131686 77.11332248 52.33131686 77.11332248 53 74 C53.66 74 54.32 74 55 74 C55 72.35 55 70.7 55 69 C55.66 69 56.32 69 57 69 C57.33 46.89 57.66 24.78 58 2 C38.53 2.33 19.06 2.66 -1 3 C-0.67 2.01 -0.34 1.02 0 0 Z " fill="#216F95" transform="translate(15,1)"/>
<path d="M0 0 C0 5.28 0 10.56 0 16 C1.65 16 3.3 16 5 16 C5 17.98 5 19.96 5 22 C0.71 22 -3.58 22 -8 22 C-8.91493117 7.73385104 -8.91493117 7.73385104 -6.734375 3.6015625 C-4.6667502 1.54397471 -3.01772272 0 0 0 Z " fill="#1D749A" transform="translate(96,167)"/>
<path d="M0 0 C1.78947815 2.68421723 2.73092143 4.81629723 3.8125 7.8125 C7.31520846 16.58837684 12.80315286 20.73486089 21 25 C21.99 25.33 22.98 25.66 24 26 C24 26.66 24 27.32 24 28 C40.83 28.33 57.66 28.66 75 29 C75 49 75 49 73 58 C72.01 58.495 72.01 58.495 71 59 C71.23662354 58.17665161 71.23662354 58.17665161 71.47802734 57.33666992 C72.50330601 52.74689343 72.43106359 47.99834587 72.625 43.3125 C72.70234375 41.70665039 72.70234375 41.70665039 72.78125 40.06835938 C72.82507813 39.05193359 72.86890625 38.03550781 72.9140625 36.98828125 C72.9548291 36.05540283 72.9955957 35.12252441 73.03759766 34.16137695 C73.25065978 32.01909264 73.25065978 32.01909264 72 31 C70.55400309 30.90880303 69.10364798 30.88536695 67.65478516 30.88989258 C66.7293692 30.88931351 65.80395325 30.88873444 64.85049438 30.88813782 C63.3350856 30.89130257 63.3350856 30.89130257 61.7890625 30.89453125 C59.6549379 30.88106109 57.52082265 30.8660354 55.38671875 30.84960938 C52.01839105 30.82688672 48.65110792 30.81240274 45.28271484 30.82495117 C22.14132991 30.88825379 22.14132991 30.88825379 13 24 C12.01 23.67 11.02 23.34 10 23 C8.98133771 21.34467377 7.98189187 19.67739862 7 18 C6.01 17.34 5.02 16.68 4 16 C2.578125 13.06640625 2.578125 13.06640625 1.25 9.5625 C0.80140625 8.40878906 0.3528125 7.25507812 -0.109375 6.06640625 C-1 3 -1 3 0 0 Z " fill="#0E73A4" transform="translate(82,91)"/>
<path d="M0 0 C0.33 0 0.66 0 1 0 C1.01458252 0.55985596 1.02916504 1.11971191 1.04418945 1.6965332 C1.11871352 4.23588137 1.21535581 6.77392078 1.3125 9.3125 C1.33505859 10.19357422 1.35761719 11.07464844 1.38085938 11.98242188 C1.4340332 13.25375977 1.4340332 13.25375977 1.48828125 14.55078125 C1.51446533 15.33106689 1.54064941 16.11135254 1.56762695 16.9152832 C2.1024665 19.49404936 2.92611563 20.41526285 5 22 C7.51289675 22.36213568 7.51289675 22.36213568 10.1875 22.1875 C11.08855469 22.16042969 11.98960938 22.13335937 12.91796875 22.10546875 C13.60503906 22.07066406 14.29210937 22.03585938 15 22 C15 22.66 15 23.32 15 24 C13.06372231 24.10807131 11.12572244 24.1856225 9.1875 24.25 C7.56908203 24.31960937 7.56908203 24.31960937 5.91796875 24.390625 C3 24 3 24 1.1875 22.15625 C-0.0942959 19.8287785 -1.09790401 17.49811198 -2 15 C-6.455 15.495 -6.455 15.495 -11 16 C-11.33 18.31 -11.66 20.62 -12 23 C-12.33 23 -12.66 23 -13 23 C-13 21.02 -13 19.04 -13 17 C-14.65 17 -16.3 17 -18 17 C-18 12.05 -18 7.1 -18 2 C-17.67 2 -17.34 2 -17 2 C-16.67 5.96 -16.34 9.92 -16 14 C-15.34 14 -14.68 14 -14 14 C-13.34 12.02 -12.68 10.04 -12 8 C-8.37 8 -4.74 8 -1 8 C-0.67 5.36 -0.34 2.72 0 0 Z " fill="#CAECF3" transform="translate(114,166)"/>
<path d="M0 0 C17.49 0 34.98 0 53 0 C53 8.91 53 17.82 53 27 C52.34 27 51.68 27 51 27 C51 18.75 51 10.5 51 2 C47.56980469 2.02320312 44.13960937 2.04640625 40.60546875 2.0703125 C37.28931041 2.08590262 33.97315612 2.09805102 30.65698242 2.10986328 C28.3493467 2.11993107 26.04172375 2.13358623 23.73413086 2.15087891 C20.42037809 2.17509287 17.10679374 2.18647526 13.79296875 2.1953125 C12.7585112 2.20563507 11.72405365 2.21595764 10.6582489 2.22659302 C9.6974794 2.22674408 8.7367099 2.22689514 7.74682617 2.22705078 C6.90077316 2.231492 6.05472015 2.23593323 5.18302917 2.24050903 C3 2 3 2 0 0 Z " fill="#4388A4" transform="translate(106,118)"/>
<path d="M0 0 C0.66 0 1.32 0 2 0 C2 2.31 2 4.62 2 7 C1.38125 7.226875 0.7625 7.45375 0.125 7.6875 C-2.66573568 9.41118969 -2.83221498 10.96808408 -4 14 C-5.375 16.5703125 -5.375 16.5703125 -7 19.125 C-7.515625 19.97320312 -8.03125 20.82140625 -8.5625 21.6953125 C-14.4142387 27.22820646 -22.69291801 27.33122873 -30.36611938 27.18742371 C-32.06047623 27.13138725 -32.06047623 27.13138725 -33.7890625 27.07421875 C-34.97349945 27.04777786 -36.1579364 27.02133698 -37.37826538 26.99409485 C-41.12772643 26.90695964 -44.87614988 26.79759025 -48.625 26.6875 C-51.18095347 26.6241761 -53.73694355 26.56231235 -56.29296875 26.50195312 C-62.52916879 26.35151995 -68.76467138 26.18287265 -75 26 C-75 25.67 -75 25.34 -75 25 C-74.38327423 24.99635437 -73.76654846 24.99270874 -73.13113403 24.98895264 C-66.67363696 24.94692682 -60.21683741 24.87744194 -53.75976562 24.79248047 C-51.35456338 24.76437023 -48.94927047 24.74310658 -46.54394531 24.72900391 C-43.07309886 24.70743692 -39.60333127 24.66071413 -36.1328125 24.609375 C-34.53688766 24.60753204 -34.53688766 24.60753204 -32.90872192 24.60565186 C-23.02314716 24.4146008 -15.04659333 21.84614232 -7.7578125 15 C-3.92156117 10.63519849 -1.21990204 5.68859582 0 0 Z " fill="#3780A2" transform="translate(77,93)"/>
<path d="M0 0 C17.49 0 34.98 0 53 0 C53 0.33 53 0.66 53 1 C36.17 1 19.34 1 2 1 C2.103125 5.33125 2.20625 9.6625 2.3125 14.125 C2.33739502 15.47996582 2.36229004 16.83493164 2.38793945 18.23095703 C2.42105225 19.31231934 2.45416504 20.39368164 2.48828125 21.5078125 C2.51446533 22.60754395 2.54064941 23.70727539 2.56762695 24.84033203 C3.22181152 29.62094 5.35567583 33.03351375 8 37 C2.25 36.25 2.25 36.25 0 34 C-0.17496218 31.41996628 -0.23176368 28.94603704 -0.1953125 26.3671875 C-0.19329834 25.70082275 -0.19128418 25.03445801 -0.18920898 24.34790039 C-0.17873888 21.85686365 -0.15081625 19.36592497 -0.125 16.875 C-0.08375 11.30625 -0.0425 5.7375 0 0 Z " fill="#DDFAFD" transform="translate(0,117)"/>
<path d="M0 0 C0.33 0 0.66 0 1 0 C1.33 22.11 1.66 44.22 2 67 C13.199375 67.0309375 13.199375 67.0309375 24.625 67.0625 C28.14534912 67.07615601 28.14534912 67.07615601 31.73681641 67.09008789 C33.60839786 67.09301002 35.47997994 67.09555788 37.3515625 67.09765625 C38.79535278 67.1053302 38.79535278 67.1053302 40.26831055 67.11315918 C44.96365396 67.11376723 49.38191749 66.9770321 54 66 C54 65.34 54 64.68 54 64 C56.475 63.505 56.475 63.505 59 63 C58.505 64.98 58.505 64.98 58 67 C51.32084076 69.01911822 45.2329616 69.2637943 38.28125 69.1953125 C37.30639648 69.19329834 36.33154297 69.19128418 35.32714844 69.18920898 C31.71805045 69.17881865 28.10902003 69.15089658 24.5 69.125 C16.415 69.08375 8.33 69.0425 0 69 C0 46.23 0 23.46 0 0 Z " fill="#0B71A5" transform="translate(4,19)"/>
<path d="M0 0 C3.85986047 0.77197209 7.6995208 0.92428396 11.625 1.125 C12.80739258 1.18977539 12.80739258 1.18977539 14.01367188 1.25585938 C15.94644215 1.36128321 17.87945026 1.46233094 19.8125 1.5625 C19.8125 1.8925 19.8125 2.2225 19.8125 2.5625 C18.78769531 2.55347656 17.76289062 2.54445312 16.70703125 2.53515625 C9.27267033 2.37190038 9.27267033 2.37190038 2.703125 5.1875 C1.18118421 7.28766936 1.18118421 7.28766936 -0.1875 10.5625 C1.1325 11.2225 2.4525 11.8825 3.8125 12.5625 C3.8125 14.5425 3.8125 16.5225 3.8125 18.5625 C-2.57825249 18.92424071 -2.57825249 18.92424071 -5.1875 17.375 C-6.1875 15.5625 -6.1875 15.5625 -6.1875 13.1875 C-4.88306926 9.76336932 -2.88567253 7.99743619 -0.1875 5.5625 C0.4725 4.9025 1.1325 4.2425 1.8125 3.5625 C-5.09038609 2.98848847 -5.09038609 2.98848847 -11.3125 5.5625 C-11.93125 6.2225 -12.55 6.8825 -13.1875 7.5625 C-12.8575 5.9125 -12.5275 4.2625 -12.1875 2.5625 C-11.1975 2.5625 -10.2075 2.5625 -9.1875 2.5625 C-9.1875 1.9025 -9.1875 1.2425 -9.1875 0.5625 C-2.8125 -0.5625 -2.8125 -0.5625 0 0 Z " fill="#D2F5FA" transform="translate(53.1875,163.4375)"/>
<path d="M0 0 C0.99 0.33 1.98 0.66 3 1 C2.34 1 1.68 1 1 1 C0.83312552 3.41645782 0.83312552 3.41645782 1 6 C3.76223278 8.76223278 6.20706617 8.57856291 10 9 C9.73343428 6.06556598 9.73343428 6.06556598 9 3 C8.01 2.34 7.02 1.68 6 1 C7.98 1 9.96 1 12 1 C12 5.95 12 10.9 12 16 C14.31 16 16.62 16 19 16 C19 11.05 19 6.1 19 1 C19.33 1 19.66 1 20 1 C20.495 8.92 20.495 8.92 21 17 C18.02129623 17.99290126 16.40817115 18.05524548 13.33203125 17.87890625 C11.99301758 17.80639648 11.99301758 17.80639648 10.62695312 17.73242188 C9.69818359 17.67634766 8.76941406 17.62027344 7.8125 17.5625 C6.87212891 17.51029297 5.93175781 17.45808594 4.96289062 17.40429688 C2.64158499 17.27468082 0.32071591 17.13971819 -2 17 C-2 16.67 -2 16.34 -2 16 C1.3 16 4.6 16 8 16 C8 14.02 8 12.04 8 10 C6.081875 10.061875 6.081875 10.061875 4.125 10.125 C1.9453125 10.1953125 1.9453125 10.1953125 0 10 C-2 8 -2 8 -2.25 5 C-2 2 -2 2 0 0 Z " fill="#B8DFEB" transform="translate(47,173)"/>
<path d="M0 0 C1.65 0 3.3 0 5 0 C5 7.59 5 15.18 5 23 C3.35 23 1.7 23 0 23 C0 15.41 0 7.82 0 0 Z " fill="#1E6E90" transform="translate(153,166)"/>
<path d="M0 0 C2.75 -0.3125 2.75 -0.3125 6 0 C8.375 2.5 8.375 2.5 10 5 C10.33 3.35 10.66 1.7 11 0 C12.98 0 14.96 0 17 0 C17 7.59 17 15.18 17 23 C15 21 15 21 14.86474609 18.93701172 C14.91711426 18.10959473 14.96948242 17.28217773 15.0234375 16.4296875 C15.075 15.53378906 15.1265625 14.63789063 15.1796875 13.71484375 C15.24414062 12.77769531 15.30859375 11.84054688 15.375 10.875 C15.43171875 9.93011719 15.4884375 8.98523438 15.546875 8.01171875 C15.68857097 5.67373519 15.83999783 3.33679056 16 1 C14.68 1 13.36 1 12 1 C12.34227572 3.97065509 12.34227572 3.97065509 13 7 C13.66 7.33 14.32 7.66 15 8 C15 10.31 15 12.62 15 15 C14.01 15 13.02 15 12 15 C12 14.34 12 13.68 12 13 C10.68 12.34 9.36 11.68 8 11 C8 10.01 8 9.02 8 8 C6.06176821 5.60028446 5.00609963 5.00203321 2 4 C1.67 4.99 1.34 5.98 1 7 C0.67 4.69 0.34 2.38 0 0 Z " fill="#2A80A4" transform="translate(134,166)"/>
<path d="M0 0 C1.65 0 3.3 0 5 0 C5 7.26 5 14.52 5 22 C3.35 22 1.7 22 0 22 C0 14.74 0 7.48 0 0 Z " fill="#206C8F" transform="translate(2,167)"/>
<path d="M0 0 C1.65 0 3.3 0 5 0 C5 7.26 5 14.52 5 22 C3.35 22 1.7 22 0 22 C0 14.74 0 7.48 0 0 Z " fill="#1C6C90" transform="translate(31,167)"/>
<path d="M0 0 C0.11633316 8.69327866 0.2049359 17.3862855 0.25906086 26.0801754 C0.2850507 30.11802221 0.32025105 34.1553328 0.37719727 38.19287109 C0.43190084 42.09625064 0.46150017 45.99911754 0.47438622 49.9028511 C0.48355799 51.38510829 0.50146717 52.86734039 0.52865028 54.34937668 C0.68342747 63.14526209 0.33117203 70.63042671 -5 78 C-6.91051093 79.97113719 -8.73499408 81.41976331 -11 83 C-11 81.68 -11 80.36 -11 79 C-10.0409375 78.5978125 -10.0409375 78.5978125 -9.0625 78.1875 C-6.66868314 77.11332248 -6.66868314 77.11332248 -6 74 C-5.34 74 -4.68 74 -4 74 C-4 72.35 -4 70.7 -4 69 C-3.34 69 -2.68 69 -2 69 C-1.67 46.89 -1.34 24.78 -1 2 C-1.99 1.67 -2.98 1.34 -4 1 C-1 0 -1 0 0 0 Z " fill="#116187" transform="translate(74,1)"/>
<path d="M0 0 C16.83 0 33.66 0 51 0 C51 0.66 51 1.32 51 2 C47.98323429 2.88385231 45.36880835 3.09763246 42.23144531 3.02172852 C41.29077209 3.00163223 40.35009888 2.98153595 39.38092041 2.96083069 C38.37349792 2.93379562 37.36607544 2.90676056 36.328125 2.87890625 C34.77179352 2.84348976 34.77179352 2.84348976 33.184021 2.80735779 C29.87253771 2.73083034 26.56129471 2.6467587 23.25 2.5625 C21.00391798 2.50926841 18.75782426 2.45652808 16.51171875 2.40429688 C11.00766406 2.27522995 5.50378763 2.13996973 0 2 C0 1.34 0 0.68 0 0 Z " fill="#DEFCFE" transform="translate(107,90)"/>
<path d="M0 0 C5 0 5 0 7.01953125 1.53125 C7.61121094 2.1809375 8.20289063 2.830625 8.8125 3.5 C9.41707031 4.1496875 10.02164062 4.799375 10.64453125 5.46875 C11.09183594 5.9740625 11.53914063 6.479375 12 7 C11.67 7.66 11.34 8.32 11 9 C10.01 8.34 9.02 7.68 8 7 C8 6.34 8 5.68 8 5 C5.03 4.505 5.03 4.505 2 4 C2.33 6.64 2.66 9.28 3 12 C3.33 12 3.66 12 4 12 C4 15.63 4 19.26 4 23 C2.68 23 1.36 23 0 23 C0 15.41 0 7.82 0 0 Z " fill="#1B6994" transform="translate(10,166)"/>
<path d="M0 0 C0.66 0.66 1.32 1.32 2 2 C1.03320312 2.98033203 1.03320312 2.98033203 0.046875 3.98046875 C-2.58906783 7.86898747 -2.65979646 10.7244201 -2.75 15.3125 C-2.77964844 16.05306641 -2.80929688 16.79363281 -2.83984375 17.55664062 C-2.91005845 19.37052046 -2.95735048 21.18526278 -3 23 C1.95 23 6.9 23 12 23 C12 23.33 12 23.66 12 24 C9.20807795 24.05380578 6.4171859 24.09357669 3.625 24.125 C2.8309375 24.14175781 2.036875 24.15851563 1.21875 24.17578125 C-0.85492015 24.19335473 -2.92883241 24.10335168 -5 24 C-7.79790352 21.20209648 -7.43273627 19.28465566 -7.5625 15.375 C-7.52428388 10.06841886 -7.05920391 7.12281288 -3.5 3.125 C-2.36518222 2.0487244 -1.20856475 0.99274962 0 0 Z " fill="#D0EEF7" transform="translate(74,166)"/>
<path d="M0 0 C0.99 1.32 1.98 2.64 3 4 C3.33 2.68 3.66 1.36 4 0 C4.66 0 5.32 0 6 0 C6 5.61 6 11.22 6 17 C4.35 17.33 2.7 17.66 1 18 C0 17 0 17 -0.09765625 13.18359375 C-0.09098089 11.60153318 -0.07901875 10.01948841 -0.0625 8.4375 C-0.05798828 7.63119141 -0.05347656 6.82488281 -0.04882812 5.99414062 C-0.03700518 3.99606244 -0.01906914 1.99802217 0 0 Z " fill="#D8F8FD" transform="translate(120,166)"/>
<path d="M0 0 C2.64 0 5.28 0 8 0 C8 7.59 8 15.18 8 23 C9.32 23.33 10.64 23.66 12 24 C8.04 24 4.08 24 0 24 C0 23.67 0 23.34 0 23 C1.65 23 3.3 23 5 23 C5 15.74 5 8.48 5 1 C3.35 1 1.7 1 0 1 C0 0.67 0 0.34 0 0 Z " fill="#A4D5E3" transform="translate(2,166)"/>
<path d="M0 0 C0 1.98 0 3.96 0 6 C-1.32 6.33 -2.64 6.66 -4 7 C-4.40910928 12.88551294 -4.40910928 12.88551294 -2 18 C0.55519921 18.81171228 0.55519921 18.81171228 3 19 C2.67 17.68 2.34 16.36 2 15 C3.65 15 5.3 15 7 15 C7 16.98 7 18.96 7 21 C2.71 21 -1.58 21 -6 21 C-6.13559675 18.43571485 -6.23433188 15.87864784 -6.3125 13.3125 C-6.35439453 12.59126953 -6.39628906 11.87003906 -6.43945312 11.12695312 C-6.53719699 6.84577193 -6.36500723 5.4485701 -3.54296875 1.98046875 C-1 0 -1 0 0 0 Z " fill="#2A7295" transform="translate(94,168)"/>
<path d="M0 0 C0 0.99 0 1.98 0 3 C-0.48082031 3.38800781 -0.96164063 3.77601563 -1.45703125 4.17578125 C-3.9235878 7.09193798 -3.57560847 10.52704851 -3.6875 14.1875 C-3.72166016 14.93708984 -3.75582031 15.68667969 -3.79101562 16.45898438 C-3.87334294 18.30546838 -3.93835281 20.15270994 -4 22 C0.29 22 4.58 22 9 22 C9 22.33 9 22.66 9 23 C6.68756208 23.02685412 4.3750373 23.04632841 2.0625 23.0625 C0.77472656 23.07410156 -0.51304688 23.08570313 -1.83984375 23.09765625 C-5 23 -5 23 -6 22 C-6.04080783 20.00041636 -6.04254356 17.99954746 -6 16 C-8.31 16 -10.62 16 -13 16 C-13 15.67 -13 15.34 -13 15 C-10.69 15 -8.38 15 -6 15 C-6 12.69 -6 10.38 -6 8 C-8.64 8 -11.28 8 -14 8 C-14 7.34 -14 6.68 -14 6 C-13.32453125 5.90203125 -12.6490625 5.8040625 -11.953125 5.703125 C-5.04032595 4.62920914 -5.04032595 4.62920914 0 0 Z " fill="#ADEEF8" transform="translate(92,167)"/>
<path d="M0 0 C2.31 0 4.62 0 7 0 C8.46774436 5.22883929 9.10723092 9.53122296 9 15 C9.33 15.99 9.66 16.98 10 18 C9.01 18 8.02 18 7 18 C7.020625 18.804375 7.04125 19.60875 7.0625 20.4375 C7 23 7 23 6 24 C4.02 24 2.04 24 0 24 C0 16.08 0 8.16 0 0 Z M1 1 C1 8.26 1 15.52 1 23 C2.65 23 4.3 23 6 23 C6 15.74 6 8.48 6 1 C4.35 1 2.7 1 1 1 Z " fill="#A8D9E6" transform="translate(30,166)"/>
<path d="M0 0 C0 0.99 0 1.98 0 3 C-7.27125506 5.13122993 -7.27125506 5.13122993 -10.54882812 4.54101562 C-14.89676978 3.85941979 -19.16016713 3.76841535 -23.5546875 3.68359375 C-24.90700974 3.6524221 -24.90700974 3.6524221 -26.28665161 3.62062073 C-29.1493614 3.5555542 -32.01215819 3.49644086 -34.875 3.4375 C-36.82292544 3.39427393 -38.77084229 3.35065836 -40.71875 3.30664062 C-45.47907889 3.19991711 -50.23949476 3.09853036 -55 3 C-55 2.67 -55 2.34 -55 2 C-54.39500671 1.98969254 -53.79001343 1.97938507 -53.16668701 1.96876526 C-46.87257242 1.86062416 -40.57859877 1.74603221 -34.28466797 1.62768555 C-31.9354141 1.58436114 -29.58612925 1.54268427 -27.23681641 1.50268555 C-23.8609076 1.44492285 -20.48515439 1.38124532 -17.109375 1.31640625 C-15.53261993 1.29133751 -15.53261993 1.29133751 -13.92401123 1.26576233 C-12.94329651 1.24581711 -11.96258179 1.22587189 -10.95214844 1.20532227 C-9.6597525 1.18200584 -9.6597525 1.18200584 -8.34124756 1.15821838 C-5.47689628 0.96464935 -2.85650607 0 0 0 Z " fill="#CFF6FE" transform="translate(57,88)"/>
<path d="M0 0 C1.78947815 2.68421723 2.73092143 4.81629723 3.8125 7.8125 C7.37803863 16.74579496 12.88754761 20.43502679 21 25 C21.99 25.66 22.98 26.32 24 27 C18.82738079 26.47218171 14.59738382 25.47551436 10 23 C8.25 20.4375 8.25 20.4375 7 18 C6.01 17.34 5.02 16.68 4 16 C2.578125 13.06640625 2.578125 13.06640625 1.25 9.5625 C0.80140625 8.40878906 0.3528125 7.25507812 -0.109375 6.06640625 C-1 3 -1 3 0 0 Z " fill="#287799" transform="translate(82,91)"/>
<path d="M0 0 C3 1.625 3 1.625 6 4 C6.375 7.25 6.375 7.25 6 10 C-0.39075249 10.36174071 -0.39075249 10.36174071 -3 8.8125 C-4 7 -4 7 -3.875 4.4375 C-3 2 -3 2 0 0 Z " fill="#F6FDFB" transform="translate(51,172)"/>
<path d="M0 0 C-4.11378556 6.70459519 -4.11378556 6.70459519 -7.8125 7.9375 C-8.8953125 7.9684375 -8.8953125 7.9684375 -10 8 C-10 7.34 -10 6.68 -10 6 C-12.475 5.01 -12.475 5.01 -15 4 C-11.3460697 -1.5678938 -5.94143168 -0.36877852 0 0 Z " fill="#1B769E" transform="translate(56,166)"/>
<path d="M0 0 C0.66 0.33 1.32 0.66 2 1 C-1.77926198 9.61671731 -6.57839445 15.22044048 -15.10546875 19.37109375 C-17 20 -17 20 -21 20 C-20.67 18.68 -20.34 17.36 -20 16 C-19.0925 16.020625 -18.185 16.04125 -17.25 16.0625 C-14.57327412 16.0110245 -12.53011948 15.7784983 -10 15 C-10 14.01 -10 13.02 -10 12 C-9.34 11.67 -8.68 11.34 -8 11 C-7.67 10.01 -7.34 9.02 -7 8 C-6.01 8 -5.02 8 -4 8 C-3.87625 7.360625 -3.7525 6.72125 -3.625 6.0625 C-3.315625 5.0415625 -3.315625 5.0415625 -3 4 C-2.34 3.67 -1.68 3.34 -1 3 C-0.67 2.01 -0.34 1.02 0 0 Z " fill="#D8F5FA" transform="translate(74,97)"/>
<path d="M0 0 C4.62 0 9.24 0 14 0 C13.67 0.66 13.34 1.32 13 2 C11.35 1.67 9.7 1.34 8 1 C8 1.99 8 2.98 8 4 C7.34 4 6.68 4 6 4 C6 4.66 6 5.32 6 6 C5.01 6 4.02 6 3 6 C2.87625 6.61875 2.7525 7.2375 2.625 7.875 C2 10 2 10 0 12 C0 8.04 0 4.08 0 0 Z " fill="#F7FDFB" transform="translate(0,0)"/>
<path d="M0 0 C1.32 0 2.64 0 4 0 C4 6.6 4 13.2 4 20 C0.28631113 18.76210371 -0.77354181 17.14775123 -3 14 C-3 13.34 -3 12.68 -3 12 C-2.01 12 -1.02 12 0 12 C0 12.66 0 13.32 0 14 C0.99 14 1.98 14 3 14 C3 11.69 3 9.38 3 7 C2.01 6.67 1.02 6.34 0 6 C0 4.02 0 2.04 0 0 Z " fill="#106891" transform="translate(146,167)"/>
<path d="M0 0 C-0.33 0.66 -0.66 1.32 -1 2 C-3.31 2 -5.62 2 -8 2 C-8 2.33 -8 2.66 -8 3 C-9.98 3 -11.96 3 -14 3 C-13.67 5.31 -13.34 7.62 -13 10 C-17.455 9.01 -17.455 9.01 -22 8 C-16.98954673 -2.02090654 -9.97434672 -0.85291326 0 0 Z " fill="#327B9B" transform="translate(74,166)"/>
<path d="M0 0 C1.32 0 2.64 0 4 0 C4 6.93 4 13.86 4 21 C0.23312136 19.11656068 -0.79421646 18.30867531 -3 15 C-0.525 15.99 -0.525 15.99 2 17 C2 14.03 2 11.06 2 8 C1.34 8 0.68 8 0 8 C0 5.36 0 2.72 0 0 Z " fill="#18698D" transform="translate(24,167)"/>
<path d="M0 0 C4.59505607 3.71139144 7.98102289 6.92811845 11 12 C10.2575 11.649375 9.515 11.29875 8.75 10.9375 C5.82879218 9.9416337 4.81513699 9.93218942 2 11 C1.01 11.495 1.01 11.495 0 12 C0 8.04 0 4.08 0 0 Z " fill="#E1F7FA" transform="translate(139,177)"/>
<path d="M0 0 C0.33 0 0.66 0 1 0 C1.09922585 4.18084291 1.17163374 8.36105371 1.21972656 12.54272461 C1.23978421 13.96374457 1.26703778 15.38468259 1.30175781 16.80541992 C1.35054011 18.85355895 1.37302539 20.90060275 1.390625 22.94921875 C1.41157227 24.17987061 1.43251953 25.41052246 1.45410156 26.6784668 C0.91176037 30.64543016 -0.12200897 32.25618473 -3 35 C-5.25 35.8125 -5.25 35.8125 -7 36 C-6.36553955 35.15429443 -6.36553955 35.15429443 -5.71826172 34.29150391 C-0.75817137 27.01660767 -0.1056709 21.04410159 -0.125 12.375 C-0.104375 11.18003906 -0.08375 9.98507813 -0.0625 8.75390625 C-0.01580119 5.83523055 0.00447793 2.9189694 0 0 Z " fill="#E1FEFF" transform="translate(159,119)"/>
<path d="M0 0 C2.29633824 3.44450737 2.54016485 5.93812283 3 10 C1.68 10 0.36 10 -1 10 C-1.33 10.99 -1.66 11.98 -2 13 C-2.66 13 -3.32 13 -4 13 C-4.2475 13.61875 -4.495 14.2375 -4.75 14.875 C-6.22047178 17.37480203 -7.41403076 17.83316022 -10 19 C-9.23721377 17.7035649 -8.46443041 16.41300852 -7.6875 15.125 C-7.25824219 14.40570313 -6.82898438 13.68640625 -6.38671875 12.9453125 C-5 11 -5 11 -2 9 C-1.45897058 7.06830219 -1.45897058 7.06830219 -1.375 4.9375 C-1 1 -1 1 0 0 Z " fill="#0974A5" transform="translate(80,91)"/>
<path d="M0 0 C5.28 0 10.56 0 16 0 C10.35591742 6.7728991 10.35591742 6.7728991 5.875 7.4375 C4.60269531 7.65212891 4.60269531 7.65212891 3.3046875 7.87109375 C1 8 1 8 -2 7 C2.1205746 5.00214565 5.45194365 4.82164485 10 5 C10 3.68 10 2.36 10 1 C6.7 1 3.4 1 0 1 C0 0.67 0 0.34 0 0 Z " fill="#2E7A96" transform="translate(77,166)"/>
<path d="M0 0 C0.66 0 1.32 0 2 0 C2 0.66 2 1.32 2 2 C2.66 2 3.32 2 4 2 C4.66 3.98 5.32 5.96 6 8 C4.68 8.33 3.36 8.66 2 9 C1.67 13.29 1.34 17.58 1 22 C0.67 22 0.34 22 0 22 C0 14.74 0 7.48 0 0 Z " fill="#E3F8FA" transform="translate(84,69)"/>
<path d="M0 0 C2.3125 0.1875 2.3125 0.1875 5 1 C6.8125 3.5625 6.8125 3.5625 8 6 C7.01 6.33 6.02 6.66 5 7 C5 6.34 5 5.68 5 5 C4.01 5.33 3.02 5.66 2 6 C1.67 8.31 1.34 10.62 1 13 C0.34 13 -0.32 13 -1 13 C-1.02708567 11.39592672 -1.04643483 9.7917215 -1.0625 8.1875 C-1.07410156 7.29417969 -1.08570313 6.40085938 -1.09765625 5.48046875 C-1 3 -1 3 0 0 Z " fill="#0975AC" transform="translate(136,170)"/>
<path d="M0 0 C2.475 0.495 2.475 0.495 5 1 C4.34 6.94 3.68 12.88 3 19 C2.67 19 2.34 19 2 19 C1.67 16.03 1.34 13.06 1 10 C0.67 10 0.34 10 0 10 C0 6.7 0 3.4 0 0 Z " fill="#207FB1" transform="translate(12,170)"/>
<path d="M0 0 C0.33 0 0.66 0 1 0 C2.18714534 4.05607993 2.1343505 5.70029505 0.375 9.625 C-1.64702274 12.76262149 -3.76260382 15.05756229 -7 17 C-9.3125 16.75 -9.3125 16.75 -11 16 C-9.68 15.67 -8.36 15.34 -7 15 C-7 13.35 -7 11.7 -7 10 C-6.67 10.66 -6.34 11.32 -6 12 C-5.34 12 -4.68 12 -4 12 C-3.67 11.01 -3.34 10.02 -3 9 C-2.34 8.34 -1.68 7.68 -1 7 C-0.59952556 4.67724823 -0.2602896 2.34260643 0 0 Z " fill="#227398" transform="translate(156,140)"/>
<path d="M0 0 C0.66 0.66 1.32 1.32 2 2 C1.86765651 7.55842659 -0.6985895 11.70176472 -4 16 C-6.8125 18.5 -6.8125 18.5 -9 20 C-9 18.68 -9 17.36 -9 16 C-8.0409375 15.5978125 -8.0409375 15.5978125 -7.0625 15.1875 C-4.66868314 14.11332248 -4.66868314 14.11332248 -4 11 C-3.34 11 -2.68 11 -2 11 C-2 9.35 -2 7.7 -2 6 C-1.34 6 -0.68 6 0 6 C0 4.02 0 2.04 0 0 Z " fill="#206D91" transform="translate(72,64)"/>
<path d="M0 0 C2.6875 -0.4375 2.6875 -0.4375 6 0 C8.04775301 2.11124923 9.53480226 4.45859507 11 7 C10.34 7.66 9.68 8.32 9 9 C8.401875 8.360625 7.80375 7.72125 7.1875 7.0625 C5.09189663 4.79689611 5.09189663 4.79689611 2 4 C1.67 4.99 1.34 5.98 1 7 C0.67 4.69 0.34 2.38 0 0 Z " fill="#28759A" transform="translate(134,166)"/>
<path d="M0 0 C0.99 0.33 1.98 0.66 3 1 C3.02705729 2.77074917 3.04642195 4.54161711 3.0625 6.3125 C3.07410156 7.29863281 3.08570313 8.28476563 3.09765625 9.30078125 C3 12 3 12 2 15 C1.34 15 0.68 15 0 15 C0 10.05 0 5.1 0 0 Z " fill="#136E96" transform="translate(127,168)"/>
<path d="M0 0 C0.74507812 0.05671875 1.49015625 0.1134375 2.2578125 0.171875 C4.08935108 0.31276258 5.91981352 0.46751884 7.75 0.625 C7.42 1.945 7.09 3.265 6.75 4.625 C6.75 3.965 6.75 3.305 6.75 2.625 C0.81 2.955 -5.13 3.285 -11.25 3.625 C-11.58 2.965 -11.91 2.305 -12.25 1.625 C-8.37328894 -1.04789025 -4.45732397 -0.39375653 0 0 Z " fill="#E1FBFC" transform="translate(86.25,163.375)"/>
<path d="M0 0 C0.99 0.495 0.99 0.495 2 1 C2 1.66 2 2.32 2 3 C2.78375 3.226875 3.5675 3.45375 4.375 3.6875 C7 5 7 5 8.3125 7.625 C8.6528125 8.800625 8.6528125 8.800625 9 10 C9.66 10 10.32 10 11 10 C11 10.66 11 11.32 11 12 C5.90025053 10.65006632 2.80502464 7.32802771 0 3 C0 2.01 0 1.02 0 0 Z " fill="#257194" transform="translate(3,145)"/>
<path d="M0 0 C0.66 0.33 1.32 0.66 2 1 C2 3.64 2 6.28 2 9 C6.29 9 10.58 9 15 9 C15 9.33 15 9.66 15 10 C12.68756208 10.02685412 10.3750373 10.04632841 8.0625 10.0625 C6.77472656 10.07410156 5.48695312 10.08570313 4.16015625 10.09765625 C1 10 1 10 0 9 C-0.04080783 7.00041636 -0.04254356 4.99954746 0 3 C-2.31 3 -4.62 3 -7 3 C-7 2.67 -7 2.34 -7 2 C-4.69 2 -2.38 2 0 2 C0 1.34 0 0.68 0 0 Z " fill="#C3F0F8" transform="translate(86,180)"/>
<path d="M0 0 C0 1.98 0 3.96 0 6 C-1.32 6.33 -2.64 6.66 -4 7 C-4.33 11.62 -4.66 16.24 -5 21 C-5.33 21 -5.66 21 -6 21 C-6.13559675 18.43571485 -6.23433188 15.87864784 -6.3125 13.3125 C-6.35439453 12.59126953 -6.39628906 11.87003906 -6.43945312 11.12695312 C-6.53719699 6.84577193 -6.36500723 5.4485701 -3.54296875 1.98046875 C-1 0 -1 0 0 0 Z " fill="#3983A1" transform="translate(94,168)"/>
<path d="M0 0 C2.97 0 5.94 0 9 0 C9 1.32 9 2.64 9 4 C6.03 4 3.06 4 0 4 C0 2.68 0 1.36 0 0 Z " fill="#3F7589" transform="translate(102,175)"/>
<path d="M0 0 C3.63 0 7.26 0 11 0 C11.33 2.97 11.66 5.94 12 9 C11.01 8.34 10.02 7.68 9 7 C6.9507906 6.54860541 6.9507906 6.54860541 4.8125 6.375 C3.554375 6.25125 2.29625 6.1275 1 6 C1 5.67 1 5.34 1 5 C3.64 5 6.28 5 9 5 C9 3.68 9 2.36 9 1 C6.03 1 3.06 1 0 1 C0 0.67 0 0.34 0 0 Z " fill="#D3EEF3" transform="translate(102,174)"/>
<path d="M0 0 C2.64 0 5.28 0 8 0 C8 0.99 8 1.98 8 3 C6.68 3 5.36 3 4 3 C3.67 4.32 3.34 5.64 3 7 C2.34 7 1.68 7 1 7 C0.67 4.69 0.34 2.38 0 0 Z " fill="#0676AA" transform="translate(60,169)"/>
<path d="M0 0 C3.63 0 7.26 0 11 0 C11 1.32 11 2.64 11 4 C9.02 4.33 7.04 4.66 5 5 C5.33 3.68 5.66 2.36 6 1 C3.02934491 1.34227572 3.02934491 1.34227572 0 2 C-0.33 2.66 -0.66 3.32 -1 4 C-0.67 2.68 -0.34 1.36 0 0 Z " fill="#126F96" transform="translate(76,167)"/>
<path d="M0 0 C1.98 0 3.96 0 6 0 C6 0.99 6 1.98 6 3 C7.65 2.34 9.3 1.68 11 1 C11 3.64 11 6.28 11 9 C10.54109375 8.60167969 10.0821875 8.20335937 9.609375 7.79296875 C6.47728415 5.08857938 3.36122541 2.42008229 0 0 Z " fill="#D3F7FC" transform="translate(12,165)"/>
<path d="M0 0 C0.47308594 0.38671875 0.94617188 0.7734375 1.43359375 1.171875 C6.33904287 5.03503571 11.19610545 7.71606001 17 10 C17 10.33 17 10.66 17 11 C11.82738079 10.47218171 7.59738382 9.47551436 3 7 C0 3.03225806 0 3.03225806 0 0 Z " fill="#1F6E94" transform="translate(89,107)"/>
<path d="M0 0 C5.25326356 2.62663178 8.10863162 4.67988218 11 10 C11 10.66 11 11.32 11 12 C9.68 11.67 8.36 11.34 7 11 C7 10.34 7 9.68 7 9 C6.34 8.67 5.68 8.34 5 8 C4.67 7.01 4.34 6.02 4 5 C2.67151309 3.99357052 1.33849671 2.99307821 0 2 C0 1.34 0 0.68 0 0 Z " fill="#287597" transform="translate(147,2)"/>
<path d="M0 0 C0.99 0.33 1.98 0.66 3 1 C2.34 1 1.68 1 1 1 C0.83312552 3.41645782 0.83312552 3.41645782 1 6 C3.35953094 8.35953094 4.77895617 8.49141413 8 9 C8 9.33 8 9.66 8 10 C1.9453125 10.1953125 1.9453125 10.1953125 0 10 C-2 8 -2 8 -2.25 5 C-2 2 -2 2 0 0 Z " fill="#C1EAF4" transform="translate(47,173)"/>
<path d="M0 0 C0.66 0 1.32 0 2 0 C2 0.66 2 1.32 2 2 C4.97 2.33 7.94 2.66 11 3 C11 3.99 11 4.98 11 6 C5.64786526 6.43869957 5.64786526 6.43869957 3 6 C0 2.34375 0 2.34375 0 0 Z " fill="#0A74A5" transform="translate(42,181)"/>
<path d="M0 0 C2.0625 0.4375 2.0625 0.4375 4 1 C4.33 2.32 4.66 3.64 5 5 C3.02 5.66 1.04 6.32 -1 7 C-1.04254356 5.00045254 -1.04080783 2.99958364 -1 1 C-0.67 0.67 -0.34 0.34 0 0 Z " fill="#156B9D" transform="translate(41,170)"/>
<path d="M0 0 C4.62 0 9.24 0 14 0 C11.75 4.5 11.75 4.5 8 6 C8.33 4.68 8.66 3.36 9 2 C6.03 1.67 3.06 1.34 0 1 C0 0.67 0 0.34 0 0 Z " fill="#1B6C92" transform="translate(59,167)"/>
<path d="M0 0 C0.66 0.66 1.32 1.32 2 2 C1.03320312 2.98033203 1.03320312 2.98033203 0.046875 3.98046875 C-2.58906783 7.86898747 -2.65979646 10.7244201 -2.75 15.3125 C-2.77964844 16.05306641 -2.80929688 16.79363281 -2.83984375 17.55664062 C-2.91005845 19.37052046 -2.95735048 21.18526278 -3 23 C-3.33 23 -3.66 23 -4 23 C-4.30460586 20.29172212 -4.56923077 17.58890259 -4.8125 14.875 C-4.90208984 14.11445313 -4.99167969 13.35390625 -5.08398438 12.5703125 C-5.43529689 8.28060181 -5.33236958 5.8300935 -2.51171875 2.4453125 C-1.68285156 1.63835937 -0.85398437 0.83140625 0 0 Z " fill="#A8DFEE" transform="translate(74,166)"/>
<path d="M0 0 C0.66 0 1.32 0 2 0 C2 3.63 2 7.26 2 11 C1.01 11.33 0.02 11.66 -1 12 C-1.02687279 10.18757948 -1.04633715 8.37504767 -1.0625 6.5625 C-1.07410156 5.55316406 -1.08570312 4.54382813 -1.09765625 3.50390625 C-1 1 -1 1 0 0 Z " fill="#DDFDFE" transform="translate(68,173)"/>
<path d="M0 0 C1.65 0 3.3 0 5 0 C3.68 0.33 2.36 0.66 1 1 C1.66 1.33 2.32 1.66 3 2 C3.85486376 6.66289322 4.30042194 10.37627754 3 15 C2.67 15 2.34 15 2 15 C2 13.35 2 11.7 2 10 C1.01 9.67 0.02 9.34 -1 9 C-0.67 6.03 -0.34 3.06 0 0 Z " fill="#2E82A6" transform="translate(23,166)"/>
<path d="M0 0 C2.6015625 -0.29296875 2.6015625 -0.29296875 5.625 -0.1875 C7.12933594 -0.14689453 7.12933594 -0.14689453 8.6640625 -0.10546875 C9.43492188 -0.07066406 10.20578125 -0.03585938 11 0 C9.35 1.65 7.7 3.3 6 5 C6 4.01 6 3.02 6 2 C3.36 2.33 0.72 2.66 -2 3 C-1.34 2.01 -0.68 1.02 0 0 Z " fill="#387892" transform="translate(45,166)"/>
<path d="M0 0 C-0.33 1.32 -0.66 2.64 -1 4 C-1.639375 4.103125 -2.27875 4.20625 -2.9375 4.3125 C-3.618125 4.539375 -4.29875 4.76625 -5 5 C-5.33 5.99 -5.66 6.98 -6 8 C-7.32 7.67 -8.64 7.34 -10 7 C-8.71372289 5.82739389 -7.42080217 4.6620717 -6.125 3.5 C-5.04605469 2.52546875 -5.04605469 2.52546875 -3.9453125 1.53125 C-2 0 -2 0 0 0 Z " fill="#207296" transform="translate(14,2)"/>
<path d="M0 0 C1.98 1.65 3.96 3.3 6 5 C4.68 5.33 3.36 5.66 2 6 C1.67 7.98 1.34 9.96 1 12 C0.67 12 0.34 12 0 12 C0 8.04 0 4.08 0 0 Z " fill="#BFF0FA" transform="translate(139,177)"/>
<path d="M0 0 C2 3 4 6 6 9 C3.125 8.6875 3.125 8.6875 0 8 C-0.66 7.01 -1.32 6.02 -2 5 C-1.125 2.3125 -1.125 2.3125 0 0 Z " fill="#D8F0F5" transform="translate(2,145)"/>
<path d="M0 0 C0.33 0 0.66 0 1 0 C2.20798319 6.28151261 2.20798319 6.28151261 1.3125 9.375 C-0.32839122 11.40657961 -1.50322869 11.48132246 -4 12 C-2.66666667 8 -1.33333333 4 0 0 Z " fill="#CFF2F6" transform="translate(74,66)"/>
<path d="M0 0 C0 0.99 0 1.98 0 3 C-5.16044765 4.512545 -8.65998179 5.33500455 -14 4 C-14 3.67 -14 3.34 -14 3 C-12.0424015 2.49713066 -10.08389623 1.9977901 -8.125 1.5 C-7.03445312 1.2215625 -5.94390625 0.943125 -4.8203125 0.65625 C-2 0 -2 0 0 0 Z " fill="#DAF7F9" transform="translate(57,88)"/>
<path d="M0 0 C2.0625 -0.4375 2.0625 -0.4375 5 0 C7.57260172 2.12080183 9.79254499 4.50627561 12 7 C11.67 7.66 11.34 8.32 11 9 C10.01 8.34 9.02 7.68 8 7 C8 6.34 8 5.68 8 5 C7.34 5 6.68 5 6 5 C5.67 4.34 5.34 3.68 5 3 C2.47266765 2.34444881 2.47266765 2.34444881 0 2 C0 1.34 0 0.68 0 0 Z " fill="#2A728E" transform="translate(10,166)"/>
<path d="M0 0 C0.66 0.33 1.32 0.66 2 1 C-0.05233685 3.2477975 -1.00667261 4.0022242 -4 5 C-6.06145107 5.068991 -8.12501401 5.08467727 -10.1875 5.0625 C-11.81751953 5.04896484 -11.81751953 5.04896484 -13.48046875 5.03515625 C-14.31191406 5.02355469 -15.14335937 5.01195312 -16 5 C-16 4.67 -16 4.34 -16 4 C-15.14728516 3.94392578 -15.14728516 3.94392578 -14.27734375 3.88671875 C-10.23344341 3.54241338 -6.76968674 3.08781413 -3.0625 1.375 C-2.051875 0.92125 -1.04125 0.4675 0 0 Z " fill="#DBF8FB" transform="translate(150,155)"/>
<path d="M0 0 C-0.33 1.32 -0.66 2.64 -1 4 C-4.63 4.66 -8.26 5.32 -12 6 C-11.67 5.34 -11.34 4.68 -11 4 C-7.9375 3.375 -7.9375 3.375 -5 3 C-5 2.34 -5 1.68 -5 1 C-2 0 -2 0 0 0 Z " fill="#18739A" transform="translate(63,82)"/>
<path d="M0 0 C0.33 0 0.66 0 1 0 C1 6.27 1 12.54 1 19 C0.01 19 -0.98 19 -2 19 C-1.84660156 18.49984375 -1.69320312 17.9996875 -1.53515625 17.484375 C-0.80542604 14.09672234 -0.63643523 10.70038481 -0.4375 7.25 C-0.39431641 6.55261719 -0.35113281 5.85523438 -0.30664062 5.13671875 C-0.20110404 3.42468078 -0.1001009 1.71236439 0 0 Z " fill="#C2F8FC" transform="translate(132,168)"/>
<path d="M0 0 C1.32 0 2.64 0 4 0 C4.33 2.64 4.66 5.28 5 8 C2 7 2 7 0.8125 5.125 C0 3 0 3 0 0 Z " fill="#0872A4" transform="translate(21,176)"/>
<path d="M0 0 C3 0 3 0 5.1875 1.75 C7 4 7 4 7 8 C3.28631113 6.76210371 2.22645819 5.14775123 0 2 C0 1.34 0 0.68 0 0 Z " fill="#236D89" transform="translate(143,179)"/>
<path d="M0 0 C1.32 0.66 2.64 1.32 4 2 C3.27683594 2.61488281 3.27683594 2.61488281 2.5390625 3.2421875 C1.90742188 3.78101563 1.27578125 4.31984375 0.625 4.875 C-0.00148438 5.40867187 -0.62796875 5.94234375 -1.2734375 6.4921875 C-2.55836651 7.61432007 -3.79371975 8.79371975 -5 10 C-5 8.35 -5 6.7 -5 5 C-4.01 5 -3.02 5 -2 5 C-2 4.34 -2 3.68 -2 3 C-1.34 3 -0.68 3 0 3 C0 2.01 0 1.02 0 0 Z " fill="#D0EFF4" transform="translate(8,1)"/>
<path d="M0 0 C0.33 0 0.66 0 1 0 C1 2.97 1 5.94 1 9 C-2.76687864 7.11656068 -3.79421646 6.30867531 -6 3 C-4.02 3.66 -2.04 4.32 0 5 C0 3.35 0 1.7 0 0 Z " fill="#2B6D8B" transform="translate(27,179)"/>
<path d="M0 0 C0.99 0 1.98 0 3 0 C3 2.64 3 5.28 3 8 C2.34 8 1.68 8 1 8 C0.34 5.69 -0.32 3.38 -1 1 C-0.67 0.67 -0.34 0.34 0 0 Z " fill="#0C76A4" transform="translate(91,174)"/>
<path d="M0 0 C0.33 0.66 0.66 1.32 1 2 C1.66 2.33 2.32 2.66 3 3 C-0.5 7.875 -0.5 7.875 -5 9 C-3.35 6.03 -1.7 3.06 0 0 Z " fill="#D4F5F7" transform="translate(157,146)"/>
<path d="M0 0 C0.66 0.33 1.32 0.66 2 1 C0.68 3.64 -0.64 6.28 -2 9 C-2.99 9 -3.98 9 -5 9 C-3.25 4.125 -3.25 4.125 -1 3 C-0.67 2.01 -0.34 1.02 0 0 Z " fill="#CAF2F8" transform="translate(74,97)"/>
<path d="M0 0 C2.66666667 2.66666667 5.33333333 5.33333333 8 8 C5.03 7.505 5.03 7.505 2 7 C1.34 4.69 0.68 2.38 0 0 Z " fill="#C8EDF6" transform="translate(90,77)"/>
<path d="M0 0 C1.32 0 2.64 0 4 0 C4 2.31 4 4.62 4 7 C2.35 5.35 0.7 3.7 -1 2 C-0.67 1.34 -0.34 0.68 0 0 Z " fill="#CEF9FC" transform="translate(141,166)"/>
<path d="M0 0 C0.33 1.32 0.66 2.64 1 4 C-2.3 4.33 -5.6 4.66 -9 5 C-9.66 4.01 -10.32 3.02 -11 2 C-7.37 2.33 -3.74 2.66 0 3 C0 2.01 0 1.02 0 0 Z " fill="#207198" transform="translate(53,184)"/>
<path d="M0 0 C2.97 1.98 2.97 1.98 6 4 C5.38125 4.103125 4.7625 4.20625 4.125 4.3125 C1.63473516 4.87525373 1.63473516 4.87525373 0 8 C0 5.36 0 2.72 0 0 Z " fill="#C7F6F9" transform="translate(15,178)"/>
<path d="M0 0 C0.99 0 1.98 0 3 0 C2.67 2.97 2.34 5.94 2 9 C1.34 9 0.68 9 0 9 C0 6.03 0 3.06 0 0 Z " fill="#1475A6" transform="translate(135,174)"/>
<path d="M0 0 C1.32 1.32 2.64 2.64 4 4 C2.02 4.33 0.04 4.66 -2 5 C-2.33 4.01 -2.66 3.02 -3 2 C-2.01 1.34 -1.02 0.68 0 0 Z " fill="#E8FBFD" transform="translate(51,172)"/>
<path d="M0 0 C0.99 0 1.98 0 3 0 C5 3 5 3 4.625 5.1875 C4.41875 5.785625 4.2125 6.38375 4 7 C0 2.25 0 2.25 0 0 Z " fill="#CEF1F7" transform="translate(87,102)"/>
</svg>
