<svg id="svg" version="1.1" xmlns="http://www.w3.org/2000/svg" xmlns:xlink="http://www.w3.org/1999/xlink" width="400" height="384.42822384428223" viewBox="0, 0, 400,384.42822384428223"><g id="svgg"><path id="path0" d="M256.154 86.526 C 245.717 89.010,239.552 95.291,236.889 106.154 C 235.161 113.201,235.352 136.977,237.198 144.615 C 238.957 151.897,246.986 161.538,251.289 161.538 C 251.567 161.538,251.913 161.656,252.057 161.800 C 253.663 163.407,266.454 164.148,270.971 162.897 C 285.167 158.964,290.769 149.620,290.769 129.873 C 290.769 121.012,292.246 121.923,277.885 121.923 C 264.039 121.923,265.000 121.583,265.000 126.475 C 265.000 131.411,264.584 131.154,272.568 131.154 L 279.213 131.154 279.851 132.127 C 280.346 132.883,280.429 133.551,280.221 135.108 C 280.074 136.212,279.797 138.389,279.606 139.946 C 279.301 142.432,278.882 143.705,277.230 147.171 C 274.805 152.256,264.044 155.822,258.077 153.519 C 251.911 151.139,248.969 148.011,247.349 142.115 C 245.978 137.125,245.973 112.613,247.342 107.500 C 251.226 92.990,269.911 89.815,277.537 102.369 C 279.198 105.103,279.738 105.281,282.557 104.021 C 283.795 103.468,285.543 102.686,286.442 102.282 C 288.565 101.329,288.551 100.625,286.346 97.307 C 280.197 88.058,268.006 83.704,256.154 86.526 M139.135 132.567 L 115.000 132.698 115.000 135.572 C 115.000 138.240,115.062 138.461,115.865 138.639 C 116.341 138.744,118.595 139.179,120.874 139.606 C 127.687 140.880,129.835 142.429,131.612 147.348 L 132.500 149.808 132.614 202.500 C 132.736 259.397,132.791 257.649,130.763 261.846 C 129.838 263.759,127.397 265.891,125.485 266.454 C 122.863 267.226,118.897 268.077,117.920 268.077 C 115.575 268.077,115.000 268.752,115.000 271.504 L 115.000 274.038 142.885 274.038 L 170.769 274.038 170.769 271.503 L 170.769 268.968 169.282 268.522 C 168.464 268.277,167.245 268.077,166.573 268.077 C 156.695 268.077,151.922 265.048,150.209 257.692 C 149.623 255.177,149.279 212.095,149.833 210.651 C 150.017 210.169,151.269 210.110,158.198 210.257 C 168.525 210.475,167.669 210.228,169.633 213.553 C 170.540 215.089,171.773 217.171,172.372 218.179 C 172.971 219.187,173.462 220.182,173.462 220.390 C 173.462 220.599,173.635 220.769,173.846 220.769 C 174.058 220.769,174.231 220.960,174.231 221.194 C 174.231 221.428,176.749 225.625,179.827 230.521 C 182.905 235.417,185.631 239.769,185.885 240.192 C 186.139 240.615,186.450 241.048,186.577 241.154 C 186.704 241.260,187.242 242.038,187.771 242.885 C 202.882 267.021,215.176 276.156,232.544 276.153 C 240.367 276.152,243.077 275.071,243.077 271.951 C 243.077 269.446,243.062 269.431,240.145 269.043 C 239.113 268.906,237.923 268.654,237.500 268.483 C 232.839 266.602,231.432 265.893,228.721 264.057 C 220.270 258.334,204.370 238.720,191.901 218.639 C 185.719 208.682,185.440 207.950,187.639 207.459 C 190.864 206.737,196.968 203.902,200.192 201.628 C 204.652 198.482,213.846 187.931,213.846 185.958 C 213.846 185.866,214.258 184.877,214.761 183.761 C 217.177 178.404,217.859 175.037,217.821 168.654 C 217.713 150.623,206.943 138.011,188.269 134.049 C 186.577 133.690,184.693 133.238,184.082 133.046 C 182.565 132.567,167.835 132.410,139.135 132.567 M173.937 141.930 C 190.186 143.792,199.573 154.169,199.607 170.309 C 199.632 182.297,194.291 191.696,184.423 197.027 C 181.795 198.447,177.326 200.000,175.868 200.000 C 175.363 200.000,174.590 200.193,174.150 200.428 C 172.797 201.152,151.664 200.940,150.520 200.191 L 149.615 199.598 149.615 171.192 C 149.615 148.356,149.713 142.705,150.115 142.372 C 151.003 141.635,168.527 141.310,173.937 141.930 " stroke="none" fill="#f8fbfb" fill-rule="evenodd"></path><path id="path1" d="M179.615 0.119 C 179.510 0.221,177.615 0.381,175.405 0.476 C 172.840 0.585,171.333 0.808,171.238 1.093 C 171.143 1.380,170.019 1.538,168.077 1.538 C 166.276 1.538,165.009 1.704,164.927 1.951 C 164.851 2.179,163.822 2.363,162.623 2.363 C 161.363 2.363,160.160 2.587,159.747 2.900 C 159.358 3.195,158.231 3.443,157.244 3.449 C 156.256 3.456,155.391 3.625,155.321 3.825 C 155.250 4.024,154.204 4.227,152.997 4.274 C 151.591 4.330,150.731 4.545,150.605 4.873 C 150.496 5.157,149.839 5.385,149.127 5.385 C 148.423 5.385,147.613 5.601,147.328 5.865 C 146.907 6.256,146.870 6.238,147.133 5.769 C 147.392 5.305,147.347 5.279,146.901 5.639 C 146.596 5.884,145.699 6.206,144.907 6.354 C 144.116 6.502,143.564 6.777,143.680 6.965 C 143.854 7.247,141.364 7.528,140.278 7.350 C 140.113 7.323,139.878 7.562,139.756 7.881 C 139.618 8.241,139.037 8.462,138.228 8.462 C 137.510 8.462,136.923 8.635,136.923 8.846 C 136.923 9.058,136.312 9.231,135.565 9.231 C 134.712 9.231,134.124 9.446,133.985 9.808 C 133.850 10.161,133.267 10.385,132.482 10.385 C 131.776 10.385,131.092 10.558,130.962 10.769 C 130.831 10.981,130.128 11.154,129.400 11.154 C 128.480 11.154,128.077 11.330,128.077 11.731 C 128.077 12.067,127.727 12.308,127.239 12.308 C 126.054 12.308,123.712 13.174,123.346 13.748 C 123.177 14.013,122.563 14.231,121.981 14.231 C 121.399 14.231,120.759 14.389,120.558 14.583 C 120.357 14.776,119.760 14.997,119.231 15.073 C 118.702 15.149,118.312 15.423,118.365 15.682 C 118.418 15.942,118.121 16.154,117.704 16.154 C 117.287 16.154,116.347 16.491,115.614 16.902 C 114.657 17.440,114.228 17.521,114.094 17.191 C 113.991 16.938,113.893 17.034,113.877 17.404 C 113.858 17.814,113.541 18.077,113.063 18.077 C 112.633 18.077,111.862 18.351,111.350 18.687 C 110.837 19.023,110.240 19.187,110.021 19.052 C 109.784 18.905,109.717 19.047,109.853 19.403 C 110.031 19.865,109.807 20.000,108.865 20.000 C 108.151 20.000,107.745 20.159,107.885 20.385 C 108.015 20.596,107.778 20.769,107.358 20.769 C 106.937 20.769,106.334 21.029,106.016 21.346 C 105.699 21.663,105.081 21.923,104.643 21.923 C 104.191 21.923,103.846 22.173,103.846 22.500 C 103.846 22.833,103.498 23.077,103.025 23.077 C 102.573 23.077,101.803 23.510,101.312 24.038 C 100.822 24.567,100.081 25.000,99.666 25.000 C 99.250 25.000,98.850 25.181,98.776 25.402 C 98.703 25.623,98.256 25.833,97.783 25.868 C 97.310 25.904,96.923 26.156,96.923 26.428 C 96.923 26.700,96.602 26.923,96.210 26.923 C 95.818 26.923,95.030 27.356,94.459 27.885 C 93.889 28.413,93.085 28.846,92.672 28.846 C 92.260 28.846,91.923 29.019,91.923 29.231 C 91.923 29.442,91.490 29.615,90.962 29.615 C 90.433 29.615,90.000 29.801,90.000 30.027 C 90.000 30.592,89.157 31.387,88.251 31.678 C 87.838 31.810,86.997 32.352,86.382 32.882 C 85.768 33.412,85.032 33.846,84.748 33.846 C 84.463 33.846,84.231 33.990,84.231 34.166 C 84.231 34.342,83.798 34.717,83.269 35.000 C 82.740 35.283,82.308 35.745,82.308 36.027 C 82.308 36.316,81.890 36.538,81.346 36.538 C 80.732 36.538,80.385 36.755,80.385 37.138 C 80.385 37.468,80.210 37.630,79.997 37.498 C 79.784 37.367,79.506 37.530,79.379 37.860 C 79.252 38.191,78.734 38.462,78.228 38.462 C 77.722 38.462,77.308 38.647,77.308 38.874 C 77.308 39.406,76.329 40.385,75.797 40.385 C 75.570 40.385,75.385 40.644,75.385 40.962 C 75.385 41.289,75.040 41.538,74.588 41.538 C 73.736 41.538,72.692 42.371,72.692 43.049 C 72.692 43.276,72.433 43.462,72.115 43.462 C 71.798 43.462,71.538 43.635,71.538 43.846 C 71.538 44.058,71.279 44.231,70.962 44.231 C 70.644 44.231,70.385 44.414,70.385 44.638 C 70.385 44.862,70.230 44.950,70.040 44.833 C 69.851 44.716,69.593 44.889,69.466 45.219 C 69.340 45.548,69.064 45.711,68.853 45.581 C 68.632 45.444,68.568 45.598,68.701 45.946 C 68.869 46.383,68.762 46.482,68.312 46.309 C 67.901 46.151,67.692 46.279,67.692 46.690 C 67.692 47.030,67.462 47.308,67.180 47.308 C 66.899 47.308,66.437 47.740,66.154 48.269 C 65.871 48.798,65.409 49.231,65.127 49.231 C 64.846 49.231,64.615 49.416,64.615 49.643 C 64.615 50.201,63.574 51.205,62.892 51.306 C 62.587 51.350,62.007 51.767,61.604 52.232 C 61.201 52.697,60.675 53.077,60.436 53.077 C 60.196 53.077,60.000 53.337,60.000 53.654 C 60.000 53.971,59.815 54.231,59.588 54.231 C 59.055 54.231,58.077 55.209,58.077 55.742 C 58.077 55.968,57.891 56.154,57.665 56.154 C 57.132 56.154,56.154 57.132,56.154 57.665 C 56.154 57.891,55.994 58.077,55.798 58.077 C 55.328 58.077,49.231 64.070,49.231 64.533 C 49.231 64.731,48.798 65.217,48.269 65.614 C 47.740 66.011,47.308 66.560,47.308 66.834 C 47.308 67.108,47.048 67.431,46.731 67.553 C 46.413 67.675,46.154 67.942,46.154 68.146 C 46.154 68.645,45.156 69.615,44.643 69.615 C 44.416 69.615,44.231 69.801,44.231 70.027 C 44.231 70.560,43.252 71.538,42.720 71.538 C 42.493 71.538,42.308 71.798,42.308 72.115 C 42.308 72.433,42.135 72.692,41.923 72.692 C 41.712 72.692,41.538 73.125,41.538 73.654 C 41.538 74.183,41.367 74.615,41.158 74.615 C 40.567 74.615,39.247 75.869,39.465 76.222 C 39.573 76.396,39.477 76.538,39.253 76.538 C 38.654 76.538,37.204 78.074,37.788 78.090 C 38.053 78.097,37.880 78.427,37.404 78.824 C 36.928 79.222,36.538 79.667,36.538 79.814 C 36.538 79.961,36.106 80.422,35.577 80.838 C 35.048 81.254,34.615 81.933,34.615 82.348 C 34.615 82.762,34.356 83.201,34.038 83.322 C 33.721 83.444,33.462 83.795,33.462 84.102 C 33.462 84.409,33.288 84.554,33.077 84.423 C 32.865 84.292,32.692 84.550,32.692 84.996 C 32.692 85.441,32.260 86.207,31.731 86.697 C 31.202 87.187,30.769 87.958,30.769 88.409 C 30.769 88.897,30.525 89.231,30.170 89.231 C 29.840 89.231,29.677 89.404,29.808 89.615 C 29.938 89.827,29.776 90.000,29.446 90.000 C 29.063 90.000,28.846 90.347,28.846 90.962 C 28.846 91.560,28.628 91.923,28.269 91.923 C 27.943 91.923,27.692 92.267,27.692 92.715 C 27.692 93.151,27.519 93.400,27.308 93.269 C 27.090 93.134,26.923 93.458,26.923 94.016 C 26.923 94.634,26.709 95.000,26.346 95.000 C 25.987 95.000,25.769 95.363,25.769 95.962 C 25.769 96.490,25.596 96.923,25.385 96.923 C 25.173 96.923,25.000 97.183,25.000 97.500 C 25.000 97.817,24.788 98.034,24.528 97.981 C 24.269 97.928,23.994 98.302,23.917 98.812 C 23.839 99.323,23.531 99.986,23.231 100.286 C 22.931 100.586,22.784 100.992,22.905 101.188 C 23.027 101.384,22.855 101.648,22.524 101.775 C 22.194 101.902,21.923 102.401,21.923 102.885 C 21.923 103.368,21.644 103.871,21.303 104.002 C 20.909 104.153,20.755 104.520,20.882 105.005 C 20.992 105.425,20.925 105.769,20.733 105.769 C 20.174 105.769,19.050 107.082,18.907 107.901 C 18.835 108.315,18.618 108.712,18.426 108.782 C 18.234 108.853,18.077 109.420,18.077 110.044 C 18.077 110.697,17.832 111.272,17.500 111.399 C 17.183 111.521,16.923 112.035,16.923 112.541 C 16.923 113.047,16.750 113.462,16.538 113.462 C 16.327 113.462,16.154 113.894,16.154 114.423 C 16.154 115.021,15.936 115.385,15.577 115.385 C 15.218 115.385,15.000 115.748,15.000 116.346 C 15.000 116.875,14.827 117.308,14.615 117.308 C 14.404 117.308,14.231 117.808,14.231 118.420 C 14.231 119.055,13.983 119.628,13.654 119.754 C 13.317 119.884,13.077 120.460,13.077 121.142 C 13.077 121.783,12.904 122.308,12.692 122.308 C 12.481 122.308,12.308 122.722,12.308 123.228 C 12.308 123.734,12.048 124.248,11.731 124.370 C 11.406 124.495,11.154 125.067,11.154 125.680 C 11.154 126.279,10.993 126.934,10.797 127.135 C 10.600 127.336,10.384 128.106,10.316 128.846 C 10.240 129.670,10.006 130.155,9.712 130.096 C 9.391 130.032,9.231 130.513,9.231 131.538 C 9.231 132.385,9.058 133.077,8.846 133.077 C 8.635 133.077,8.462 133.683,8.462 134.423 C 8.462 135.363,8.288 135.769,7.885 135.769 C 7.467 135.769,7.308 136.198,7.308 137.320 C 7.308 138.227,7.103 138.949,6.814 139.060 C 6.542 139.164,6.282 139.713,6.235 140.281 C 6.188 140.848,5.977 141.484,5.767 141.695 C 5.557 141.905,5.385 142.908,5.385 143.923 C 5.385 144.966,5.207 145.769,4.977 145.769 C 4.753 145.769,4.677 145.942,4.808 146.154 C 4.938 146.365,4.862 146.538,4.638 146.538 C 4.414 146.538,4.231 147.231,4.231 148.077 C 4.231 148.923,4.058 149.615,3.846 149.615 C 3.635 149.615,3.462 150.580,3.462 151.758 C 3.462 153.035,3.254 154.109,2.947 154.416 C 2.664 154.699,2.400 155.855,2.360 156.984 C 2.321 158.114,2.120 159.096,1.914 159.167 C 1.707 159.237,1.538 160.838,1.538 162.724 C 1.538 165.414,1.422 166.154,0.998 166.154 C 0.272 166.154,0.200 168.537,0.200 192.308 C 0.200 216.079,0.272 218.462,0.998 218.462 C 1.422 218.462,1.538 219.201,1.538 221.891 C 1.538 223.777,1.707 225.378,1.914 225.449 C 2.120 225.519,2.321 226.501,2.360 227.631 C 2.400 228.761,2.664 229.917,2.947 230.200 C 3.254 230.506,3.462 231.580,3.462 232.857 C 3.462 234.036,3.635 235.000,3.846 235.000 C 4.058 235.000,4.231 235.692,4.231 236.538 C 4.231 237.385,4.414 238.077,4.638 238.077 C 4.862 238.077,4.938 238.250,4.808 238.462 C 4.677 238.673,4.753 238.846,4.977 238.846 C 5.207 238.846,5.385 239.649,5.385 240.692 C 5.385 241.708,5.557 242.711,5.767 242.921 C 5.977 243.131,6.188 243.767,6.235 244.335 C 6.282 244.902,6.542 245.451,6.814 245.556 C 7.103 245.666,7.308 246.388,7.308 247.296 C 7.308 248.417,7.467 248.846,7.885 248.846 C 8.288 248.846,8.462 249.252,8.462 250.192 C 8.462 250.933,8.635 251.538,8.846 251.538 C 9.058 251.538,9.231 252.231,9.231 253.077 C 9.231 254.103,9.391 254.583,9.712 254.519 C 10.006 254.460,10.240 254.946,10.316 255.769 C 10.384 256.510,10.600 257.280,10.797 257.481 C 10.993 257.682,11.154 258.336,11.154 258.935 C 11.154 259.548,11.406 260.121,11.731 260.246 C 12.048 260.367,12.308 260.881,12.308 261.387 C 12.308 261.894,12.481 262.308,12.692 262.308 C 12.904 262.308,13.077 262.832,13.077 263.474 C 13.077 264.155,13.317 264.731,13.654 264.861 C 13.983 264.987,14.231 265.561,14.231 266.195 C 14.231 266.807,14.404 267.308,14.615 267.308 C 14.827 267.308,15.000 267.740,15.000 268.269 C 15.000 268.868,15.218 269.231,15.577 269.231 C 15.936 269.231,16.154 269.594,16.154 270.192 C 16.154 270.721,16.327 271.154,16.538 271.154 C 16.750 271.154,16.923 271.568,16.923 272.074 C 16.923 272.580,17.183 273.094,17.500 273.216 C 17.832 273.344,18.077 273.918,18.077 274.571 C 18.077 275.195,18.234 275.763,18.426 275.833 C 18.618 275.904,18.835 276.300,18.907 276.714 C 19.050 277.534,20.174 278.846,20.733 278.846 C 20.925 278.846,20.992 279.190,20.882 279.611 C 20.755 280.096,20.909 280.462,21.303 280.613 C 21.644 280.744,21.923 281.247,21.923 281.731 C 21.923 282.214,22.194 282.714,22.524 282.841 C 22.855 282.968,23.027 283.232,22.905 283.428 C 22.784 283.624,22.931 284.030,23.231 284.330 C 23.531 284.630,23.839 285.293,23.917 285.803 C 23.994 286.313,24.269 286.687,24.528 286.635 C 24.788 286.582,25.000 286.798,25.000 287.115 C 25.000 287.433,25.173 287.692,25.385 287.692 C 25.596 287.692,25.769 288.125,25.769 288.654 C 25.769 289.252,25.987 289.615,26.346 289.615 C 26.705 289.615,26.923 289.979,26.923 290.577 C 26.923 291.106,27.096 291.538,27.308 291.538 C 27.519 291.538,27.692 291.798,27.692 292.115 C 27.692 292.433,27.952 292.692,28.269 292.692 C 28.628 292.692,28.846 293.056,28.846 293.654 C 28.846 294.268,29.063 294.615,29.446 294.615 C 29.776 294.615,29.938 294.788,29.808 295.000 C 29.677 295.212,29.840 295.385,30.170 295.385 C 30.525 295.385,30.769 295.718,30.769 296.206 C 30.769 296.658,31.202 297.428,31.731 297.918 C 32.260 298.408,32.692 299.174,32.692 299.620 C 32.692 300.065,32.865 300.323,33.077 300.192 C 33.288 300.062,33.462 300.206,33.462 300.513 C 33.462 300.820,33.721 301.171,34.038 301.293 C 34.356 301.415,34.615 301.853,34.615 302.268 C 34.615 302.682,35.048 303.361,35.577 303.777 C 36.106 304.193,36.538 304.654,36.538 304.801 C 36.538 304.949,36.928 305.394,37.404 305.791 C 37.880 306.188,38.053 306.519,37.788 306.526 C 37.204 306.541,38.654 308.077,39.253 308.077 C 39.477 308.077,39.573 308.219,39.465 308.393 C 39.247 308.747,40.567 310.000,41.158 310.000 C 41.367 310.000,41.538 310.433,41.538 310.962 C 41.538 311.490,41.712 311.923,41.923 311.923 C 42.135 311.923,42.308 312.183,42.308 312.500 C 42.308 312.817,42.493 313.077,42.720 313.077 C 43.252 313.077,44.231 314.055,44.231 314.588 C 44.231 314.815,44.416 315.000,44.643 315.000 C 45.156 315.000,46.154 315.971,46.154 316.470 C 46.154 316.674,46.413 316.940,46.731 317.062 C 47.048 317.184,47.308 317.508,47.308 317.781 C 47.308 318.055,47.740 318.604,48.269 319.001 C 48.798 319.398,49.231 319.885,49.231 320.083 C 49.231 320.545,55.328 326.538,55.798 326.538 C 55.994 326.538,56.154 326.724,56.154 326.951 C 56.154 327.483,57.132 328.462,57.665 328.462 C 57.891 328.462,58.077 328.647,58.077 328.874 C 58.077 329.406,59.055 330.385,59.588 330.385 C 59.815 330.385,60.000 330.558,60.000 330.769 C 60.000 331.213,61.535 332.839,61.544 332.404 C 61.548 332.245,61.707 332.363,61.898 332.665 C 62.090 332.968,62.516 333.255,62.846 333.303 C 63.567 333.409,64.615 334.398,64.615 334.973 C 64.615 335.199,64.846 335.385,65.127 335.385 C 65.409 335.385,65.871 335.817,66.154 336.346 C 66.437 336.875,66.899 337.308,67.180 337.308 C 67.462 337.308,67.692 337.586,67.692 337.926 C 67.692 338.336,67.901 338.464,68.312 338.306 C 68.762 338.133,68.869 338.233,68.701 338.669 C 68.568 339.018,68.632 339.171,68.853 339.034 C 69.064 338.904,69.340 339.067,69.466 339.396 C 69.593 339.726,69.851 339.900,70.040 339.783 C 70.230 339.666,70.385 339.753,70.385 339.977 C 70.385 340.201,70.644 340.385,70.962 340.385 C 71.279 340.385,71.538 340.558,71.538 340.769 C 71.538 340.981,71.798 341.154,72.115 341.154 C 72.433 341.154,72.692 341.339,72.692 341.566 C 72.692 342.245,73.736 343.077,74.588 343.077 C 75.040 343.077,75.385 343.327,75.385 343.654 C 75.385 343.971,75.570 344.231,75.797 344.231 C 76.329 344.231,77.308 345.209,77.308 345.742 C 77.308 345.968,77.722 346.154,78.228 346.154 C 78.734 346.154,79.252 346.424,79.379 346.755 C 79.506 347.086,79.784 347.249,79.997 347.117 C 80.210 346.985,80.385 347.148,80.385 347.477 C 80.385 347.860,80.732 348.077,81.346 348.077 C 81.890 348.077,82.308 348.299,82.308 348.589 C 82.308 348.870,82.740 349.332,83.269 349.615 C 83.798 349.898,84.231 350.274,84.231 350.450 C 84.231 350.625,84.463 350.769,84.748 350.769 C 85.032 350.769,85.768 351.203,86.382 351.733 C 86.997 352.263,87.838 352.805,88.251 352.938 C 89.157 353.228,90.000 354.023,90.000 354.588 C 90.000 354.815,90.433 355.000,90.962 355.000 C 91.490 355.000,91.923 355.173,91.923 355.385 C 91.923 355.596,92.260 355.769,92.672 355.769 C 93.085 355.769,93.889 356.202,94.459 356.731 C 95.030 357.260,95.818 357.692,96.210 357.692 C 96.602 357.692,96.923 357.915,96.923 358.187 C 96.923 358.460,97.310 358.712,97.783 358.747 C 98.256 358.783,98.703 358.993,98.776 359.214 C 98.850 359.435,99.250 359.615,99.666 359.615 C 100.081 359.615,100.822 360.048,101.312 360.577 C 101.803 361.106,102.573 361.538,103.025 361.538 C 103.498 361.538,103.846 361.783,103.846 362.115 C 103.846 362.443,104.191 362.692,104.643 362.692 C 105.081 362.692,105.699 362.952,106.016 363.269 C 106.334 363.587,106.937 363.846,107.358 363.846 C 107.778 363.846,108.015 364.019,107.885 364.231 C 107.745 364.456,108.151 364.615,108.865 364.615 C 109.807 364.615,110.031 364.750,109.853 365.212 C 109.717 365.568,109.784 365.710,110.021 365.564 C 110.240 365.429,110.837 365.593,111.350 365.928 C 111.862 366.264,112.633 366.538,113.063 366.538 C 113.541 366.538,113.858 366.801,113.877 367.212 C 113.893 367.582,113.991 367.678,114.094 367.425 C 114.228 367.094,114.657 367.176,115.614 367.713 C 116.347 368.125,117.287 368.462,117.704 368.462 C 118.121 368.462,118.418 368.674,118.365 368.933 C 118.313 369.193,118.702 369.467,119.231 369.543 C 119.760 369.618,120.357 369.839,120.558 370.033 C 120.759 370.226,121.399 370.385,121.981 370.385 C 122.563 370.385,123.177 370.602,123.346 370.867 C 123.712 371.441,126.054 372.308,127.239 372.308 C 127.727 372.308,128.077 372.548,128.077 372.885 C 128.077 373.286,128.480 373.462,129.400 373.462 C 130.128 373.462,130.831 373.635,130.962 373.846 C 131.092 374.058,131.776 374.231,132.482 374.231 C 133.267 374.231,133.850 374.455,133.985 374.808 C 134.124 375.170,134.712 375.385,135.565 375.385 C 136.312 375.385,136.923 375.558,136.923 375.769 C 136.923 375.981,137.510 376.154,138.228 376.154 C 139.037 376.154,139.618 376.375,139.756 376.734 C 139.878 377.054,140.113 377.293,140.278 377.266 C 141.364 377.087,143.854 377.369,143.680 377.650 C 143.564 377.838,144.116 378.114,144.907 378.261 C 145.699 378.409,146.596 378.731,146.901 378.977 C 147.347 379.336,147.392 379.311,147.133 378.846 C 146.870 378.377,146.907 378.359,147.328 378.750 C 147.613 379.014,148.423 379.231,149.127 379.231 C 149.839 379.231,150.496 379.458,150.605 379.743 C 150.731 380.070,151.591 380.285,152.997 380.341 C 154.204 380.389,155.250 380.591,155.321 380.791 C 155.391 380.990,156.256 381.159,157.244 381.166 C 158.231 381.173,159.358 381.420,159.747 381.716 C 160.160 382.028,161.363 382.253,162.623 382.253 C 163.822 382.253,164.851 382.437,164.927 382.665 C 165.009 382.911,166.276 383.077,168.077 383.077 C 169.945 383.077,171.144 383.239,171.232 383.504 C 171.683 384.858,228.317 384.858,228.768 383.504 C 228.856 383.239,230.055 383.077,231.923 383.077 C 233.724 383.077,234.991 382.911,235.073 382.665 C 235.149 382.437,236.178 382.253,237.377 382.253 C 238.637 382.253,239.840 382.028,240.253 381.716 C 240.642 381.420,241.769 381.173,242.756 381.166 C 243.744 381.159,244.609 380.990,244.679 380.791 C 244.750 380.591,245.796 380.389,247.003 380.341 C 248.409 380.285,249.269 380.070,249.395 379.743 C 249.504 379.458,250.161 379.231,250.873 379.231 C 251.577 379.231,252.387 379.014,252.672 378.750 C 253.093 378.359,253.130 378.377,252.867 378.846 C 252.608 379.311,252.653 379.336,253.099 378.977 C 253.404 378.731,254.301 378.409,255.093 378.261 C 255.884 378.114,256.436 377.838,256.320 377.650 C 256.146 377.369,258.636 377.087,259.722 377.266 C 259.887 377.293,260.122 377.054,260.244 376.734 C 260.382 376.375,260.963 376.154,261.772 376.154 C 262.490 376.154,263.077 375.981,263.077 375.769 C 263.077 375.558,263.688 375.385,264.435 375.385 C 265.288 375.385,265.876 375.170,266.015 374.808 C 266.150 374.455,266.733 374.231,267.518 374.231 C 268.224 374.231,268.908 374.058,269.038 373.846 C 269.169 373.635,269.872 373.462,270.600 373.462 C 271.520 373.462,271.923 373.286,271.923 372.885 C 271.923 372.548,272.273 372.308,272.761 372.308 C 273.946 372.308,276.288 371.441,276.654 370.867 C 276.823 370.602,277.437 370.385,278.019 370.385 C 278.601 370.385,279.241 370.226,279.442 370.033 C 279.643 369.839,280.240 369.618,280.769 369.543 C 281.298 369.467,281.687 369.193,281.635 368.933 C 281.582 368.674,281.879 368.462,282.296 368.462 C 282.713 368.462,283.653 368.125,284.386 367.713 C 285.343 367.176,285.772 367.094,285.906 367.425 C 286.009 367.678,286.107 367.582,286.123 367.212 C 286.142 366.801,286.459 366.538,286.937 366.538 C 287.367 366.538,288.138 366.264,288.650 365.928 C 289.163 365.593,289.760 365.429,289.979 365.564 C 290.216 365.710,290.283 365.568,290.147 365.212 C 289.969 364.750,290.193 364.615,291.135 364.615 C 291.849 364.615,292.255 364.456,292.115 364.231 C 291.985 364.019,292.222 363.846,292.642 363.846 C 293.063 363.846,293.666 363.587,293.984 363.269 C 294.301 362.952,294.919 362.692,295.357 362.692 C 295.809 362.692,296.154 362.443,296.154 362.115 C 296.154 361.783,296.502 361.538,296.975 361.538 C 297.427 361.538,298.197 361.106,298.688 360.577 C 299.178 360.048,299.919 359.615,300.334 359.615 C 300.750 359.615,301.150 359.435,301.224 359.214 C 301.297 358.993,301.744 358.783,302.217 358.747 C 302.690 358.712,303.077 358.460,303.077 358.187 C 303.077 357.915,303.398 357.692,303.790 357.692 C 304.182 357.692,304.970 357.260,305.541 356.731 C 306.111 356.202,306.915 355.769,307.328 355.769 C 307.740 355.769,308.077 355.596,308.077 355.385 C 308.077 355.173,308.510 355.000,309.038 355.000 C 309.567 355.000,310.000 354.815,310.000 354.588 C 310.000 354.023,310.843 353.228,311.749 352.938 C 312.162 352.805,313.003 352.263,313.618 351.733 C 314.232 351.203,314.968 350.769,315.252 350.769 C 315.537 350.769,315.769 350.625,315.769 350.450 C 315.769 350.274,316.202 349.898,316.731 349.615 C 317.260 349.332,317.692 348.870,317.692 348.589 C 317.692 348.299,318.110 348.077,318.654 348.077 C 319.268 348.077,319.615 347.860,319.615 347.477 C 319.615 347.148,319.790 346.985,320.003 347.117 C 320.216 347.249,320.494 347.086,320.621 346.755 C 320.748 346.424,321.266 346.154,321.772 346.154 C 322.278 346.154,322.692 345.968,322.692 345.742 C 322.692 345.209,323.671 344.231,324.203 344.231 C 324.430 344.231,324.615 343.971,324.615 343.654 C 324.615 343.327,324.960 343.077,325.412 343.077 C 326.264 343.077,327.308 342.245,327.308 341.566 C 327.308 341.339,327.567 341.154,327.885 341.154 C 328.202 341.154,328.462 340.981,328.462 340.769 C 328.462 340.558,328.721 340.385,329.038 340.385 C 329.356 340.385,329.615 340.201,329.615 339.977 C 329.615 339.753,329.770 339.666,329.960 339.783 C 330.149 339.900,330.407 339.726,330.534 339.396 C 330.660 339.067,330.936 338.904,331.147 339.034 C 331.368 339.171,331.432 339.018,331.299 338.669 C 331.131 338.233,331.238 338.133,331.688 338.306 C 332.099 338.464,332.308 338.336,332.308 337.926 C 332.308 337.586,332.538 337.308,332.820 337.308 C 333.101 337.308,333.563 336.875,333.846 336.346 C 334.129 335.817,334.591 335.385,334.873 335.385 C 335.154 335.385,335.385 335.199,335.385 334.973 C 335.385 334.414,336.426 333.410,337.108 333.310 C 337.413 333.265,337.993 332.848,338.396 332.383 C 338.799 331.919,339.325 331.538,339.564 331.538 C 339.804 331.538,340.000 331.279,340.000 330.962 C 340.000 330.644,340.185 330.385,340.412 330.385 C 340.945 330.385,341.923 329.406,341.923 328.874 C 341.923 328.647,342.109 328.462,342.335 328.462 C 342.868 328.462,343.846 327.483,343.846 326.951 C 343.846 326.724,344.006 326.538,344.202 326.538 C 344.672 326.538,350.769 320.545,350.769 320.083 C 350.769 319.885,351.202 319.398,351.731 319.001 C 352.260 318.604,352.692 318.055,352.692 317.781 C 352.692 317.508,352.952 317.184,353.269 317.062 C 353.587 316.940,353.846 316.674,353.846 316.470 C 353.846 315.971,354.844 315.000,355.357 315.000 C 355.584 315.000,355.769 314.815,355.769 314.588 C 355.769 314.055,356.748 313.077,357.280 313.077 C 357.507 313.077,357.692 312.817,357.692 312.500 C 357.692 312.183,357.865 311.923,358.077 311.923 C 358.288 311.923,358.462 311.490,358.462 310.962 C 358.462 310.433,358.633 310.000,358.842 310.000 C 359.433 310.000,360.753 308.747,360.535 308.393 C 360.427 308.219,360.523 308.077,360.747 308.077 C 361.346 308.077,362.796 306.541,362.212 306.526 C 361.947 306.519,362.120 306.188,362.596 305.791 C 363.072 305.394,363.462 304.949,363.462 304.801 C 363.462 304.654,363.894 304.193,364.423 303.777 C 364.952 303.361,365.385 302.682,365.385 302.268 C 365.385 301.853,365.644 301.415,365.962 301.293 C 366.279 301.171,366.538 300.820,366.538 300.513 C 366.538 300.206,366.712 300.062,366.923 300.192 C 367.135 300.323,367.308 300.065,367.308 299.620 C 367.308 299.174,367.740 298.408,368.269 297.918 C 368.798 297.428,369.231 296.658,369.231 296.206 C 369.231 295.718,369.475 295.385,369.830 295.385 C 370.160 295.385,370.323 295.212,370.192 295.000 C 370.062 294.788,370.224 294.615,370.554 294.615 C 370.937 294.615,371.154 294.268,371.154 293.654 C 371.154 293.056,371.372 292.692,371.731 292.692 C 372.057 292.692,372.308 292.348,372.308 291.900 C 372.308 291.465,372.481 291.215,372.692 291.346 C 372.910 291.481,373.077 291.158,373.077 290.600 C 373.077 289.981,373.291 289.615,373.654 289.615 C 374.013 289.615,374.231 289.252,374.231 288.654 C 374.231 288.125,374.404 287.692,374.615 287.692 C 374.827 287.692,375.000 287.433,375.000 287.115 C 375.000 286.798,375.212 286.582,375.472 286.635 C 375.731 286.687,376.006 286.313,376.083 285.803 C 376.161 285.293,376.469 284.630,376.769 284.330 C 377.069 284.030,377.216 283.624,377.095 283.428 C 376.973 283.232,377.145 282.968,377.476 282.841 C 377.806 282.714,378.077 282.214,378.077 281.731 C 378.077 281.247,378.356 280.744,378.697 280.613 C 379.091 280.462,379.245 280.096,379.118 279.611 C 379.008 279.190,379.075 278.846,379.267 278.846 C 379.826 278.846,380.950 277.534,381.093 276.714 C 381.165 276.300,381.382 275.904,381.574 275.833 C 381.766 275.763,381.923 275.195,381.923 274.571 C 381.923 273.918,382.168 273.344,382.500 273.216 C 382.817 273.094,383.077 272.580,383.077 272.074 C 383.077 271.568,383.250 271.154,383.462 271.154 C 383.673 271.154,383.846 270.721,383.846 270.192 C 383.846 269.594,384.064 269.231,384.423 269.231 C 384.782 269.231,385.000 268.868,385.000 268.269 C 385.000 267.740,385.173 267.308,385.385 267.308 C 385.596 267.308,385.769 266.807,385.769 266.195 C 385.769 265.561,386.017 264.987,386.346 264.861 C 386.683 264.731,386.923 264.155,386.923 263.474 C 386.923 262.832,387.096 262.308,387.308 262.308 C 387.519 262.308,387.692 261.894,387.692 261.387 C 387.692 260.881,387.952 260.367,388.269 260.246 C 388.594 260.121,388.846 259.548,388.846 258.935 C 388.846 258.336,389.007 257.682,389.203 257.481 C 389.400 257.280,389.616 256.510,389.684 255.769 C 389.760 254.946,389.994 254.460,390.288 254.519 C 390.609 254.583,390.769 254.103,390.769 253.077 C 390.769 252.231,390.942 251.538,391.154 251.538 C 391.365 251.538,391.538 250.933,391.538 250.192 C 391.538 249.252,391.712 248.846,392.115 248.846 C 392.533 248.846,392.692 248.417,392.692 247.296 C 392.692 246.388,392.897 245.666,393.186 245.556 C 393.458 245.451,393.718 244.902,393.765 244.335 C 393.812 243.767,394.023 243.131,394.233 242.921 C 394.443 242.711,394.615 241.708,394.615 240.692 C 394.615 239.649,394.793 238.846,395.023 238.846 C 395.247 238.846,395.323 238.673,395.192 238.462 C 395.062 238.250,395.138 238.077,395.362 238.077 C 395.586 238.077,395.769 237.385,395.769 236.538 C 395.769 235.692,395.942 235.000,396.154 235.000 C 396.365 235.000,396.538 234.817,396.538 234.593 C 396.538 234.369,396.365 234.292,396.154 234.423 C 395.942 234.554,395.769 234.477,395.769 234.253 C 395.769 234.029,395.942 233.846,396.154 233.846 C 396.365 233.846,396.538 233.141,396.538 232.280 C 396.538 231.419,396.770 230.483,397.053 230.200 C 397.336 229.917,397.600 228.761,397.640 227.631 C 397.679 226.501,397.880 225.519,398.086 225.449 C 398.293 225.378,398.462 223.777,398.462 221.891 C 398.462 219.201,398.578 218.462,399.002 218.462 C 399.728 218.462,399.800 216.079,399.800 192.308 C 399.800 168.537,399.728 166.154,399.002 166.154 C 398.578 166.154,398.462 165.414,398.462 162.724 C 398.462 160.838,398.293 159.237,398.086 159.167 C 397.880 159.096,397.679 158.114,397.640 156.984 C 397.600 155.855,397.336 154.699,397.053 154.416 C 396.770 154.133,396.538 153.196,396.538 152.335 C 396.538 151.474,396.365 150.769,396.154 150.769 C 395.942 150.769,395.769 150.586,395.769 150.362 C 395.769 150.138,395.942 150.062,396.154 150.192 C 396.365 150.323,396.538 150.247,396.538 150.023 C 396.538 149.799,396.365 149.615,396.154 149.615 C 395.942 149.615,395.769 148.923,395.769 148.077 C 395.769 147.231,395.586 146.538,395.362 146.538 C 395.138 146.538,395.062 146.365,395.192 146.154 C 395.323 145.942,395.247 145.769,395.023 145.769 C 394.793 145.769,394.615 144.966,394.615 143.923 C 394.615 142.908,394.443 141.905,394.233 141.695 C 394.023 141.484,393.812 140.848,393.765 140.281 C 393.718 139.713,393.458 139.164,393.186 139.060 C 392.897 138.949,392.692 138.227,392.692 137.320 C 392.692 136.198,392.533 135.769,392.115 135.769 C 391.712 135.769,391.538 135.363,391.538 134.423 C 391.538 133.683,391.365 133.077,391.154 133.077 C 390.942 133.077,390.769 132.385,390.769 131.538 C 390.769 130.513,390.609 130.032,390.288 130.096 C 389.994 130.155,389.760 129.670,389.684 128.846 C 389.616 128.106,389.400 127.336,389.203 127.135 C 389.007 126.934,388.846 126.279,388.846 125.680 C 388.846 125.067,388.594 124.495,388.269 124.370 C 387.952 124.248,387.692 123.734,387.692 123.228 C 387.692 122.722,387.519 122.308,387.308 122.308 C 387.096 122.308,386.923 121.783,386.923 121.142 C 386.923 120.460,386.683 119.884,386.346 119.754 C 386.017 119.628,385.769 119.055,385.769 118.420 C 385.769 117.808,385.596 117.308,385.385 117.308 C 385.173 117.308,385.000 116.875,385.000 116.346 C 385.000 115.748,384.782 115.385,384.423 115.385 C 384.064 115.385,383.846 115.021,383.846 114.423 C 383.846 113.894,383.673 113.462,383.462 113.462 C 383.250 113.462,383.077 113.047,383.077 112.541 C 383.077 112.035,382.817 111.521,382.500 111.399 C 382.168 111.272,381.923 110.697,381.923 110.044 C 381.923 109.420,381.766 108.853,381.574 108.782 C 381.382 108.712,381.165 108.315,381.093 107.901 C 380.950 107.082,379.826 105.769,379.267 105.769 C 379.075 105.769,379.008 105.425,379.118 105.005 C 379.245 104.520,379.091 104.153,378.697 104.002 C 378.356 103.871,378.077 103.368,378.077 102.885 C 378.077 102.401,377.806 101.902,377.476 101.775 C 377.145 101.648,376.973 101.384,377.095 101.188 C 377.216 100.992,377.069 100.586,376.769 100.286 C 376.469 99.986,376.161 99.323,376.083 98.812 C 376.006 98.302,375.731 97.928,375.472 97.981 C 375.212 98.034,375.000 97.817,375.000 97.500 C 375.000 97.183,374.827 96.923,374.615 96.923 C 374.404 96.923,374.231 96.490,374.231 95.962 C 374.231 95.363,374.013 95.000,373.654 95.000 C 373.295 95.000,373.077 94.637,373.077 94.038 C 373.077 93.510,372.904 93.077,372.692 93.077 C 372.481 93.077,372.308 92.817,372.308 92.500 C 372.308 92.183,372.048 91.923,371.731 91.923 C 371.372 91.923,371.154 91.560,371.154 90.962 C 371.154 90.347,370.937 90.000,370.554 90.000 C 370.224 90.000,370.062 89.827,370.192 89.615 C 370.323 89.404,370.160 89.231,369.830 89.231 C 369.475 89.231,369.231 88.897,369.231 88.409 C 369.231 87.958,368.798 87.187,368.269 86.697 C 367.740 86.207,367.308 85.441,367.308 84.996 C 367.308 84.550,367.135 84.292,366.923 84.423 C 366.712 84.554,366.538 84.409,366.538 84.102 C 366.538 83.795,366.279 83.444,365.962 83.322 C 365.644 83.201,365.385 82.762,365.385 82.348 C 365.385 81.933,364.952 81.254,364.423 80.838 C 363.894 80.422,363.462 79.961,363.462 79.814 C 363.462 79.667,363.072 79.222,362.596 78.824 C 362.120 78.427,361.947 78.097,362.212 78.090 C 362.796 78.074,361.346 76.538,360.747 76.538 C 360.523 76.538,360.427 76.396,360.535 76.222 C 360.753 75.869,359.433 74.615,358.842 74.615 C 358.633 74.615,358.462 74.183,358.462 73.654 C 358.462 73.125,358.288 72.692,358.077 72.692 C 357.865 72.692,357.692 72.433,357.692 72.115 C 357.692 71.798,357.507 71.538,357.280 71.538 C 356.748 71.538,355.769 70.560,355.769 70.027 C 355.769 69.801,355.584 69.615,355.357 69.615 C 354.844 69.615,353.846 68.645,353.846 68.146 C 353.846 67.942,353.587 67.675,353.269 67.553 C 352.952 67.431,352.692 67.108,352.692 66.834 C 352.692 66.560,352.260 66.011,351.731 65.614 C 351.202 65.217,350.769 64.731,350.769 64.533 C 350.769 64.070,344.672 58.077,344.202 58.077 C 344.006 58.077,343.846 57.891,343.846 57.665 C 343.846 57.132,342.868 56.154,342.335 56.154 C 342.109 56.154,341.923 55.968,341.923 55.742 C 341.923 55.209,340.945 54.231,340.412 54.231 C 340.185 54.231,340.000 54.058,340.000 53.846 C 340.000 53.402,338.465 51.777,338.456 52.212 C 338.452 52.370,338.293 52.253,338.102 51.950 C 337.910 51.648,337.484 51.361,337.154 51.312 C 336.433 51.206,335.385 50.217,335.385 49.643 C 335.385 49.416,335.154 49.231,334.873 49.231 C 334.591 49.231,334.129 48.798,333.846 48.269 C 333.563 47.740,333.101 47.308,332.820 47.308 C 332.538 47.308,332.308 47.030,332.308 46.690 C 332.308 46.279,332.099 46.151,331.688 46.309 C 331.238 46.482,331.131 46.383,331.299 45.946 C 331.432 45.598,331.368 45.444,331.147 45.581 C 330.936 45.711,330.660 45.548,330.534 45.219 C 330.407 44.889,330.149 44.716,329.960 44.833 C 329.770 44.950,329.615 44.862,329.615 44.638 C 329.615 44.414,329.356 44.231,329.038 44.231 C 328.721 44.231,328.462 44.058,328.462 43.846 C 328.462 43.635,328.202 43.462,327.885 43.462 C 327.567 43.462,327.308 43.276,327.308 43.049 C 327.308 42.371,326.264 41.538,325.412 41.538 C 324.960 41.538,324.615 41.289,324.615 40.962 C 324.615 40.644,324.430 40.385,324.203 40.385 C 323.671 40.385,322.692 39.406,322.692 38.874 C 322.692 38.647,322.278 38.462,321.772 38.462 C 321.266 38.462,320.748 38.191,320.621 37.860 C 320.494 37.530,320.216 37.367,320.003 37.498 C 319.790 37.630,319.615 37.468,319.615 37.138 C 319.615 36.755,319.268 36.538,318.654 36.538 C 318.110 36.538,317.692 36.316,317.692 36.027 C 317.692 35.745,317.260 35.283,316.731 35.000 C 316.202 34.717,315.769 34.342,315.769 34.166 C 315.769 33.990,315.537 33.846,315.252 33.846 C 314.968 33.846,314.232 33.412,313.618 32.882 C 313.003 32.352,312.162 31.810,311.749 31.678 C 310.843 31.387,310.000 30.592,310.000 30.027 C 310.000 29.801,309.567 29.615,309.038 29.615 C 308.510 29.615,308.077 29.442,308.077 29.231 C 308.077 29.019,307.740 28.846,307.328 28.846 C 306.915 28.846,306.111 28.413,305.541 27.885 C 304.970 27.356,304.182 26.923,303.790 26.923 C 303.398 26.923,303.077 26.700,303.077 26.428 C 303.077 26.156,302.690 25.904,302.217 25.868 C 301.744 25.833,301.297 25.623,301.224 25.402 C 301.150 25.181,300.750 25.000,300.334 25.000 C 299.919 25.000,299.178 24.567,298.688 24.038 C 298.197 23.510,297.427 23.077,296.975 23.077 C 296.502 23.077,296.154 22.833,296.154 22.500 C 296.154 22.173,295.809 21.923,295.357 21.923 C 294.919 21.923,294.301 21.663,293.984 21.346 C 293.666 21.029,293.063 20.769,292.642 20.769 C 292.222 20.769,291.985 20.596,292.115 20.385 C 292.255 20.159,291.849 20.000,291.135 20.000 C 290.193 20.000,289.969 19.865,290.147 19.403 C 290.283 19.047,290.216 18.905,289.979 19.052 C 289.760 19.187,289.163 19.023,288.650 18.687 C 288.138 18.351,287.367 18.077,286.937 18.077 C 286.459 18.077,286.142 17.814,286.123 17.404 C 286.107 17.034,286.009 16.938,285.906 17.191 C 285.772 17.521,285.343 17.440,284.386 16.902 C 283.653 16.491,282.713 16.154,282.296 16.154 C 281.879 16.154,281.582 15.942,281.635 15.682 C 281.687 15.423,281.298 15.149,280.769 15.073 C 280.240 14.997,279.643 14.776,279.442 14.583 C 279.241 14.389,278.601 14.231,278.019 14.231 C 277.437 14.231,276.823 14.013,276.654 13.748 C 276.288 13.174,273.946 12.308,272.761 12.308 C 272.273 12.308,271.923 12.067,271.923 11.731 C 271.923 11.330,271.520 11.154,270.600 11.154 C 269.872 11.154,269.169 10.981,269.038 10.769 C 268.908 10.558,268.224 10.385,267.518 10.385 C 266.733 10.385,266.150 10.161,266.015 9.808 C 265.876 9.446,265.288 9.231,264.435 9.231 C 263.688 9.231,263.077 9.058,263.077 8.846 C 263.077 8.635,262.490 8.462,261.772 8.462 C 260.963 8.462,260.382 8.241,260.244 7.881 C 260.122 7.562,259.887 7.323,259.722 7.350 C 258.636 7.528,256.146 7.247,256.320 6.965 C 256.436 6.777,255.884 6.502,255.093 6.354 C 254.301 6.206,253.404 5.884,253.099 5.639 C 252.653 5.279,252.608 5.305,252.867 5.769 C 253.130 6.238,253.093 6.256,252.672 5.865 C 252.387 5.601,251.577 5.385,250.873 5.385 C 250.161 5.385,249.504 5.157,249.395 4.873 C 249.269 4.545,248.409 4.330,247.003 4.274 C 245.796 4.227,244.750 4.024,244.679 3.825 C 244.609 3.625,243.744 3.456,242.756 3.449 C 241.769 3.443,240.642 3.195,240.253 2.900 C 239.840 2.587,238.637 2.363,237.377 2.363 C 236.178 2.363,235.149 2.179,235.073 1.951 C 234.991 1.704,233.724 1.538,231.923 1.538 C 230.156 1.538,228.854 1.371,228.775 1.134 C 228.526 0.386,180.371 -0.608,179.615 0.119 M269.400 85.052 C 272.329 85.601,276.674 87.159,278.550 88.333 C 279.339 88.827,280.121 89.231,280.287 89.231 C 281.734 89.231,288.790 97.917,289.437 100.495 C 289.719 101.621,288.160 103.462,286.924 103.462 C 286.564 103.462,285.455 103.894,284.460 104.423 C 283.465 104.952,282.325 105.385,281.925 105.385 C 281.526 105.385,281.092 105.558,280.962 105.769 C 280.161 107.065,278.408 105.912,276.405 102.773 C 269.361 91.727,254.224 93.901,248.845 106.731 C 247.468 110.013,247.477 139.703,248.856 142.885 C 250.399 146.447,250.896 147.304,252.204 148.654 C 259.694 156.383,274.239 153.396,277.483 143.462 C 277.863 142.298,278.325 140.949,278.510 140.463 C 278.695 139.977,278.846 137.954,278.846 135.968 L 278.846 132.356 271.891 132.236 C 263.409 132.089,263.846 132.399,263.846 126.538 C 263.846 120.442,262.536 120.983,277.646 120.851 C 293.589 120.711,291.927 119.657,291.911 129.904 C 291.895 139.822,290.957 146.056,288.887 150.000 C 286.595 154.368,285.568 155.693,281.851 159.079 C 279.844 160.907,275.347 162.983,270.577 164.283 C 267.997 164.987,258.162 164.988,255.577 164.285 C 251.290 163.120,246.482 160.861,244.951 159.295 C 244.607 158.942,244.001 158.380,243.605 158.046 C 240.355 155.301,237.206 149.773,235.845 144.423 C 234.435 138.877,233.693 120.180,234.608 113.256 C 234.859 111.359,235.148 108.942,235.251 107.885 C 235.354 106.827,235.585 105.615,235.764 105.192 C 235.943 104.769,236.179 104.077,236.289 103.654 C 238.600 94.715,248.476 85.534,255.970 85.358 C 256.600 85.343,257.462 85.182,257.885 85.000 C 259.019 84.513,266.707 84.548,269.400 85.052 M184.490 131.979 C 186.218 132.265,187.762 132.630,187.919 132.788 C 188.076 132.947,188.687 133.077,189.277 133.077 C 189.866 133.077,190.746 133.236,191.232 133.431 C 191.718 133.625,193.033 134.064,194.154 134.406 C 197.516 135.432,204.183 138.824,204.551 139.696 C 204.622 139.863,204.899 140.000,205.167 140.000 C 207.308 140.000,214.886 149.744,216.685 154.808 C 217.060 155.865,217.522 157.077,217.710 157.500 C 219.622 161.795,219.575 177.688,217.644 179.788 C 217.459 179.989,217.308 180.476,217.308 180.870 C 217.308 181.762,213.573 189.429,212.843 190.034 C 212.549 190.279,212.308 190.642,212.308 190.842 C 212.308 191.912,204.335 200.262,201.346 202.322 C 197.711 204.827,193.570 206.928,190.000 208.077 C 187.631 208.840,187.526 209.193,188.977 211.533 C 190.293 213.656,190.720 214.382,191.015 215.000 C 191.166 215.317,191.389 215.663,191.510 215.769 C 191.889 216.100,192.705 217.470,192.941 218.173 C 193.065 218.543,193.299 218.846,193.462 218.846 C 193.624 218.846,193.858 219.149,193.982 219.519 C 194.207 220.188,195.009 221.556,195.393 221.923 C 195.503 222.029,196.368 223.327,197.313 224.808 C 198.259 226.288,199.163 227.673,199.323 227.885 C 199.482 228.096,201.197 230.519,203.133 233.269 C 205.070 236.019,207.061 238.711,207.558 239.252 C 208.055 239.792,208.462 240.441,208.462 240.694 C 208.462 240.947,208.620 241.154,208.815 241.154 C 209.009 241.154,209.522 241.716,209.954 242.404 C 210.386 243.091,211.193 244.173,211.748 244.808 C 212.303 245.442,213.132 246.450,213.590 247.048 C 214.048 247.645,214.856 248.619,215.385 249.213 C 215.913 249.807,217.124 251.222,218.074 252.358 C 221.071 255.940,228.094 262.692,228.824 262.692 C 228.996 262.692,229.338 262.935,229.585 263.232 C 229.831 263.529,230.934 264.228,232.035 264.786 C 233.137 265.344,234.298 265.952,234.615 266.137 C 235.310 266.543,240.058 267.913,241.886 268.235 C 244.967 268.778,245.461 274.458,242.559 275.964 C 239.081 277.768,226.380 277.900,221.795 276.180 C 221.337 276.008,220.269 275.652,219.423 275.390 C 215.766 274.253,209.699 271.197,209.295 270.288 C 209.224 270.130,209.009 270.000,208.817 270.000 C 208.040 270.000,202.490 264.719,200.126 261.731 C 199.457 260.885,198.150 259.240,197.222 258.077 C 195.042 255.343,188.036 245.563,187.097 243.942 C 186.698 243.255,186.237 242.692,186.071 242.692 C 185.905 242.692,185.769 242.547,185.769 242.369 C 185.769 242.042,181.927 235.973,181.175 235.112 C 180.952 234.857,180.769 234.467,180.769 234.247 C 180.769 234.027,180.608 233.846,180.411 233.846 C 180.213 233.846,179.930 233.457,179.782 232.981 C 179.633 232.505,179.400 232.029,179.262 231.923 C 178.802 231.568,176.298 227.429,174.376 223.846 C 173.979 223.106,173.530 222.407,173.378 222.293 C 173.227 222.179,172.636 221.227,172.067 220.178 C 171.497 219.128,170.631 217.577,170.143 216.731 C 169.655 215.885,168.969 214.673,168.620 214.038 C 167.186 211.436,167.591 211.538,158.757 211.538 L 150.711 211.538 150.850 234.327 L 150.990 257.115 152.001 259.752 C 153.087 262.586,154.483 264.345,156.103 264.918 C 158.964 265.930,161.632 266.523,164.231 266.721 C 171.914 267.310,171.731 267.191,171.731 271.551 C 171.731 276.227,172.382 275.961,162.233 275.436 C 151.349 274.874,133.730 274.873,123.162 275.434 C 113.030 275.973,113.320 276.098,113.522 271.286 C 113.689 267.306,113.509 267.433,120.192 266.552 C 122.386 266.263,123.733 265.873,126.351 264.770 C 128.792 263.741,130.567 260.492,131.267 255.769 C 131.843 251.885,132.087 158.813,131.534 154.038 C 130.360 143.903,128.389 141.845,118.462 140.393 C 113.817 139.713,113.462 139.369,113.462 135.551 C 113.462 131.527,112.158 131.811,130.489 131.843 C 139.210 131.858,147.817 131.731,149.615 131.561 C 154.891 131.062,180.834 131.373,184.490 131.979 M151.058 143.298 C 150.899 143.458,150.769 156.084,150.769 171.355 L 150.769 199.120 153.365 199.371 C 162.016 200.210,173.724 199.939,176.346 198.839 C 176.769 198.662,178.067 198.232,179.231 197.885 C 181.742 197.135,185.265 195.462,186.317 194.519 C 186.730 194.149,187.222 193.846,187.409 193.846 C 188.013 193.846,193.024 188.532,193.837 187.030 C 194.270 186.231,194.775 185.317,194.959 185.000 C 198.462 178.986,199.440 166.670,196.929 160.192 C 194.514 153.964,192.176 150.857,187.692 147.920 C 181.390 143.791,179.507 143.415,164.038 143.190 C 157.058 143.088,151.216 143.137,151.058 143.298 " stroke="none" fill="#04d4ac" fill-rule="evenodd"></path><path id="path2" d="M261.646 85.283 C 262.657 85.363,264.215 85.362,265.108 85.281 C 266.000 85.200,265.173 85.135,263.269 85.137 C 261.365 85.138,260.635 85.204,261.646 85.283 M254.808 85.951 C 252.800 86.613,253.456 86.620,256.346 85.969 C 257.787 85.645,258.220 85.448,257.500 85.446 C 256.865 85.445,255.654 85.672,254.808 85.951 M271.346 86.154 C 271.769 86.336,272.375 86.484,272.692 86.484 C 273.056 86.484,272.985 86.362,272.500 86.154 C 272.077 85.972,271.471 85.823,271.154 85.823 C 270.790 85.823,270.861 85.945,271.346 86.154 M248.760 88.231 C 246.945 89.310,246.361 89.903,247.885 89.121 C 250.824 87.612,251.307 87.315,250.769 87.346 C 250.452 87.365,249.548 87.763,248.760 88.231 M276.346 87.920 C 279.272 89.462,279.615 89.625,279.615 89.470 C 279.615 89.177,276.227 87.308,275.701 87.310 C 275.421 87.311,275.712 87.586,276.346 87.920 M283.183 92.765 C 286.411 96.016,289.124 100.259,288.693 101.383 C 288.572 101.698,287.735 102.291,286.833 102.700 C 285.931 103.110,285.403 103.448,285.660 103.453 C 286.585 103.470,288.843 102.155,289.059 101.473 C 289.577 99.841,284.535 92.792,281.100 90.346 C 280.500 89.919,281.437 91.008,283.183 92.765 M242.847 92.788 C 241.445 94.274,239.677 96.495,240.628 95.577 C 241.652 94.589,244.702 91.154,244.556 91.154 C 244.465 91.154,243.696 91.889,242.847 92.788 M259.712 95.650 C 260.082 95.746,260.688 95.746,261.058 95.650 C 261.428 95.553,261.125 95.474,260.385 95.474 C 259.644 95.474,259.341 95.553,259.712 95.650 M265.678 95.657 C 266.156 95.749,266.848 95.745,267.216 95.649 C 267.584 95.553,267.192 95.477,266.346 95.482 C 265.500 95.486,265.199 95.565,265.678 95.657 M257.019 96.343 C 256.332 96.641,255.769 96.972,255.769 97.077 C 255.769 97.262,258.489 96.229,258.814 95.921 C 259.150 95.603,258.219 95.821,257.019 96.343 M269.438 96.464 C 272.105 97.582,273.802 98.844,275.586 101.034 C 276.533 102.196,277.308 102.975,277.308 102.764 C 277.308 101.290,270.158 95.711,268.370 95.791 C 268.103 95.803,268.584 96.105,269.438 96.464 M253.756 98.496 L 252.500 99.685 253.942 98.643 C 254.736 98.070,255.385 97.535,255.385 97.454 C 255.385 97.096,254.925 97.390,253.756 98.496 M251.717 100.153 C 250.639 101.609,249.232 103.868,249.243 104.127 C 249.249 104.290,249.651 103.779,250.135 102.991 C 250.620 102.203,251.335 101.207,251.724 100.777 C 252.113 100.347,252.354 99.918,252.260 99.824 C 252.165 99.729,251.921 99.878,251.717 100.153 M281.731 104.822 C 281.096 105.112,280.837 105.352,281.154 105.354 C 281.471 105.356,282.163 105.110,282.692 104.808 C 283.908 104.113,283.259 104.122,281.731 104.822 M235.962 105.769 C 235.816 106.434,235.776 107.058,235.874 107.156 C 235.972 107.254,236.163 106.782,236.298 106.106 C 236.619 104.503,236.308 104.192,235.962 105.769 M235.489 109.231 C 235.489 110.183,235.564 110.572,235.656 110.096 C 235.748 109.620,235.748 108.841,235.656 108.365 C 235.564 107.889,235.489 108.279,235.489 109.231 M247.566 109.189 C 247.424 109.899,247.327 110.849,247.350 111.298 C 247.373 111.748,247.545 111.337,247.733 110.385 C 247.920 109.433,248.017 108.483,247.949 108.275 C 247.880 108.067,247.708 108.478,247.566 109.189 M234.864 114.481 C 234.559 118.092,234.616 132.349,234.949 135.769 C 235.083 137.144,235.192 132.255,235.192 124.904 C 235.192 117.553,235.174 111.538,235.153 111.538 C 235.131 111.538,235.001 112.863,234.864 114.481 M247.093 124.808 C 247.093 130.942,247.146 133.398,247.211 130.265 C 247.276 127.132,247.275 122.113,247.211 119.111 C 247.146 116.110,247.093 118.673,247.093 124.808 M272.043 121.442 C 275.388 121.506,280.754 121.506,283.966 121.441 C 287.179 121.377,284.442 121.325,277.885 121.325 C 271.327 121.325,268.698 121.378,272.043 121.442 M264.312 126.411 C 264.229 130.411,264.400 131.538,265.088 131.538 C 265.339 131.538,265.329 131.358,265.061 131.035 C 264.832 130.759,264.587 128.725,264.518 126.516 L 264.393 122.500 264.312 126.411 M291.314 129.808 C 291.315 133.827,291.372 135.419,291.441 133.345 C 291.510 131.272,291.510 127.983,291.440 126.038 C 291.370 124.092,291.314 125.788,291.314 129.808 M151.923 131.932 C 149.490 132.064,152.346 132.093,158.269 131.996 C 164.192 131.900,169.111 131.757,169.199 131.680 C 169.433 131.473,157.076 131.654,151.923 131.932 M173.494 131.678 C 173.582 131.755,175.558 131.911,177.885 132.024 C 180.651 132.158,181.516 132.120,180.385 131.913 C 178.664 131.597,173.187 131.411,173.494 131.678 M272.308 131.909 L 279.038 132.115 279.259 134.808 L 279.480 137.500 279.547 134.981 C 279.643 131.449,279.809 131.524,272.135 131.621 L 265.577 131.703 272.308 131.909 M114.519 132.338 C 113.975 132.655,113.846 133.270,113.846 135.549 C 113.846 137.783,113.986 138.473,114.519 138.877 C 115.092 139.310,115.121 139.305,114.712 138.847 C 114.420 138.520,114.231 137.204,114.231 135.507 C 114.231 132.467,114.019 132.748,116.731 132.175 C 117.219 132.072,117.079 132.000,116.346 131.979 C 115.712 131.961,114.889 132.123,114.519 132.338 M183.942 132.573 C 184.313 132.670,184.918 132.670,185.288 132.573 C 185.659 132.476,185.356 132.397,184.615 132.397 C 183.875 132.397,183.572 132.476,183.942 132.573 M186.731 133.059 C 187.469 133.393,189.529 133.612,189.199 133.320 C 189.111 133.243,188.346 133.074,187.500 132.945 C 186.428 132.781,186.195 132.816,186.731 133.059 M194.391 135.208 C 195.643 135.728,196.729 136.092,196.804 136.016 C 196.983 135.837,193.104 134.226,192.545 134.247 C 192.309 134.256,193.140 134.688,194.391 135.208 M198.462 136.716 C 198.462 136.823,199.362 137.366,200.462 137.924 C 202.581 138.998,204.252 140.084,205.673 141.310 C 206.149 141.721,206.538 141.896,206.538 141.699 C 206.538 141.501,205.457 140.620,204.135 139.740 C 201.625 138.069,198.462 136.383,198.462 136.716 M247.346 138.686 C 247.367 139.303,247.531 140.240,247.711 140.769 C 247.932 141.418,247.966 141.105,247.816 139.808 C 247.566 137.644,247.288 136.980,247.346 138.686 M235.489 140.385 C 235.489 141.337,235.564 141.726,235.656 141.250 C 235.748 140.774,235.748 139.995,235.656 139.519 C 235.564 139.043,235.489 139.433,235.489 140.385 M290.621 141.006 C 290.480 142.205,290.442 143.262,290.535 143.356 C 290.629 143.450,290.828 142.552,290.976 141.361 C 291.125 140.170,291.164 139.112,291.062 139.011 C 290.961 138.909,290.762 139.807,290.621 141.006 M117.115 139.816 C 118.173 140.088,119.558 140.310,120.192 140.310 C 120.827 140.310,120.221 140.077,118.846 139.794 C 115.699 139.145,114.560 139.160,117.115 139.816 M278.526 141.410 C 278.265 142.384,278.120 143.249,278.204 143.332 C 278.287 143.415,278.576 142.695,278.846 141.731 C 279.116 140.767,279.261 139.902,279.168 139.809 C 279.075 139.716,278.786 140.437,278.526 141.410 M122.308 140.769 C 122.837 140.939,123.615 141.077,124.038 141.077 C 124.648 141.077,124.608 141.013,123.846 140.769 C 123.317 140.600,122.538 140.461,122.115 140.461 C 121.506 140.461,121.546 140.525,122.308 140.769 M126.346 141.990 C 127.192 142.431,128.374 143.332,128.973 143.992 L 130.061 145.192 129.229 143.934 C 128.497 142.827,125.958 141.123,125.111 141.171 C 124.944 141.180,125.500 141.549,126.346 141.990 M209.065 144.231 C 211.875 147.267,212.843 148.620,214.701 152.115 C 216.331 155.178,216.675 155.244,215.146 152.199 C 213.683 149.284,211.135 145.856,208.795 143.654 L 206.751 141.731 209.065 144.231 M150.673 142.723 C 149.785 143.241,149.612 198.814,150.496 199.548 C 150.769 199.775,152.630 200.046,154.631 200.152 L 158.269 200.343 154.808 199.970 C 152.904 199.765,151.130 199.520,150.865 199.426 C 150.487 199.291,150.385 193.291,150.385 171.173 L 150.385 143.092 151.250 142.891 C 151.726 142.780,154.019 142.641,156.346 142.580 L 160.577 142.471 155.962 142.401 C 153.384 142.362,151.049 142.504,150.673 142.723 M172.885 142.712 C 175.829 143.021,180.035 143.906,182.905 144.820 C 183.508 145.012,183.539 144.983,183.063 144.671 C 181.825 143.861,176.205 142.668,172.885 142.511 L 169.423 142.347 172.885 142.712 M235.835 142.885 C 235.828 143.308,235.972 144.000,236.154 144.423 C 236.575 145.403,236.575 144.392,236.154 143.077 C 235.906 142.304,235.844 142.266,235.835 142.885 M289.914 144.808 C 289.779 145.442,289.568 146.308,289.444 146.731 C 289.321 147.154,289.490 146.917,289.822 146.205 C 290.153 145.493,290.364 144.627,290.291 144.282 C 290.214 143.919,290.055 144.141,289.914 144.808 M236.554 145.629 C 236.545 145.869,236.791 146.648,237.100 147.360 C 237.409 148.071,237.669 148.457,237.677 148.217 C 237.686 147.977,237.439 147.198,237.130 146.486 C 236.821 145.775,236.562 145.389,236.554 145.629 M276.516 146.772 C 276.222 147.323,275.024 148.651,273.856 149.723 C 271.753 151.653,271.921 151.856,274.084 150.000 C 275.436 148.841,277.487 146.204,277.234 145.952 C 277.134 145.852,276.811 146.221,276.516 146.772 M186.154 146.298 C 186.154 146.389,186.770 146.826,187.523 147.270 C 188.276 147.715,188.784 147.904,188.653 147.690 C 188.395 147.273,186.154 146.025,186.154 146.298 M250.385 147.813 C 250.385 147.879,250.936 148.441,251.610 149.063 L 252.835 150.192 251.898 148.964 C 251.103 147.920,250.385 147.374,250.385 147.813 M288.183 149.624 C 287.738 150.677,287.455 151.538,287.555 151.538 C 287.815 151.538,289.325 148.043,289.143 147.861 C 289.060 147.778,288.628 148.571,288.183 149.624 M191.356 150.392 C 192.620 151.772,194.051 153.416,194.536 154.046 C 195.021 154.677,194.907 154.413,194.281 153.462 C 193.656 152.510,192.225 150.865,191.102 149.808 L 189.059 147.885 191.356 150.392 M237.957 149.519 C 238.286 150.439,240.034 153.462,240.237 153.462 C 240.327 153.462,239.861 152.423,239.200 151.154 C 238.026 148.897,237.476 148.175,237.957 149.519 M254.038 150.928 C 254.673 151.473,255.351 151.920,255.545 151.921 C 255.962 151.923,255.958 151.920,254.231 150.805 L 252.885 149.936 254.038 150.928 M131.828 153.269 C 131.940 154.962,132.093 156.418,132.169 156.506 C 132.425 156.803,132.220 152.512,131.922 151.346 C 131.754 150.692,131.714 151.524,131.828 153.269 M286.452 152.993 C 285.321 154.891,283.099 157.226,280.725 159.010 C 279.438 159.978,278.542 160.769,278.733 160.769 C 279.971 160.769,287.869 152.741,287.245 152.117 C 287.152 152.023,286.795 152.417,286.452 152.993 M258.846 153.077 C 259.375 153.246,260.154 153.385,260.577 153.385 C 261.186 153.385,261.146 153.321,260.385 153.077 C 259.856 152.908,259.077 152.769,258.654 152.769 C 258.045 152.769,258.085 152.833,258.846 153.077 M266.346 153.077 C 265.299 153.343,265.281 153.372,266.154 153.389 C 266.683 153.399,267.462 153.259,267.885 153.077 C 268.833 152.669,267.948 152.669,266.346 153.077 M262.788 153.727 C 263.159 153.823,263.764 153.823,264.135 153.727 C 264.505 153.630,264.202 153.551,263.462 153.551 C 262.721 153.551,262.418 153.630,262.788 153.727 M241.327 155.127 C 244.427 159.208,252.361 163.933,255.926 163.821 C 256.368 163.807,255.779 163.546,254.615 163.242 C 250.374 162.132,246.209 159.721,243.096 156.574 C 241.508 154.968,240.711 154.317,241.327 155.127 M216.214 155.192 C 216.213 155.404,216.446 156.183,216.731 156.923 C 217.016 157.663,217.255 158.010,217.261 157.692 C 217.268 157.375,217.035 156.596,216.745 155.962 C 216.454 155.327,216.215 154.981,216.214 155.192 M195.402 155.431 C 195.392 155.563,195.807 156.601,196.324 157.739 C 196.841 158.877,197.266 159.548,197.268 159.231 C 197.273 158.677,195.438 154.941,195.402 155.431 M217.560 159.808 C 217.689 160.654,217.858 161.418,217.936 161.506 C 218.227 161.837,218.009 159.777,217.674 159.038 C 217.431 158.502,217.397 158.735,217.560 159.808 M197.776 161.731 C 197.780 162.154,197.915 163.019,198.077 163.654 C 198.341 164.690,198.371 164.710,198.378 163.846 C 198.382 163.317,198.246 162.452,198.077 161.923 C 197.836 161.170,197.771 161.128,197.776 161.731 M218.174 163.269 C 218.178 164.115,218.257 164.416,218.349 163.938 C 218.441 163.459,218.437 162.767,218.341 162.399 C 218.245 162.032,218.170 162.423,218.174 163.269 M270.769 163.462 C 269.996 163.709,269.959 163.772,270.577 163.781 C 271.000 163.787,271.692 163.643,272.115 163.462 C 273.095 163.040,272.084 163.040,270.769 163.462 M258.153 164.289 C 258.640 164.426,260.942 164.539,263.269 164.539 C 265.596 164.539,267.900 164.426,268.390 164.289 C 268.879 164.151,266.577 164.038,263.274 164.038 C 259.971 164.038,257.667 164.151,258.153 164.289 M198.585 167.308 C 198.585 168.683,198.654 169.245,198.740 168.558 C 198.825 167.870,198.825 166.745,198.740 166.058 C 198.654 165.370,198.585 165.933,198.585 167.308 M218.604 168.846 C 218.604 171.067,218.667 171.976,218.745 170.865 C 218.823 169.755,218.823 167.938,218.745 166.827 C 218.667 165.716,218.604 166.625,218.604 168.846 M198.585 173.462 C 198.585 174.837,198.654 175.399,198.740 174.712 C 198.825 174.024,198.825 172.899,198.740 172.212 C 198.654 171.524,198.585 172.087,198.585 173.462 M218.166 174.615 C 218.166 175.356,218.245 175.659,218.342 175.288 C 218.439 174.918,218.439 174.313,218.342 173.942 C 218.245 173.572,218.166 173.875,218.166 174.615 M197.923 177.731 C 197.782 178.612,197.742 179.409,197.834 179.500 C 197.925 179.592,198.121 178.952,198.269 178.077 C 198.417 177.202,198.457 176.406,198.359 176.307 C 198.260 176.209,198.064 176.849,197.923 177.731 M217.548 177.356 C 217.227 178.959,217.538 179.270,217.885 177.692 C 218.031 177.027,218.070 176.403,217.972 176.305 C 217.874 176.207,217.683 176.680,217.548 177.356 M216.615 180.654 C 216.046 182.508,216.322 182.784,216.923 180.962 C 217.177 180.193,217.310 179.489,217.218 179.398 C 217.127 179.306,216.855 179.872,216.615 180.654 M196.231 183.154 C 195.770 184.244,195.454 185.198,195.529 185.272 C 195.603 185.347,196.046 184.521,196.513 183.436 C 196.979 182.351,197.295 181.398,197.215 181.317 C 197.134 181.237,196.692 182.063,196.231 183.154 M214.809 185.109 C 214.197 186.424,212.880 188.756,211.882 190.290 C 210.884 191.825,210.239 192.975,210.447 192.846 C 211.446 192.229,216.484 183.279,216.067 182.862 C 215.988 182.783,215.422 183.794,214.809 185.109 M193.105 188.613 C 191.476 190.981,187.696 194.301,184.985 195.746 C 183.724 196.418,182.692 197.055,182.692 197.160 C 182.692 198.576,192.422 190.770,193.964 188.118 C 194.991 186.353,194.444 186.667,193.105 188.613 M206.346 196.848 C 204.442 198.705,202.192 200.796,201.346 201.495 L 199.808 202.767 201.406 201.658 C 203.139 200.456,205.261 198.528,208.255 195.434 C 211.289 192.298,210.133 193.155,206.346 196.848 M176.731 199.049 C 175.885 199.328,175.538 199.556,175.962 199.557 C 176.385 199.557,177.337 199.324,178.077 199.038 C 179.803 198.374,178.755 198.382,176.731 199.049 M171.154 200.000 C 169.856 200.273,169.849 200.284,170.962 200.288 C 171.596 200.291,172.635 200.161,173.269 200.000 C 174.865 199.594,173.083 199.594,171.154 200.000 M196.442 204.451 C 195.004 205.231,195.092 205.556,196.538 204.808 C 197.173 204.480,197.692 204.129,197.692 204.029 C 197.692 203.781,197.651 203.795,196.442 204.451 M193.462 205.962 C 192.933 206.264,192.673 206.511,192.885 206.511 C 193.096 206.511,193.702 206.264,194.231 205.962 C 194.760 205.659,195.019 205.412,194.808 205.412 C 194.596 205.412,193.990 205.659,193.462 205.962 M190.577 207.163 L 189.423 207.725 190.577 207.489 C 191.212 207.359,191.895 207.092,192.096 206.896 C 192.626 206.378,191.941 206.498,190.577 207.163 M187.064 208.649 C 186.863 209.172,189.587 214.387,189.899 214.076 C 189.973 214.001,189.421 212.924,188.672 211.682 C 187.203 209.246,187.041 208.633,187.788 208.332 C 188.165 208.180,188.162 208.131,187.776 208.107 C 187.505 208.091,187.185 208.334,187.064 208.649 M150.673 210.800 C 149.754 211.335,149.669 252.343,150.578 256.538 C 150.875 257.913,151.017 258.433,150.891 257.692 C 150.766 256.952,150.593 246.208,150.507 233.816 L 150.350 211.287 151.233 210.862 C 151.718 210.628,151.942 210.430,151.731 210.422 C 151.519 210.414,151.043 210.584,150.673 210.800 M155.885 211.056 C 157.959 211.125,161.247 211.125,163.193 211.056 C 165.139 210.986,163.442 210.929,159.423 210.930 C 155.404 210.930,153.812 210.987,155.885 211.056 M169.411 214.808 C 170.003 215.865,170.665 216.904,170.884 217.115 C 171.102 217.327,170.796 216.635,170.204 215.577 C 169.613 214.519,168.950 213.481,168.732 213.269 C 168.513 213.058,168.819 213.750,169.411 214.808 M171.923 218.988 C 171.923 219.360,175.831 225.769,176.058 225.769 C 176.238 225.769,174.785 223.215,173.006 220.405 C 172.410 219.465,171.923 218.827,171.923 218.988 M195.399 223.179 C 196.289 224.611,197.188 225.888,197.398 226.017 C 197.870 226.309,195.139 221.949,194.351 221.154 C 194.037 220.837,194.508 221.748,195.399 223.179 M177.189 228.087 C 177.783 229.151,178.663 230.492,179.145 231.068 C 179.627 231.644,179.225 230.774,178.251 229.135 C 176.290 225.833,175.488 225.042,177.189 228.087 M198.315 227.602 C 198.702 228.293,199.425 229.331,199.921 229.910 L 200.822 230.962 200.188 229.808 C 199.839 229.173,199.117 228.135,198.582 227.500 L 197.611 226.346 198.315 227.602 M202.089 233.094 C 204.260 236.129,205.034 236.785,203.065 233.922 C 202.148 232.588,201.216 231.384,200.993 231.247 C 200.770 231.109,201.264 231.941,202.089 233.094 M180.026 232.500 C 180.027 232.712,180.470 233.404,181.010 234.038 C 181.550 234.673,181.816 234.846,181.601 234.423 C 181.017 233.273,180.024 232.061,180.026 232.500 M205.614 237.885 C 207.530 240.537,211.974 246.154,212.156 246.154 C 212.385 246.154,206.253 238.110,205.266 237.115 C 204.846 236.692,205.002 237.038,205.614 237.885 M184.231 239.038 C 184.886 239.990,185.508 240.769,185.614 240.769 C 185.720 240.769,185.270 239.990,184.615 239.038 C 183.960 238.087,183.338 237.308,183.232 237.308 C 183.127 237.308,183.576 238.087,184.231 239.038 M188.077 244.808 C 188.732 245.760,189.354 246.538,189.460 246.538 C 189.566 246.538,189.116 245.760,188.462 244.808 C 187.807 243.856,187.184 243.077,187.078 243.077 C 186.973 243.077,187.422 243.856,188.077 244.808 M214.672 249.395 C 219.597 255.541,230.385 265.888,230.385 264.466 C 230.385 264.357,229.568 263.706,228.570 263.019 C 226.045 261.282,221.714 257.084,217.764 252.545 C 212.896 246.951,211.900 245.936,214.672 249.395 M190.382 248.173 C 190.789 248.861,191.653 250.029,192.301 250.769 C 193.053 251.627,192.838 251.174,191.710 249.519 C 189.847 246.786,189.129 246.058,190.382 248.173 M131.990 252.115 C 131.949 253.173,131.833 254.731,131.732 255.577 L 131.550 257.115 131.944 255.577 C 132.161 254.731,132.277 253.173,132.202 252.115 L 132.065 250.192 131.990 252.115 M193.812 253.012 C 194.019 253.400,194.494 253.962,194.868 254.262 C 195.350 254.649,195.292 254.445,194.670 253.558 C 193.721 252.203,193.203 251.874,193.812 253.012 M196.375 256.356 C 198.703 259.560,200.587 261.880,200.879 261.901 C 201.046 261.913,200.029 260.495,198.621 258.750 C 195.689 255.115,194.737 254.101,196.375 256.356 M131.068 258.269 C 130.933 258.904,130.722 259.769,130.598 260.192 C 130.475 260.615,130.644 260.379,130.975 259.666 C 131.307 258.954,131.518 258.089,131.445 257.743 C 131.368 257.380,131.209 257.602,131.068 258.269 M129.545 262.306 C 129.197 262.913,128.179 263.940,127.283 264.589 C 126.387 265.238,125.772 265.769,125.917 265.769 C 126.328 265.769,128.215 264.498,128.763 263.851 C 129.732 262.709,130.486 261.512,130.333 261.359 C 130.248 261.273,129.893 261.700,129.545 262.306 M151.923 261.396 C 151.923 261.819,153.792 264.615,154.075 264.615 C 154.298 264.615,154.104 264.271,152.805 262.350 C 152.320 261.633,151.923 261.204,151.923 261.396 M202.949 264.357 C 203.979 265.484,205.511 266.986,206.353 267.696 C 207.196 268.406,206.417 267.484,204.624 265.647 C 200.977 261.912,200.092 261.231,202.949 264.357 M231.154 265.020 C 232.156 265.702,233.846 266.565,233.846 266.394 C 233.846 266.181,231.192 264.614,230.843 264.621 C 230.697 264.625,230.837 264.804,231.154 265.020 M120.865 266.804 C 121.236 266.900,121.841 266.900,122.212 266.804 C 122.582 266.707,122.279 266.628,121.538 266.628 C 120.798 266.628,120.495 266.707,120.865 266.804 M160.673 266.810 C 161.149 266.902,161.928 266.902,162.404 266.810 C 162.880 266.718,162.490 266.643,161.538 266.643 C 160.587 266.643,160.197 266.718,160.673 266.810 M235.333 267.130 C 236.044 267.439,236.737 267.686,236.871 267.679 C 237.371 267.651,235.170 266.566,234.615 266.567 C 234.298 266.568,234.621 266.821,235.333 267.130 M164.423 267.288 C 165.609 267.610,168.331 267.806,168.045 267.548 C 167.957 267.469,166.846 267.307,165.577 267.189 C 164.059 267.048,163.664 267.082,164.423 267.288 M114.483 268.396 C 112.645 270.427,113.944 275.441,116.277 275.323 L 117.500 275.262 116.279 275.109 C 113.919 274.813,113.206 269.287,115.385 268.189 C 115.984 267.886,116.115 267.702,115.733 267.698 C 115.395 267.695,114.833 268.009,114.483 268.396 M169.808 268.029 L 170.962 268.275 171.073 271.434 C 171.196 274.902,171.428 274.546,168.654 275.133 C 168.231 275.222,168.499 275.315,169.250 275.340 C 171.219 275.404,171.538 274.874,171.538 271.538 C 171.538 268.353,171.194 267.665,169.635 267.738 C 168.725 267.780,168.737 267.801,169.808 268.029 M237.885 268.077 C 239.034 268.571,239.995 268.571,239.231 268.077 C 238.913 267.872,238.308 267.714,237.885 267.725 L 237.115 267.746 237.885 268.077 M240.385 268.613 C 240.385 268.697,241.062 268.830,241.891 268.909 C 242.719 268.988,243.315 268.920,243.214 268.757 C 243.031 268.461,240.385 268.327,240.385 268.613 M208.077 268.986 C 208.077 269.092,208.596 269.548,209.231 270.000 C 209.865 270.452,210.385 270.735,210.385 270.629 C 210.385 270.524,209.865 270.067,209.231 269.615 C 208.596 269.163,208.077 268.880,208.077 268.986 M243.585 271.923 C 243.585 273.298,243.654 273.861,243.740 273.173 C 243.825 272.486,243.825 271.361,243.740 270.673 C 243.654 269.986,243.585 270.548,243.585 271.923 M210.769 270.916 C 210.769 271.205,213.553 272.729,213.740 272.542 C 213.839 272.443,213.212 272.000,212.345 271.557 C 211.478 271.115,210.769 270.827,210.769 270.916 M215.000 273.269 C 215.529 273.572,216.135 273.819,216.346 273.819 C 216.558 273.819,216.298 273.572,215.769 273.269 C 215.240 272.967,214.635 272.720,214.423 272.720 C 214.212 272.720,214.471 272.967,215.000 273.269 M136.442 274.518 C 139.457 274.583,144.389 274.583,147.404 274.518 C 150.418 274.453,147.952 274.400,141.923 274.400 C 135.894 274.400,133.428 274.453,136.442 274.518 M120.481 274.901 C 121.909 274.975,124.245 274.975,125.673 274.901 C 127.101 274.827,125.933 274.766,123.077 274.766 C 120.221 274.766,119.053 274.827,120.481 274.901 M158.925 274.900 C 160.344 274.974,162.767 274.974,164.310 274.901 C 165.853 274.828,164.692 274.768,161.731 274.767 C 158.769 274.767,157.507 274.826,158.925 274.900 M242.901 274.974 C 242.779 275.171,241.729 275.545,240.568 275.805 C 239.407 276.065,238.535 276.356,238.631 276.451 C 238.954 276.774,242.650 275.706,243.105 275.159 C 243.353 274.860,243.458 274.615,243.339 274.615 C 243.220 274.615,243.023 274.777,242.901 274.974 M223.846 276.154 C 224.375 276.323,225.240 276.459,225.769 276.455 C 226.633 276.448,226.613 276.418,225.577 276.154 C 223.950 275.740,222.553 275.740,223.846 276.154 M228.365 276.817 C 229.053 276.902,230.178 276.902,230.865 276.817 C 231.553 276.731,230.990 276.662,229.615 276.662 C 228.240 276.662,227.678 276.731,228.365 276.817 M234.911 276.817 C 235.602 276.903,236.640 276.901,237.218 276.813 C 237.796 276.726,237.231 276.655,235.962 276.658 C 234.692 276.660,234.219 276.732,234.911 276.817 " stroke="none" fill="#59dfca" fill-rule="evenodd"></path><path id="path3" d="M256.207 85.954 C 246.210 88.216,239.642 94.406,236.790 104.255 C 234.340 112.714,234.422 138.207,236.924 145.835 C 240.956 158.129,249.547 164.059,263.269 164.020 C 278.696 163.976,288.191 156.134,290.569 141.471 C 291.304 136.937,291.394 122.702,290.692 122.000 C 290.090 121.397,266.477 121.338,265.359 121.937 C 264.461 122.417,264.220 130.220,265.077 131.077 C 265.400 131.400,267.519 131.538,272.145 131.538 C 280.253 131.538,279.819 131.225,279.445 136.796 C 278.710 147.777,273.210 153.546,263.436 153.590 C 255.322 153.627,249.862 149.349,247.807 141.346 C 246.765 137.290,246.784 111.810,247.831 108.077 C 250.833 97.376,261.111 92.188,270.608 96.579 C 272.411 97.413,277.308 101.934,277.308 102.766 C 277.308 105.453,279.484 105.779,284.244 103.803 C 289.306 101.703,289.319 101.681,287.684 98.518 C 282.589 88.665,268.711 83.126,256.207 85.954 M269.732 86.371 C 277.229 88.000,282.438 91.428,286.346 97.307 C 288.551 100.625,288.565 101.329,286.442 102.282 C 279.132 105.563,279.475 105.560,277.537 102.369 C 269.911 89.815,251.226 92.990,247.342 107.500 C 245.973 112.613,245.978 137.125,247.349 142.115 C 248.469 146.193,250.072 148.703,252.825 150.694 C 256.561 153.395,258.590 154.042,263.269 154.024 C 269.548 154.001,275.326 151.164,277.230 147.171 C 278.882 143.705,279.301 142.432,279.606 139.946 C 279.797 138.389,280.074 136.212,280.221 135.108 C 280.429 133.551,280.346 132.883,279.851 132.127 L 279.213 131.154 272.568 131.154 C 264.584 131.154,265.000 131.411,265.000 126.475 C 265.000 121.583,264.039 121.923,277.885 121.923 C 292.246 121.923,290.769 121.012,290.769 129.873 C 290.769 149.620,285.167 158.964,270.971 162.897 C 266.454 164.148,253.663 163.407,252.057 161.800 C 251.913 161.656,251.567 161.538,251.289 161.538 C 246.986 161.538,238.957 151.897,237.198 144.615 C 235.352 136.977,235.161 113.201,236.889 106.154 C 240.584 91.080,254.056 82.965,269.732 86.371 M161.923 131.942 C 157.798 132.087,145.654 132.228,134.935 132.257 C 112.172 132.316,114.231 131.987,114.231 135.571 C 114.231 139.040,114.093 138.933,119.925 139.996 C 127.680 141.410,129.739 142.959,131.427 148.654 C 132.383 151.877,132.698 252.225,131.766 256.731 C 130.777 261.517,129.369 263.921,126.726 265.338 C 125.281 266.112,124.504 266.313,118.284 267.522 C 114.330 268.291,114.231 268.389,114.231 271.538 C 114.231 275.159,113.306 274.964,128.361 274.515 C 137.293 274.248,146.139 274.247,155.861 274.511 C 172.845 274.972,171.211 275.306,171.072 271.407 L 170.962 268.292 169.423 268.029 C 168.577 267.884,166.327 267.566,164.423 267.321 C 154.102 265.994,152.033 264.405,150.553 256.671 C 149.848 252.985,149.726 211.369,150.419 210.940 C 150.910 210.637,165.562 210.707,166.814 211.019 C 167.399 211.164,168.415 212.518,170.048 215.327 C 186.336 243.348,200.486 263.086,208.698 269.242 C 216.723 275.258,230.980 278.321,240.000 275.968 C 243.438 275.071,243.513 274.979,243.381 271.791 L 243.269 269.088 240.568 268.634 C 227.666 266.465,211.353 249.143,190.799 215.784 C 186.240 208.385,186.266 208.689,190.089 207.297 C 213.081 198.923,224.844 173.517,215.176 153.111 C 210.723 143.713,201.805 136.860,190.192 133.913 C 189.346 133.698,187.924 133.330,187.031 133.096 C 185.336 132.650,172.580 131.501,170.577 131.614 C 169.942 131.650,166.048 131.797,161.923 131.942 M184.082 133.046 C 184.693 133.238,186.577 133.690,188.269 134.049 C 212.441 139.178,224.588 161.971,214.761 183.761 C 214.258 184.877,213.846 185.866,213.846 185.958 C 213.846 187.931,204.652 198.482,200.192 201.628 C 196.968 203.902,190.864 206.737,187.639 207.459 C 185.440 207.950,185.719 208.682,191.901 218.639 C 204.370 238.720,220.270 258.334,228.721 264.057 C 231.432 265.893,232.839 266.602,237.500 268.483 C 237.923 268.654,239.113 268.906,240.145 269.043 C 243.062 269.431,243.077 269.446,243.077 271.951 C 243.077 275.071,240.367 276.152,232.544 276.153 C 215.176 276.156,202.882 267.021,187.771 242.885 C 187.242 242.038,186.704 241.260,186.577 241.154 C 186.450 241.048,186.139 240.615,185.885 240.192 C 185.631 239.769,182.905 235.417,179.827 230.521 C 176.749 225.625,174.231 221.428,174.231 221.194 C 174.231 220.960,174.058 220.769,173.846 220.769 C 173.635 220.769,173.462 220.599,173.462 220.390 C 173.462 220.182,172.971 219.187,172.372 218.179 C 171.773 217.171,170.540 215.089,169.633 213.553 C 167.669 210.228,168.525 210.475,158.198 210.257 C 151.269 210.110,150.017 210.169,149.833 210.651 C 149.279 212.095,149.623 255.177,150.209 257.692 C 151.922 265.048,156.695 268.077,166.573 268.077 C 167.245 268.077,168.464 268.277,169.282 268.522 L 170.769 268.968 170.769 271.503 L 170.769 274.038 142.885 274.038 L 115.000 274.038 115.000 271.504 C 115.000 268.752,115.575 268.077,117.920 268.077 C 118.897 268.077,122.863 267.226,125.485 266.454 C 127.397 265.891,129.838 263.759,130.763 261.846 C 132.791 257.649,132.736 259.397,132.614 202.500 L 132.500 149.808 131.612 147.348 C 129.835 142.429,127.687 140.880,120.874 139.606 C 118.595 139.179,116.341 138.744,115.865 138.639 C 115.062 138.461,115.000 138.240,115.000 135.572 L 115.000 132.698 139.135 132.567 C 167.835 132.410,182.565 132.567,184.082 133.046 M153.865 141.826 C 152.078 141.898,150.390 142.143,150.115 142.372 C 149.713 142.705,149.615 148.356,149.615 171.192 L 149.615 199.598 150.520 200.191 C 151.664 200.940,172.797 201.152,174.150 200.428 C 174.590 200.193,175.363 200.000,175.868 200.000 C 179.413 200.000,186.803 196.238,190.920 192.339 C 203.364 180.550,202.287 156.476,188.901 147.205 C 181.532 142.101,174.367 141.001,153.865 141.826 M179.388 143.416 C 193.237 147.318,200.056 158.070,198.775 173.984 C 197.679 187.593,188.297 197.432,174.087 199.873 C 169.522 200.658,151.639 200.497,150.634 199.663 C 149.626 198.826,149.664 143.319,150.673 142.705 C 152.091 141.843,175.894 142.432,179.388 143.416 " stroke="none" fill="#99edde" fill-rule="evenodd"></path><path id="path4" d="M257.995 84.931 C 257.633 85.075,260.121 85.195,263.523 85.198 C 266.926 85.201,269.299 85.089,268.797 84.948 C 267.592 84.610,258.838 84.596,257.995 84.931 M252.392 86.249 C 249.391 87.400,250.221 87.490,253.508 86.371 C 255.069 85.839,255.913 85.419,255.385 85.437 C 254.856 85.456,253.509 85.821,252.392 86.249 M271.923 85.981 C 274.154 86.684,274.786 86.666,273.129 85.946 C 272.417 85.637,271.465 85.396,271.014 85.410 C 270.552 85.425,270.950 85.675,271.923 85.981 M247.308 88.663 C 243.355 91.083,237.291 98.447,237.313 100.803 C 237.315 101.102,237.811 100.373,238.415 99.183 C 240.802 94.476,243.965 91.025,247.953 88.774 C 249.871 87.692,250.392 87.266,249.712 87.338 C 249.553 87.355,248.471 87.951,247.308 88.663 M279.231 89.164 C 282.735 91.418,286.289 95.151,288.005 98.380 C 289.459 101.114,289.386 101.899,287.592 102.792 C 286.907 103.133,286.624 103.423,286.963 103.437 C 288.145 103.484,289.718 101.613,289.437 100.495 C 288.790 97.917,281.734 89.231,280.287 89.231 C 280.121 89.231,279.299 88.798,278.462 88.269 C 277.624 87.740,276.805 87.308,276.642 87.308 C 276.479 87.308,277.644 88.143,279.231 89.164 M262.409 95.661 C 262.994 95.749,263.859 95.747,264.332 95.655 C 264.805 95.564,264.327 95.492,263.269 95.495 C 262.212 95.498,261.824 95.572,262.409 95.661 M257.359 96.569 C 254.872 97.672,251.834 100.163,250.779 101.963 C 250.580 102.302,251.452 101.568,252.717 100.330 C 255.031 98.065,256.431 97.255,259.615 96.337 C 261.106 95.907,261.186 95.837,260.192 95.831 C 259.558 95.827,258.283 96.159,257.359 96.569 M267.360 96.293 C 271.075 97.160,274.302 99.473,276.412 102.783 C 278.431 105.949,280.162 107.063,280.987 105.728 C 281.161 105.446,280.992 105.384,280.487 105.544 C 279.277 105.928,278.566 105.447,277.298 103.386 C 274.698 99.161,270.574 96.192,266.923 95.917 C 265.223 95.789,265.231 95.796,267.360 96.293 M236.601 102.516 C 236.355 103.056,236.161 103.792,236.171 104.153 C 236.180 104.513,236.432 104.122,236.730 103.284 C 237.351 101.542,237.268 101.052,236.601 102.516 M249.231 104.808 C 248.797 105.819,248.528 106.733,248.633 106.839 C 248.739 106.944,249.003 106.530,249.220 105.919 C 249.438 105.308,249.801 104.488,250.027 104.097 C 250.253 103.706,250.344 103.292,250.229 103.177 C 250.114 103.062,249.664 103.796,249.231 104.808 M283.462 104.441 C 282.510 104.935,281.915 105.349,282.139 105.362 C 282.631 105.389,285.769 103.905,285.769 103.645 C 285.769 103.333,285.257 103.510,283.462 104.441 M235.641 105.256 C 235.500 105.397,235.402 106.046,235.424 106.699 L 235.463 107.885 235.779 106.541 C 236.108 105.141,236.074 104.823,235.641 105.256 M247.762 110.283 C 247.091 114.343,247.181 136.361,247.882 139.615 C 248.228 141.227,248.345 141.500,248.211 140.385 C 247.722 136.336,247.633 113.630,248.096 111.114 C 248.353 109.718,248.485 108.341,248.390 108.054 C 248.294 107.767,248.012 108.770,247.762 110.283 M234.743 111.410 C 234.247 114.885,234.386 137.215,234.915 139.038 L 235.361 140.577 235.181 139.038 C 234.689 134.829,234.544 117.877,234.966 113.850 C 235.443 109.288,235.288 107.589,234.743 111.410 M265.385 121.036 C 264.109 121.492,263.846 122.434,263.846 126.538 C 263.846 132.398,263.411 132.089,271.878 132.236 L 278.819 132.356 278.951 135.987 L 279.083 139.617 279.061 135.866 L 279.038 132.115 272.004 131.923 C 263.709 131.696,264.245 132.056,264.237 126.708 C 264.228 120.853,262.973 121.346,277.885 121.346 C 293.415 121.346,291.668 119.960,291.456 132.115 C 291.367 137.192,291.423 140.567,291.580 139.615 C 292.281 135.372,291.974 122.359,291.154 121.538 C 290.402 120.787,267.340 120.337,265.385 121.036 M149.615 131.572 C 147.817 131.736,139.210 131.858,130.489 131.843 C 112.198 131.811,113.462 131.543,113.462 135.457 C 113.462 138.363,113.897 139.615,114.907 139.615 C 115.428 139.615,115.387 139.497,114.701 139.017 C 113.697 138.314,113.384 132.840,114.327 132.490 C 115.547 132.037,178.109 131.594,182.115 132.010 L 184.808 132.289 182.115 131.752 C 179.120 131.154,155.609 131.024,149.615 131.572 M185.801 132.446 C 186.254 132.837,188.118 133.070,187.894 132.708 C 187.758 132.488,187.196 132.308,186.644 132.308 C 186.092 132.308,185.713 132.370,185.801 132.446 M190.385 133.654 C 191.125 133.939,192.077 134.178,192.500 134.185 C 192.923 134.191,192.577 133.948,191.731 133.643 C 189.790 132.944,188.567 132.954,190.385 133.654 M193.494 134.371 C 193.582 134.448,195.328 135.240,197.374 136.130 C 199.420 137.021,201.886 138.252,202.855 138.866 C 203.823 139.481,204.615 139.842,204.615 139.669 C 204.615 139.496,204.226 139.160,203.750 138.922 C 203.274 138.684,202.019 137.999,200.962 137.400 C 197.956 135.698,192.463 133.470,193.494 134.371 M116.154 139.980 C 116.471 140.196,117.236 140.375,117.853 140.379 C 119.330 140.386,119.023 140.164,117.115 139.844 C 116.013 139.660,115.740 139.698,116.154 139.980 M207.976 142.883 C 211.585 146.246,214.080 149.734,215.957 154.038 C 217.285 157.084,217.859 157.631,216.714 154.759 C 214.825 150.022,211.063 144.732,207.382 141.635 C 204.261 139.009,204.614 139.751,207.976 142.883 M278.340 140.532 C 278.195 140.908,278.088 141.505,278.101 141.858 C 278.117 142.283,278.251 142.186,278.497 141.571 C 278.701 141.061,278.808 140.464,278.735 140.245 C 278.662 140.026,278.484 140.155,278.340 140.532 M120.769 140.738 C 121.087 140.919,122.080 141.188,122.977 141.336 C 126.137 141.857,128.470 143.443,129.780 145.962 C 130.114 146.603,130.381 146.840,130.382 146.495 C 130.386 145.520,128.159 142.958,126.610 142.156 C 124.722 141.178,119.187 139.834,120.769 140.738 M290.636 143.201 C 290.291 145.285,288.710 149.725,287.827 151.091 C 287.508 151.585,287.325 152.069,287.422 152.165 C 288.060 152.804,291.294 144.206,291.078 142.443 C 290.969 141.556,290.885 141.701,290.636 143.201 M235.391 142.724 C 235.394 143.236,235.567 143.913,235.775 144.231 C 236.041 144.637,236.080 144.409,235.906 143.462 C 235.601 141.803,235.383 141.490,235.391 142.724 M156.346 142.552 C 154.019 142.628,151.725 142.780,151.248 142.891 L 150.380 143.093 150.478 171.258 L 150.577 199.423 152.500 199.695 C 157.215 200.360,168.612 200.446,172.115 199.843 L 175.577 199.247 172.308 199.527 C 167.917 199.904,159.128 199.882,154.517 199.483 L 150.764 199.159 150.863 171.214 L 150.962 143.269 164.038 143.269 C 171.231 143.269,176.337 143.149,175.385 143.003 C 173.090 142.650,161.659 142.379,156.346 142.552 M248.462 142.830 C 248.462 143.333,250.045 146.621,250.209 146.458 C 250.313 146.354,250.137 145.767,249.817 145.153 C 249.497 144.540,249.234 143.832,249.233 143.580 C 249.232 143.328,249.058 143.015,248.846 142.885 C 248.635 142.754,248.462 142.729,248.462 142.830 M277.311 144.038 C 275.340 150.026,269.058 153.499,261.346 152.865 C 259.910 152.747,259.666 152.793,260.385 153.046 C 262.541 153.806,267.567 153.213,270.857 151.811 C 273.876 150.525,278.557 144.698,277.971 142.955 C 277.887 142.705,277.590 143.192,277.311 144.038 M177.885 143.846 C 178.308 144.028,179.000 144.177,179.423 144.177 L 180.192 144.177 179.423 143.846 C 179.000 143.664,178.308 143.516,177.885 143.516 L 177.115 143.516 177.885 143.846 M181.731 144.803 C 186.931 146.775,191.168 149.935,193.673 153.707 C 194.444 154.870,195.161 155.737,195.264 155.633 C 195.595 155.302,192.483 151.391,190.303 149.399 C 188.146 147.428,183.409 144.798,181.346 144.427 C 180.444 144.264,180.527 144.346,181.731 144.803 M236.184 145.577 C 236.183 146.000,236.428 146.779,236.731 147.308 C 237.433 148.536,237.436 148.273,236.742 146.346 C 236.437 145.500,236.186 145.154,236.184 145.577 M250.401 147.097 C 250.345 148.373,256.839 152.724,258.726 152.674 C 259.109 152.664,258.658 152.388,257.723 152.060 C 255.401 151.247,253.127 149.770,251.651 148.114 C 250.972 147.353,250.409 146.895,250.401 147.097 M130.396 147.692 C 130.396 148.010,130.564 148.529,130.769 148.846 C 131.101 149.359,131.142 149.359,131.142 148.846 C 131.142 148.529,130.974 148.010,130.769 147.692 C 130.438 147.179,130.396 147.179,130.396 147.692 M131.220 151.154 C 131.208 151.894,131.341 153.192,131.516 154.038 L 131.835 155.577 131.857 154.231 C 131.869 153.490,131.736 152.192,131.561 151.346 L 131.242 149.808 131.220 151.154 M238.077 150.493 C 238.077 150.833,240.415 154.669,240.974 155.246 C 241.208 155.487,241.824 156.180,242.344 156.785 C 242.863 157.390,243.630 158.136,244.048 158.442 C 244.466 158.749,244.082 158.230,243.194 157.288 C 242.306 156.347,240.792 154.374,239.829 152.903 C 238.865 151.432,238.077 150.347,238.077 150.493 M286.211 153.851 C 285.744 154.483,285.520 155.000,285.713 155.000 C 286.114 155.000,287.451 153.092,287.215 152.856 C 287.130 152.771,286.678 153.219,286.211 153.851 M282.703 157.708 C 280.182 160.025,277.309 161.683,273.462 163.042 C 272.298 163.454,271.616 163.803,271.946 163.818 C 273.432 163.888,279.939 160.799,281.731 159.174 C 283.902 157.205,284.467 156.656,284.951 156.048 C 285.850 154.918,285.287 155.333,282.703 157.708 M195.412 156.346 C 195.412 156.558,195.659 157.163,195.962 157.692 C 196.264 158.221,196.511 158.481,196.511 158.269 C 196.511 158.058,196.264 157.452,195.962 156.923 C 195.659 156.394,195.412 156.135,195.412 156.346 M132.109 203.462 C 132.109 229.375,132.155 239.976,132.211 227.019 C 132.268 214.063,132.268 192.861,132.211 179.904 C 132.155 166.947,132.109 177.548,132.109 203.462 M217.470 158.077 C 218.953 163.408,219.154 172.688,217.889 177.459 C 217.368 179.426,217.344 181.066,217.859 179.574 C 219.665 174.338,219.486 159.353,217.595 157.500 C 217.330 157.239,217.289 157.425,217.470 158.077 M245.064 159.229 C 245.394 160.221,252.740 163.893,254.244 163.818 C 254.554 163.803,253.940 163.481,252.880 163.103 C 250.337 162.197,247.803 160.909,246.198 159.705 C 245.482 159.168,244.972 158.954,245.064 159.229 M197.372 161.538 C 197.364 162.067,197.591 163.538,197.877 164.808 C 198.163 166.077,198.404 166.683,198.413 166.154 C 198.421 165.625,198.194 164.154,197.907 162.885 C 197.621 161.615,197.380 161.010,197.372 161.538 M255.769 164.262 C 256.298 164.501,259.067 164.744,261.923 164.802 L 267.115 164.908 262.692 164.615 C 260.260 164.453,257.490 164.210,256.538 164.075 C 255.056 163.864,254.946 163.891,255.769 164.262 M268.462 164.231 C 267.524 164.531,267.529 164.539,268.654 164.550 C 269.288 164.556,270.154 164.413,270.577 164.231 C 271.628 163.779,269.872 163.779,268.462 164.231 M197.711 176.789 C 197.207 179.649,196.666 181.405,195.687 183.365 C 195.450 183.840,195.350 184.324,195.465 184.439 C 196.086 185.060,198.822 175.504,198.392 174.214 C 198.310 173.970,198.004 175.128,197.711 176.789 M216.257 182.562 C 215.785 183.770,215.468 184.827,215.552 184.911 C 215.799 185.158,217.344 181.430,217.225 180.874 C 217.165 180.594,216.729 181.354,216.257 182.562 M194.721 185.471 C 194.156 186.185,193.404 187.692,193.614 187.692 C 193.926 187.692,195.477 185.349,195.289 185.161 C 195.190 185.062,194.935 185.202,194.721 185.471 M213.624 188.147 C 213.459 188.426,213.076 189.043,212.772 189.519 C 212.468 189.995,212.314 190.385,212.430 190.385 C 212.780 190.385,214.329 188.047,214.119 187.837 C 214.011 187.729,213.789 187.869,213.624 188.147 M190.865 190.654 C 188.064 193.620,187.667 194.395,190.224 191.907 C 191.779 190.393,193.727 188.049,193.392 188.093 C 193.324 188.102,192.188 189.255,190.865 190.654 M210.833 192.414 C 206.657 197.887,200.237 203.067,193.846 206.118 C 192.048 206.976,190.781 207.682,191.030 207.685 C 192.059 207.701,198.091 204.565,201.346 202.322 C 204.270 200.307,212.739 191.457,212.231 190.949 C 212.143 190.861,211.514 191.521,210.833 192.414 M186.827 194.138 C 186.245 194.498,185.769 194.938,185.769 195.115 C 185.769 195.292,186.288 195.067,186.923 194.615 C 187.558 194.163,188.077 193.719,188.077 193.628 C 188.077 193.382,187.984 193.420,186.827 194.138 M178.846 197.945 C 177.894 198.263,176.874 198.599,176.580 198.693 C 176.285 198.787,176.126 198.947,176.227 199.048 C 176.401 199.221,181.167 197.790,181.506 197.462 C 181.832 197.148,180.527 197.385,178.846 197.945 M188.365 208.139 C 187.784 208.352,187.308 208.706,187.308 208.928 C 187.308 209.530,189.668 213.537,189.891 213.314 C 189.997 213.208,189.723 212.615,189.282 211.995 C 187.919 210.081,187.588 208.854,188.370 208.608 C 188.738 208.492,189.385 208.250,189.808 208.071 C 190.908 207.604,189.670 207.663,188.365 208.139 M150.765 211.090 C 150.329 211.237,150.263 253.099,150.695 255.542 C 150.842 256.369,150.906 246.803,150.838 234.285 L 150.715 211.523 158.900 211.627 L 167.085 211.731 167.950 213.077 C 169.611 215.664,169.968 215.944,168.806 213.750 C 168.054 212.330,167.335 211.472,166.798 211.354 C 165.823 211.138,151.329 210.900,150.765 211.090 M190.000 213.987 C 190.000 214.549,193.533 219.672,193.762 219.443 C 193.902 219.303,193.848 219.069,193.643 218.921 C 193.162 218.577,192.349 217.304,192.059 216.442 C 191.935 216.072,191.680 215.769,191.494 215.769 C 191.307 215.769,191.154 215.531,191.154 215.239 C 191.154 214.948,190.894 214.494,190.577 214.231 C 190.260 213.967,190.000 213.858,190.000 213.987 M170.000 216.308 C 170.000 216.827,171.604 219.293,171.809 219.089 C 171.909 218.988,171.543 218.247,170.996 217.441 C 170.448 216.635,170.000 216.125,170.000 216.308 M171.923 219.780 C 171.923 220.300,173.232 222.308,173.571 222.308 C 173.751 222.308,173.510 221.745,173.035 221.058 C 171.904 219.419,171.923 219.441,171.923 219.780 M193.846 220.290 C 193.846 220.502,194.106 220.891,194.423 221.154 C 194.745 221.421,195.000 221.463,195.000 221.248 C 195.000 221.036,194.740 220.648,194.423 220.385 C 194.101 220.118,193.846 220.076,193.846 220.290 M196.420 224.135 C 200.745 230.917,208.040 240.934,208.395 240.579 C 208.507 240.468,208.161 239.902,207.626 239.323 C 207.092 238.743,205.070 236.019,203.133 233.269 C 201.197 230.519,199.478 228.096,199.314 227.885 C 199.150 227.673,198.242 226.252,197.296 224.727 C 196.351 223.202,195.449 221.947,195.293 221.939 C 195.137 221.930,195.644 222.918,196.420 224.135 M173.846 222.902 C 173.846 223.112,174.279 223.920,174.808 224.698 C 175.337 225.476,175.769 226.213,175.769 226.335 C 175.769 226.620,178.921 231.668,179.258 231.923 C 179.397 232.029,179.633 232.505,179.782 232.981 C 179.930 233.457,180.213 233.846,180.411 233.846 C 180.608 233.846,180.769 234.027,180.769 234.247 C 180.769 234.467,180.956 234.857,181.184 235.112 C 181.413 235.368,182.461 236.937,183.514 238.600 C 184.567 240.263,185.506 241.546,185.600 241.451 C 185.694 241.357,184.516 239.373,182.982 237.044 C 181.448 234.714,179.978 232.479,179.716 232.077 C 179.454 231.675,178.257 229.702,177.056 227.692 C 174.376 223.204,173.846 222.415,173.846 222.902 M210.435 243.750 C 216.562 251.549,227.374 263.138,227.969 262.543 C 228.102 262.411,227.444 261.661,226.509 260.877 C 224.225 258.963,220.194 254.892,218.074 252.358 C 217.124 251.222,215.913 249.807,215.385 249.213 C 214.856 248.619,214.048 247.645,213.590 247.048 C 213.132 246.450,212.303 245.442,211.748 244.808 C 211.193 244.173,210.386 243.091,209.954 242.404 C 209.522 241.716,208.994 241.154,208.782 241.154 C 208.569 241.154,209.313 242.322,210.435 243.750 M185.769 242.285 C 185.769 242.509,185.905 242.692,186.071 242.692 C 186.237 242.692,186.699 243.255,187.098 243.942 C 188.276 245.971,196.075 256.764,196.785 257.348 C 197.144 257.643,196.759 256.957,195.930 255.822 C 195.101 254.688,193.961 253.131,193.397 252.361 C 192.833 251.591,191.025 249.003,189.379 246.610 C 186.387 242.260,185.769 241.520,185.769 242.285 M131.340 253.955 C 131.196 255.109,131.152 256.378,131.243 256.776 C 131.333 257.174,131.544 256.324,131.712 254.886 C 131.879 253.449,131.923 252.180,131.809 252.066 C 131.695 251.952,131.484 252.802,131.340 253.955 M151.174 258.162 C 151.148 259.015,152.816 262.641,153.723 263.705 C 154.791 264.957,159.098 266.787,160.121 266.424 C 160.372 266.335,159.798 266.045,158.846 265.780 C 154.570 264.589,153.475 263.642,152.101 259.943 C 151.602 258.600,151.185 257.798,151.174 258.162 M130.569 258.913 C 130.230 260.037,129.148 262.437,128.866 262.692 C 128.749 262.798,128.310 263.317,127.891 263.846 C 127.252 264.650,127.331 264.623,128.370 263.679 C 129.488 262.664,131.435 258.615,131.010 258.190 C 130.916 258.096,130.718 258.421,130.569 258.913 M198.331 259.421 C 201.002 263.176,208.164 270.425,208.687 269.902 C 208.772 269.817,207.995 269.059,206.961 268.218 C 205.219 266.801,202.600 264.089,200.354 261.376 C 199.842 260.757,198.932 259.719,198.331 259.068 L 197.238 257.885 198.331 259.421 M229.423 263.642 C 230.058 264.162,230.750 264.593,230.962 264.600 C 231.173 264.606,230.827 264.186,230.192 263.666 C 229.558 263.146,228.865 262.715,228.654 262.708 C 228.442 262.701,228.788 263.122,229.423 263.642 M125.962 265.000 C 125.831 265.212,125.345 265.391,124.881 265.398 C 124.098 265.411,121.738 266.495,122.428 266.525 C 123.055 266.552,126.556 265.282,126.759 264.954 C 126.874 264.768,126.795 264.615,126.584 264.615 C 126.372 264.615,126.092 264.788,125.962 265.000 M231.538 264.770 C 231.538 264.946,234.175 266.538,234.468 266.538 C 234.957 266.538,234.098 265.759,233.010 265.217 C 231.737 264.581,231.538 264.521,231.538 264.770 M117.692 266.923 L 116.731 267.231 117.692 267.231 C 118.221 267.231,119.087 267.092,119.615 266.923 L 120.577 266.615 119.615 266.615 C 119.087 266.615,118.221 266.754,117.692 266.923 M164.423 266.945 C 165.269 267.120,166.394 267.253,166.923 267.240 C 168.450 267.203,165.927 266.630,164.231 266.628 L 162.885 266.627 164.423 266.945 M236.346 267.093 C 238.354 267.973,240.210 268.463,241.373 268.419 C 242.341 268.383,242.283 268.334,240.962 268.069 C 240.115 267.899,238.644 267.488,237.692 267.155 C 235.610 266.427,234.733 266.387,236.346 267.093 M114.234 267.682 C 113.825 267.941,113.621 268.936,113.520 271.157 C 113.309 275.804,113.504 275.950,119.423 275.569 C 121.962 275.405,131.308 275.143,140.192 274.987 L 156.346 274.702 137.308 274.846 C 126.837 274.926,117.565 275.098,116.703 275.229 C 113.043 275.786,112.332 268.468,115.962 267.584 C 116.594 267.430,116.560 267.390,115.769 267.358 C 115.240 267.337,114.550 267.483,114.234 267.682 M169.229 267.593 C 169.969 267.682,170.791 267.935,171.056 268.155 C 171.376 268.421,171.538 268.424,171.538 268.165 C 171.538 267.621,170.544 267.296,169.103 267.369 L 167.885 267.431 169.229 267.593 M243.399 269.109 C 244.052 270.336,243.960 273.898,243.247 274.914 C 242.918 275.385,242.825 275.769,243.042 275.769 C 244.311 275.769,244.783 269.780,243.591 268.797 C 243.012 268.320,242.994 268.350,243.399 269.109 M171.668 271.538 C 171.668 273.125,171.736 273.774,171.819 272.981 C 171.902 272.188,171.902 270.889,171.819 270.096 C 171.736 269.303,171.668 269.952,171.668 271.538 M209.243 270.304 C 209.258 270.642,212.734 272.779,212.937 272.576 C 213.019 272.494,212.218 271.889,211.158 271.230 C 210.098 270.571,209.236 270.154,209.243 270.304 M214.061 273.257 C 214.472 273.568,215.067 273.821,215.385 273.820 C 215.719 273.819,215.558 273.588,215.000 273.269 C 213.736 272.547,213.111 272.538,214.061 273.257 M216.346 274.120 C 216.558 274.334,217.683 274.814,218.846 275.187 C 220.010 275.561,221.337 276.007,221.795 276.180 C 223.893 276.968,233.087 277.798,235.481 277.415 C 237.803 277.043,237.721 277.028,233.077 276.974 C 226.796 276.900,221.593 275.965,216.731 274.038 C 216.215 273.833,216.088 273.861,216.346 274.120 M171.014 274.915 C 170.893 275.112,167.786 275.222,163.956 275.165 L 157.115 275.065 163.983 275.453 C 170.454 275.819,172.320 275.653,171.455 274.789 C 171.332 274.665,171.133 274.722,171.014 274.915 M239.808 276.384 L 237.885 276.907 239.808 276.691 C 240.865 276.572,241.895 276.316,242.096 276.122 C 242.553 275.681,242.273 275.713,239.808 276.384 " stroke="none" fill="#37dcc4" fill-rule="evenodd"></path></g></svg>